RosaSans-ThinItalic.ufo
<glyph name="exclam" format="2">
  <advance width="600"/>
  <unicode hex="0021"/>
  <outline>
    <contour>
      <point x="336" y="440" type="line"/>
      <point x="627" y="1440" type="line"/>
      <point x="481" y="1440" type="line"/>
      <point x="232" y="440" type="line"/>
    </contour>
    <contour>
      <point x="177" y="-30" type="curve" smooth="yes"/>
      <point x="209" y="-30"/>
      <point x="241" y="-19"/>
      <point x="265" y="4" type="curve" smooth="yes"/>
      <point x="289" y="26"/>
      <point x="303" y="54"/>
      <point x="303" y="90" type="curve" smooth="yes"/>
      <point x="303" y="115"/>
      <point x="293" y="136"/>
      <point x="277" y="152" type="curve"/>
      <point x="260" y="168"/>
      <point x="234" y="178"/>
      <point x="205" y="178" type="curve" smooth="yes"/>
      <point x="173" y="178"/>
      <point x="142" y="167"/>
      <point x="118" y="146" type="curve" smooth="yes"/>
      <point x="94" y="125"/>
      <point x="79" y="95"/>
      <point x="79" y="59" type="curve" smooth="yes"/>
      <point x="79" y="34"/>
      <point x="90" y="12"/>
      <point x="107" y="-4" type="curve" smooth="yes"/>
      <point x="123" y="-19"/>
      <point x="149" y="-30"/>
    </contour>
  </outline>
</glyph>
<glyph name="numbersign" format="2">
  <advance width="1238"/>
  <unicode hex="0023"/>
  <outline>
    <contour>
      <point x="343" y="58" type="line"/>
      <point x="433" y="418" type="line"/>
      <point x="795" y="418" type="line"/>
      <point x="705" y="56" type="line"/>
      <point x="805" y="56" type="line"/>
      <point x="895" y="418" type="line"/>
      <point x="1071" y="418" type="line"/>
      <point x="1095" y="518" type="line"/>
      <point x="919" y="518" type="line"/>
      <point x="1001" y="882" type="line"/>
      <point x="1179" y="882" type="line"/>
      <point x="1201" y="982" type="line"/>
      <point x="1025" y="982" type="line"/>
      <point x="1114" y="1344" type="line"/>
      <point x="1014" y="1344" type="line"/>
      <point x="925" y="982" type="line"/>
      <point x="563" y="982" type="line"/>
      <point x="652" y="1342" type="line"/>
      <point x="554" y="1342" type="line"/>
      <point x="463" y="982" type="line"/>
      <point x="287" y="982" type="line"/>
      <point x="263" y="884" type="line"/>
      <point x="441" y="884" type="line"/>
      <point x="355" y="516" type="line"/>
      <point x="177" y="516" type="line"/>
      <point x="155" y="418" type="line"/>
      <point x="333" y="418" type="line"/>
      <point x="243" y="58" type="line"/>
    </contour>
    <contour>
      <point x="537" y="884" type="line"/>
      <point x="901" y="882" type="line"/>
      <point x="819" y="518" type="line"/>
      <point x="455" y="516" type="line"/>
    </contour>
  </outline>
</glyph>
<glyph name="dollar" format="2">
  <advance width="1200"/>
  <unicode hex="0024"/>
  <outline>
    <contour>
      <point x="549" y="-30" type="curve" smooth="yes"/>
      <point x="799" y="-30"/>
      <point x="1010" y="130"/>
      <point x="1010" y="419" type="curve" smooth="yes"/>
      <point x="1010" y="578"/>
      <point x="906" y="663"/>
      <point x="781" y="719" type="curve" smooth="yes"/>
      <point x="644" y="781" type="line" smooth="yes"/>
      <point x="547" y="825"/>
      <point x="430" y="891"/>
      <point x="430" y="1022" type="curve" smooth="yes"/>
      <point x="430" y="1219"/>
      <point x="584" y="1327"/>
      <point x="752" y="1327" type="curve" smooth="yes"/>
      <point x="877" y="1327"/>
      <point x="999" y="1288"/>
      <point x="1087" y="1188" type="curve"/>
      <point x="1169" y="1275" type="line"/>
      <point x="1071" y="1388"/>
      <point x="922" y="1431"/>
      <point x="784" y="1431" type="curve" smooth="yes"/>
      <point x="547" y="1431"/>
      <point x="321" y="1273"/>
      <point x="321" y="994" type="curve" smooth="yes"/>
      <point x="321" y="865"/>
      <point x="392" y="770"/>
      <point x="559" y="692" type="curve" smooth="yes"/>
      <point x="686" y="633" type="line" smooth="yes"/>
      <point x="785" y="587"/>
      <point x="902" y="519"/>
      <point x="902" y="386" type="curve" smooth="yes"/>
      <point x="902" y="177"/>
      <point x="739" y="78"/>
      <point x="564" y="78" type="curve" smooth="yes"/>
      <point x="428" y="78"/>
      <point x="288" y="123"/>
      <point x="190" y="228" type="curve"/>
      <point x="106" y="135" type="line"/>
      <point x="215" y="21"/>
      <point x="401" y="-30"/>
    </contour>
    <contour>
      <point x="484" y="-160" type="line"/>
      <point x="908" y="1560" type="line"/>
      <point x="809" y="1560" type="line"/>
      <point x="385" y="-160" type="line"/>
    </contour>
  </outline>
</glyph>
<glyph name="percent" format="2">
  <advance width="2038"/>
  <unicode hex="0025"/>
  <outline>
    <contour>
      <point x="1691" y="1380" type="line"/>
      <point x="1633" y="1430" type="line"/>
      <point x="466" y="21" type="line"/>
      <point x="529" y="-30" type="line"/>
    </contour>
    <contour>
      <point x="571" y="710" type="curve" smooth="yes"/>
      <point x="784" y="710"/>
      <point x="989" y="890"/>
      <point x="989" y="1112" type="curve" smooth="yes"/>
      <point x="989" y="1283"/>
      <point x="860" y="1420"/>
      <point x="673" y="1420" type="curve" smooth="yes"/>
      <point x="457" y="1420"/>
      <point x="253" y="1240"/>
      <point x="253" y="1020" type="curve" smooth="yes"/>
      <point x="253" y="847"/>
      <point x="384" y="710"/>
    </contour>
    <contour>
      <point x="592" y="806" type="curve" smooth="yes"/>
      <point x="443" y="806"/>
      <point x="353" y="894"/>
      <point x="353" y="1026" type="curve" smooth="yes"/>
      <point x="353" y="1198"/>
      <point x="484" y="1324"/>
      <point x="650" y="1324" type="curve" smooth="yes"/>
      <point x="798" y="1324"/>
      <point x="889" y="1240"/>
      <point x="889" y="1112" type="curve" smooth="yes"/>
      <point x="889" y="948"/>
      <point x="770" y="806"/>
    </contour>
    <contour>
      <point x="1486" y="-20" type="curve" smooth="yes"/>
      <point x="1699" y="-20"/>
      <point x="1904" y="160"/>
      <point x="1904" y="382" type="curve" smooth="yes"/>
      <point x="1904" y="553"/>
      <point x="1775" y="690"/>
      <point x="1587" y="690" type="curve" smooth="yes"/>
      <point x="1372" y="690"/>
      <point x="1168" y="510"/>
      <point x="1168" y="290" type="curve" smooth="yes"/>
      <point x="1168" y="117"/>
      <point x="1299" y="-20"/>
    </contour>
    <contour>
      <point x="1509" y="76" type="curve" smooth="yes"/>
      <point x="1360" y="76"/>
      <point x="1268" y="166"/>
      <point x="1268" y="296" type="curve" smooth="yes"/>
      <point x="1268" y="455"/>
      <point x="1393" y="594"/>
      <point x="1567" y="594" type="curve" smooth="yes"/>
      <point x="1715" y="594"/>
      <point x="1804" y="512"/>
      <point x="1804" y="384" type="curve" smooth="yes"/>
      <point x="1804" y="210"/>
      <point x="1679" y="76"/>
    </contour>
  </outline>
</glyph>
<glyph name="ampersand" format="2">
  <advance width="1462"/>
  <unicode hex="0026"/>
  <outline>
    <contour>
      <point x="499" y="-24" type="qcurve" smooth="yes"/>
      <point x="560" y="-24"/>
      <point x="684" y="1"/>
      <point x="805" y="50"/>
      <point x="923" y="122"/>
      <point x="981" y="171" type="qcurve"/>
      <point x="1094" y="0" type="line"/>
      <point x="1235" y="0" type="line"/>
      <point x="1069" y="249" type="line"/>
      <point x="1118" y="300"/>
      <point x="1212" y="412"/>
      <point x="1301" y="533"/>
      <point x="1384" y="665"/>
      <point x="1419" y="734" type="qcurve"/>
      <point x="1324" y="781" type="line"/>
      <point x="1286" y="707"/>
      <point x="1210" y="576"/>
      <point x="1133" y="464"/>
      <point x="1057" y="369"/>
      <point x="1017" y="330" type="qcurve"/>
      <point x="677" y="819" type="line" smooth="yes"/>
      <point x="624" y="896"/>
      <point x="583" y="1011"/>
      <point x="583" y="1064" type="qcurve" smooth="yes"/>
      <point x="583" y="1121"/>
      <point x="629" y="1215"/>
      <point x="706" y="1285"/>
      <point x="806" y="1323"/>
      <point x="861" y="1323" type="qcurve" smooth="yes"/>
      <point x="906" y="1323"/>
      <point x="979" y="1308"/>
      <point x="1044" y="1285"/>
      <point x="1100" y="1250"/>
      <point x="1129" y="1228" type="qcurve"/>
      <point x="1196" y="1325" type="line"/>
      <point x="1126" y="1377"/>
      <point x="965" y="1431"/>
      <point x="860" y="1430" type="qcurve"/>
      <point x="784" y="1430"/>
      <point x="640" y="1375"/>
      <point x="529" y="1275"/>
      <point x="461" y="1137"/>
      <point x="461" y="1054" type="qcurve" smooth="yes"/>
      <point x="461" y="992"/>
      <point x="507" y="874"/>
      <point x="558" y="798" type="qcurve" smooth="yes"/>
      <point x="925" y="255" type="line"/>
      <point x="829" y="164"/>
      <point x="627" y="82"/>
      <point x="520" y="82" type="qcurve" smooth="yes"/>
      <point x="447" y="82"/>
      <point x="333" y="116"/>
      <point x="254" y="177"/>
      <point x="213" y="266"/>
      <point x="213" y="319" type="qcurve" smooth="yes"/>
      <point x="213" y="395"/>
      <point x="271" y="527"/>
      <point x="384" y="633"/>
      <point x="547" y="710"/>
      <point x="652" y="729" type="qcurve"/>
      <point x="590" y="805" type="line"/>
      <point x="490" y="783"/>
      <point x="310" y="697"/>
      <point x="172" y="569"/>
      <point x="92" y="405"/>
      <point x="92" y="308" type="qcurve" smooth="yes"/>
      <point x="92" y="230"/>
      <point x="149" y="107"/>
      <point x="257" y="21"/>
      <point x="406" y="-24"/>
    </contour>
  </outline>
</glyph>
<glyph name="parenleft" format="2">
  <advance width="666"/>
  <unicode hex="0028"/>
  <outline>
    <contour>
      <point x="342" y="-191" type="line"/>
      <point x="319" y="-93"/>
      <point x="293" y="103"/>
      <point x="293" y="210" type="qcurve" smooth="yes"/>
      <point x="293" y="385"/>
      <point x="363" y="758"/>
      <point x="499" y="1117"/>
      <point x="700" y="1439"/>
      <point x="829" y="1564" type="qcurve"/>
      <point x="748" y="1610" type="line"/>
      <point x="619" y="1477"/>
      <point x="412" y="1152"/>
      <point x="270" y="796"/>
      <point x="195" y="419"/>
      <point x="195" y="231" type="qcurve" smooth="yes"/>
      <point x="195" y="110"/>
      <point x="222" y="-120"/>
      <point x="254" y="-230" type="qcurve"/>
    </contour>
  </outline>
</glyph>
<glyph name="parenright" format="2">
  <advance width="666"/>
  <unicode hex="0029"/>
  <outline>
    <contour>
      <point x="31" y="-230" type="line"/>
      <point x="161" y="-95"/>
      <point x="367" y="228"/>
      <point x="509" y="586"/>
      <point x="584" y="963"/>
      <point x="584" y="1149" type="qcurve" smooth="yes"/>
      <point x="584" y="1270"/>
      <point x="556" y="1500"/>
      <point x="525" y="1610" type="qcurve"/>
      <point x="436" y="1571" type="line"/>
      <point x="460" y="1475"/>
      <point x="486" y="1279"/>
      <point x="486" y="1170" type="qcurve" smooth="yes"/>
      <point x="486" y="995"/>
      <point x="416" y="622"/>
      <point x="280" y="265"/>
      <point x="79" y="-59"/>
      <point x="-50" y="-182" type="qcurve"/>
    </contour>
  </outline>
</glyph>
<glyph name="asterisk" format="2">
  <advance width="1044"/>
  <unicode hex="002A"/>
  <outline>
    <contour>
      <point x="656" y="958" type="line"/>
      <point x="752" y="663" type="line"/>
      <point x="860" y="701" type="line"/>
      <point x="736" y="990" type="line"/>
      <point x="1050" y="991" type="line"/>
      <point x="1043" y="1107" type="line"/>
      <point x="734" y="1080" type="line"/>
      <point x="824" y="1375" type="line"/>
      <point x="720" y="1405" type="line"/>
      <point x="648" y="1099" type="line"/>
      <point x="394" y="1281" type="line"/>
      <point x="329" y="1185" type="line"/>
      <point x="599" y="1025" type="line"/>
      <point x="351" y="838" type="line"/>
      <point x="419" y="753" type="line"/>
    </contour>
  </outline>
</glyph>
<glyph name="plus" format="2">
  <advance width="1296"/>
  <unicode hex="002B"/>
  <outline>
    <contour>
      <point x="628" y="220" type="line"/>
      <point x="735" y="616" type="line"/>
      <point x="1153" y="616" type="line"/>
      <point x="1178" y="712" type="line"/>
      <point x="760" y="712" type="line"/>
      <point x="866" y="1108" type="line"/>
      <point x="766" y="1108" type="line"/>
      <point x="660" y="712" type="line"/>
      <point x="242" y="712" type="line"/>
      <point x="217" y="616" type="line"/>
      <point x="635" y="616" type="line"/>
      <point x="528" y="220" type="line"/>
    </contour>
  </outline>
</glyph>
<glyph name="comma" format="2">
  <advance width="500"/>
  <unicode hex="002C"/>
  <outline>
    <contour>
      <point x="-54" y="-246" type="line"/>
      <point x="92" y="-187"/>
      <point x="241" y="-78"/>
      <point x="241" y="74" type="curve" smooth="yes"/>
      <point x="241" y="142"/>
      <point x="200" y="178"/>
      <point x="139" y="178" type="curve" smooth="yes"/>
      <point x="77" y="178"/>
      <point x="30" y="137"/>
      <point x="30" y="74" type="curve" smooth="yes"/>
      <point x="30" y="25"/>
      <point x="66" y="-8"/>
      <point x="122" y="-13" type="curve"/>
      <point x="96" y="-63"/>
      <point x="20" y="-128"/>
      <point x="-93" y="-177" type="curve"/>
    </contour>
  </outline>
</glyph>
<glyph name="hyphen" format="2">
  <advance width="764"/>
  <unicode hex="002D"/>
  <outline>
    <contour>
      <point x="636" y="512" type="line"/>
      <point x="661" y="608" type="line"/>
      <point x="169" y="608" type="line"/>
      <point x="144" y="512" type="line"/>
    </contour>
  </outline>
</glyph>
<glyph name="period" format="2">
  <advance width="500"/>
  <unicode hex="002E"/>
  <outline>
    <contour>
      <point x="126" y="-30" type="qcurve" smooth="yes"/>
      <point x="152" y="-30"/>
      <point x="198" y="-12"/>
      <point x="232" y="20"/>
      <point x="254" y="63"/>
      <point x="254" y="89" type="qcurve" smooth="yes"/>
      <point x="254" y="108"/>
      <point x="240" y="141"/>
      <point x="213" y="164"/>
      <point x="177" y="178"/>
      <point x="156" y="178" type="qcurve" smooth="yes"/>
      <point x="132" y="178"/>
      <point x="85" y="162"/>
      <point x="49" y="130"/>
      <point x="28" y="86"/>
      <point x="28" y="59" type="qcurve" smooth="yes"/>
      <point x="28" y="40"/>
      <point x="43" y="8"/>
      <point x="70" y="-15"/>
      <point x="105" y="-30"/>
    </contour>
  </outline>
</glyph>
<glyph name="slash" format="2">
  <advance width="892"/>
  <unicode hex="002F"/>
  <outline>
    <contour>
      <point x="1156" y="1550" type="line"/>
      <point x="1072" y="1610" type="line"/>
      <point x="-149" y="-175" type="line"/>
      <point x="-61" y="-230" type="line"/>
    </contour>
  </outline>
</glyph>
<glyph name="zero" format="2">
  <advance width="1377"/>
  <unicode hex="0030"/>
  <outline>
    <contour>
      <point x="616" y="-30" type="curve" smooth="yes"/>
      <point x="1020" y="-30"/>
      <point x="1329" y="452"/>
      <point x="1329" y="897" type="curve" smooth="yes"/>
      <point x="1329" y="1193"/>
      <point x="1172" y="1430"/>
      <point x="879" y="1430" type="curve" smooth="yes"/>
      <point x="471" y="1430"/>
      <point x="166" y="945"/>
      <point x="166" y="498" type="curve" smooth="yes"/>
      <point x="166" y="201"/>
      <point x="324" y="-30"/>
    </contour>
    <contour>
      <point x="636" y="82" type="curve" smooth="yes"/>
      <point x="415" y="82"/>
      <point x="290" y="243"/>
      <point x="290" y="490" type="curve" smooth="yes"/>
      <point x="290" y="848"/>
      <point x="504" y="1318"/>
      <point x="859" y="1318" type="curve" smooth="yes"/>
      <point x="1082" y="1318"/>
      <point x="1205" y="1160"/>
      <point x="1205" y="913" type="curve" smooth="yes"/>
      <point x="1205" y="557"/>
      <point x="993" y="82"/>
    </contour>
  </outline>
</glyph>
<glyph name="zero.tnum" format="2">
  <advance width="1200"/>
  <unicode hex="0030"/>
  <outline>
    <contour>
      <point x="534" y="-30" type="curve" smooth="yes"/>
      <point x="941" y="-30"/>
      <point x="1194" y="502"/>
      <point x="1194" y="897" type="curve" smooth="yes"/>
      <point x="1194" y="1179"/>
      <point x="1060" y="1430"/>
      <point x="777" y="1430" type="curve" smooth="yes"/>
      <point x="350" y="1430"/>
      <point x="116" y="865"/>
      <point x="116" y="499" type="curve" smooth="yes"/>
      <point x="116" y="219"/>
      <point x="253" y="-30"/>
    </contour>
    <contour>
      <point x="552" y="82" type="curve" smooth="yes"/>
      <point x="331" y="82"/>
      <point x="238" y="272"/>
      <point x="238" y="490" type="curve" smooth="yes"/>
      <point x="238" y="801"/>
      <point x="410" y="1318"/>
      <point x="758" y="1318" type="curve" smooth="yes"/>
      <point x="983" y="1318"/>
      <point x="1072" y="1135"/>
      <point x="1072" y="914" type="curve" smooth="yes"/>
      <point x="1072" y="604"/>
      <point x="901" y="82"/>
    </contour>
  </outline>
</glyph>
<glyph name="one" format="2">
  <advance width="837"/>
  <unicode hex="0031"/>
  <outline>
    <contour>
      <point x="468" y="0" type="line"/>
      <point x="844" y="1400" type="line"/>
      <point x="754" y="1400" type="line"/>
      <point x="224" y="1219" type="line"/>
      <point x="254" y="1134" type="line"/>
      <point x="700" y="1283" type="line"/>
      <point x="356" y="0" type="line"/>
    </contour>
  </outline>
</glyph>
<glyph name="two" format="2">
  <advance width="1128"/>
  <unicode hex="0032"/>
  <anchor x="723.436" y="-79.9784" name="top"/>
  <outline>
    <contour>
      <point x="178" y="1017" type="curve"/>
      <point x="289" y="1010" type="line"/>
      <point x="288" y="1040"/>
      <point x="299" y="1114"/>
      <point x="307" y="1145" type="curve" smooth="yes"/>
      <point x="320" y="1195"/>
      <point x="362" y="1238"/>
      <point x="407" y="1270" type="curve" smooth="yes"/>
      <point x="463" y="1309"/>
      <point x="537" y="1323"/>
      <point x="612" y="1323" type="curve" smooth="yes"/>
      <point x="787" y="1323"/>
      <point x="985" y="1250"/>
      <point x="985" y="1068" type="curve" smooth="yes"/>
      <point x="985" y="1041"/>
      <point x="982" y="1012"/>
      <point x="973" y="980" type="curve" smooth="yes"/>
      <point x="924" y="796"/>
      <point x="661" y="696"/>
      <point x="317" y="422" type="curve" smooth="yes"/>
      <point x="-86" y="101" type="line"/>
      <point x="-113" y="1" type="line"/>
      <point x="863" y="0" type="line"/>
      <point x="891" y="106" type="line"/>
      <point x="88" y="106" type="line"/>
      <point x="447" y="391" type="line" smooth="yes"/>
      <point x="833" y="697"/>
      <point x="1042" y="795"/>
      <point x="1088" y="968" type="curve" smooth="yes"/>
      <point x="1099" y="1008"/>
      <point x="1104" y="1045"/>
      <point x="1104" y="1080" type="curve" smooth="yes"/>
      <point x="1104" y="1318"/>
      <point x="867" y="1430"/>
      <point x="633" y="1430" type="curve" smooth="yes"/>
      <point x="521" y="1430"/>
      <point x="420" y="1412"/>
      <point x="334" y="1344" type="curve" smooth="yes"/>
      <point x="273" y="1297"/>
      <point x="220" y="1233"/>
      <point x="200" y="1160" type="curve" smooth="yes"/>
      <point x="192" y="1133"/>
      <point x="177" y="1046"/>
    </contour>
  </outline>
</glyph>
<glyph name="two.tnum" format="2">
  <advance width="1200"/>
  <unicode hex="0032"/>
  <outline>
    <contour>
      <point x="303" y="1082" type="line"/>
      <point x="311" y="1082" type="line"/>
      <point x="400" y="1028" type="line"/>
      <point x="506" y="1207"/>
      <point x="648" y="1321"/>
      <point x="769" y="1321" type="curve" smooth="yes"/>
      <point x="938" y="1321"/>
      <point x="1045" y="1232"/>
      <point x="1045" y="1078" type="curve" smooth="yes"/>
      <point x="1045" y="806"/>
      <point x="746" y="594"/>
      <point x="552" y="458" type="curve" smooth="yes"/>
      <point x="43" y="103" type="line"/>
      <point x="18" y="0" type="line"/>
      <point x="922" y="0" type="line"/>
      <point x="950" y="108" type="line"/>
      <point x="199" y="108" type="line"/>
      <point x="583" y="365" type="line" smooth="yes"/>
      <point x="822" y="524"/>
      <point x="1151" y="759"/>
      <point x="1151" y="1094" type="curve" smooth="yes"/>
      <point x="1151" y="1302"/>
      <point x="1003" y="1430"/>
      <point x="783" y="1430" type="curve" smooth="yes"/>
      <point x="604" y="1430"/>
      <point x="439" y="1307"/>
      <point x="311" y="1081" type="curve"/>
    </contour>
  </outline>
</glyph>
<glyph name="three" format="2">
  <advance width="1156"/>
  <unicode hex="0033"/>
  <outline>
    <contour>
      <point x="457" y="-29" type="qcurve" smooth="yes"/>
      <point x="568" y="-29"/>
      <point x="766" y="45"/>
      <point x="912" y="177"/>
      <point x="999" y="359"/>
      <point x="999" y="466" type="qcurve" smooth="yes"/>
      <point x="999" y="550"/>
      <point x="929" y="676"/>
      <point x="808" y="764"/>
      <point x="643" y="813"/>
      <point x="548" y="818" type="qcurve"/>
      <point x="1169" y="1303" type="line"/>
      <point x="1195" y="1400" type="line"/>
      <point x="345" y="1400" type="line"/>
      <point x="317" y="1292" type="line"/>
      <point x="994" y="1292" type="line"/>
      <point x="361" y="789" type="line"/>
      <point x="378" y="719" type="line"/>
      <point x="404" y="723"/>
      <point x="457" y="724"/>
      <point x="479" y="724" type="qcurve" smooth="yes"/>
      <point x="571" y="724"/>
      <point x="717" y="687"/>
      <point x="817" y="618"/>
      <point x="872" y="518"/>
      <point x="872" y="454" type="qcurve" smooth="yes"/>
      <point x="872" y="370"/>
      <point x="810" y="232"/>
      <point x="702" y="135"/>
      <point x="553" y="83"/>
      <point x="466" y="83" type="qcurve" smooth="yes"/>
      <point x="414" y="83"/>
      <point x="308" y="102"/>
      <point x="209" y="137"/>
      <point x="117" y="191"/>
      <point x="81" y="226" type="qcurve"/>
      <point x="8" y="124" type="line"/>
      <point x="41" y="91"/>
      <point x="140" y="35"/>
      <point x="258" y="-7"/>
      <point x="390" y="-29"/>
    </contour>
  </outline>
</glyph>
<glyph name="three.tnum" format="2">
  <advance width="1200"/>
  <unicode hex="0033"/>
  <outline>
    <contour>
      <point x="496" y="-29" type="curve" smooth="yes"/>
      <point x="774" y="-29"/>
      <point x="1032" y="167"/>
      <point x="1032" y="466" type="curve" smooth="yes"/>
      <point x="1032" y="716"/>
      <point x="797" y="807"/>
      <point x="588" y="818" type="curve"/>
      <point x="1200" y="1301" type="line"/>
      <point x="1226" y="1400" type="line"/>
      <point x="387" y="1400" type="line"/>
      <point x="359" y="1292" type="line"/>
      <point x="1031" y="1292" type="line"/>
      <point x="404" y="790" type="line"/>
      <point x="420" y="719" type="line"/>
      <point x="446" y="724"/>
      <point x="482" y="724"/>
      <point x="517" y="724" type="curve" smooth="yes"/>
      <point x="695" y="724"/>
      <point x="912" y="667"/>
      <point x="912" y="454" type="curve" smooth="yes"/>
      <point x="912" y="222"/>
      <point x="729" y="83"/>
      <point x="504" y="83" type="curve" smooth="yes"/>
      <point x="365" y="83"/>
      <point x="215" y="130"/>
      <point x="122" y="223" type="curve"/>
      <point x="52" y="124" type="line"/>
      <point x="157" y="19"/>
      <point x="355" y="-29"/>
    </contour>
  </outline>
</glyph>
<glyph name="four" format="2">
  <advance width="1203"/>
  <unicode hex="0034"/>
  <outline>
    <contour>
      <point x="757" y="0" type="line"/>
      <point x="841" y="312" type="line"/>
      <point x="1083" y="312" type="line"/>
      <point x="1111" y="420" type="line"/>
      <point x="869" y="420" type="line"/>
      <point x="962" y="768" type="line"/>
      <point x="850" y="768" type="line"/>
      <point x="757" y="420" type="line"/>
      <point x="164" y="420" type="line"/>
      <point x="990" y="1400" type="line"/>
      <point x="852" y="1400" type="line"/>
      <point x="26" y="415" type="line"/>
      <point x="1" y="312" type="line"/>
      <point x="729" y="312" type="line"/>
      <point x="645" y="0" type="line"/>
    </contour>
  </outline>
</glyph>
<glyph name="four.tnum" format="2">
  <advance width="1200"/>
  <unicode hex="0034"/>
  <outline>
    <contour>
      <point x="761" y="0" type="line"/>
      <point x="841" y="312" type="line"/>
      <point x="1072" y="312" type="line"/>
      <point x="1099" y="420" type="line"/>
      <point x="868" y="420" type="line"/>
      <point x="957" y="768" type="line"/>
      <point x="846" y="768" type="line"/>
      <point x="757" y="420" type="line"/>
      <point x="193" y="420" type="line"/>
      <point x="984" y="1400" type="line"/>
      <point x="850" y="1400" type="line"/>
      <point x="59" y="415" type="line"/>
      <point x="34" y="312" type="line"/>
      <point x="730" y="312" type="line"/>
      <point x="650" y="0" type="line"/>
    </contour>
  </outline>
</glyph>
<glyph name="five" format="2">
  <advance width="1156"/>
  <unicode hex="0035"/>
  <outline>
    <contour>
      <point x="453" y="-30" type="curve" smooth="yes"/>
      <point x="609" y="-30"/>
      <point x="748" y="25"/>
      <point x="849" y="117" type="curve" smooth="yes"/>
      <point x="949" y="209"/>
      <point x="1013" y="338"/>
      <point x="1013" y="489" type="curve" smooth="yes"/>
      <point x="1013" y="604"/>
      <point x="967" y="696"/>
      <point x="888" y="760" type="curve" smooth="yes"/>
      <point x="808" y="823"/>
      <point x="701" y="858"/>
      <point x="574" y="858" type="curve" smooth="yes"/>
      <point x="511" y="858"/>
      <point x="449" y="850"/>
      <point x="381" y="831" type="curve"/>
      <point x="558" y="1292" type="line"/>
      <point x="1204" y="1292" type="line"/>
      <point x="1231" y="1400" type="line"/>
      <point x="495" y="1396" type="line"/>
      <point x="246" y="738" type="line"/>
      <point x="267" y="711" type="line"/>
      <point x="358" y="742"/>
      <point x="442" y="754"/>
      <point x="519" y="754" type="curve" smooth="yes"/>
      <point x="626" y="754"/>
      <point x="718" y="728"/>
      <point x="783" y="679" type="curve" smooth="yes"/>
      <point x="848" y="630"/>
      <point x="886" y="560"/>
      <point x="886" y="471" type="curve" smooth="yes"/>
      <point x="886" y="358"/>
      <point x="841" y="260"/>
      <point x="768" y="192" type="curve" smooth="yes"/>
      <point x="695" y="124"/>
      <point x="589" y="82"/>
      <point x="468" y="82" type="curve" smooth="yes"/>
      <point x="399" y="82"/>
      <point x="324" y="96"/>
      <point x="256" y="122" type="curve" smooth="yes"/>
      <point x="187" y="148"/>
      <point x="123" y="182"/>
      <point x="78" y="225" type="curve"/>
      <point x="5" y="125" type="line"/>
      <point x="49" y="81"/>
      <point x="116" y="43"/>
      <point x="196" y="16" type="curve" smooth="yes"/>
      <point x="275" y="-12"/>
      <point x="364" y="-30"/>
    </contour>
  </outline>
</glyph>
<glyph name="five.tnum" format="2">
  <advance width="1200"/>
  <unicode hex="0035"/>
  <outline>
    <contour>
      <point x="486" y="-30" type="curve" smooth="yes"/>
      <point x="770" y="-30"/>
      <point x="1024" y="177"/>
      <point x="1024" y="489" type="curve" smooth="yes"/>
      <point x="1024" y="741"/>
      <point x="819" y="858"/>
      <point x="602" y="858" type="curve" smooth="yes"/>
      <point x="542" y="858"/>
      <point x="485" y="850"/>
      <point x="423" y="833" type="curve"/>
      <point x="420" y="833" type="line"/>
      <point x="588" y="1292" type="line"/>
      <point x="1207" y="1292" type="line"/>
      <point x="1233" y="1400" type="line"/>
      <point x="524" y="1396" type="line"/>
      <point x="286" y="739" type="line"/>
      <point x="307" y="711" type="line"/>
      <point x="396" y="741"/>
      <point x="476" y="754"/>
      <point x="549" y="754" type="curve" smooth="yes"/>
      <point x="720" y="754"/>
      <point x="899" y="673"/>
      <point x="899" y="471" type="curve" smooth="yes"/>
      <point x="899" y="235"/>
      <point x="720" y="82"/>
      <point x="500" y="82" type="curve" smooth="yes"/>
      <point x="372" y="82"/>
      <point x="219" y="137"/>
      <point x="126" y="227" type="curve"/>
      <point x="56" y="125" type="line"/>
      <point x="153" y="24"/>
      <point x="353" y="-30"/>
    </contour>
  </outline>
</glyph>
<glyph name="six" format="2">
  <advance width="1268"/>
  <unicode hex="0036"/>
  <outline>
    <contour>
      <point x="591" y="-30" type="curve" smooth="yes"/>
      <point x="885" y="-30"/>
      <point x="1148" y="208"/>
      <point x="1148" y="492" type="curve" smooth="yes"/>
      <point x="1148" y="713"/>
      <point x="964" y="877"/>
      <point x="698" y="877" type="curve" smooth="yes"/>
      <point x="543" y="877"/>
      <point x="407" y="817"/>
      <point x="298" y="706" type="curve"/>
      <point x="383" y="904"/>
      <point x="524" y="1065"/>
      <point x="698" y="1174" type="curve" smooth="yes"/>
      <point x="858" y="1274"/>
      <point x="1046" y="1330"/>
      <point x="1243" y="1330" type="curve"/>
      <point x="1227" y="1430" type="line"/>
      <point x="1098" y="1430"/>
      <point x="973" y="1407"/>
      <point x="857" y="1366" type="curve" smooth="yes"/>
      <point x="434" y="1219"/>
      <point x="115" y="835"/>
      <point x="115" y="439" type="curve" smooth="yes"/>
      <point x="115" y="136"/>
      <point x="302" y="-30"/>
    </contour>
    <contour>
      <point x="604" y="84" type="curve" smooth="yes"/>
      <point x="377" y="84"/>
      <point x="239" y="210"/>
      <point x="239" y="384" type="curve" smooth="yes"/>
      <point x="239" y="610"/>
      <point x="435" y="778"/>
      <point x="662" y="778" type="curve" smooth="yes"/>
      <point x="873" y="778"/>
      <point x="1019" y="641"/>
      <point x="1019" y="465" type="curve" smooth="yes"/>
      <point x="1019" y="258"/>
      <point x="836" y="84"/>
    </contour>
  </outline>
</glyph>
<glyph name="six.tnum" format="2">
  <advance width="1200"/>
  <unicode hex="0036"/>
  <outline>
    <contour>
      <point x="559" y="-30" type="curve" smooth="yes"/>
      <point x="842" y="-30"/>
      <point x="1094" y="208"/>
      <point x="1094" y="492" type="curve" smooth="yes"/>
      <point x="1094" y="713"/>
      <point x="917" y="877"/>
      <point x="661" y="877" type="curve" smooth="yes"/>
      <point x="516" y="877"/>
      <point x="393" y="823"/>
      <point x="289" y="718" type="curve"/>
      <point x="285" y="718" type="line"/>
      <point x="447" y="1097"/>
      <point x="787" y="1330"/>
      <point x="1184" y="1330" type="curve"/>
      <point x="1169" y="1430" type="line"/>
      <point x="1044" y="1430"/>
      <point x="925" y="1409"/>
      <point x="813" y="1368" type="curve" smooth="yes"/>
      <point x="402" y="1215"/>
      <point x="102" y="828"/>
      <point x="102" y="439" type="curve" smooth="yes"/>
      <point x="102" y="135"/>
      <point x="282" y="-30"/>
    </contour>
    <contour>
      <point x="572" y="84" type="curve" smooth="yes"/>
      <point x="357" y="84"/>
      <point x="223" y="211"/>
      <point x="223" y="384" type="curve" smooth="yes"/>
      <point x="223" y="610"/>
      <point x="411" y="778"/>
      <point x="627" y="778" type="curve" smooth="yes"/>
      <point x="827" y="778"/>
      <point x="967" y="641"/>
      <point x="967" y="465" type="curve" smooth="yes"/>
      <point x="967" y="258"/>
      <point x="791" y="84"/>
    </contour>
  </outline>
</glyph>
<glyph name="seven" format="2">
  <advance width="1076"/>
  <unicode hex="0037"/>
  <outline>
    <contour>
      <point x="214" y="0" type="line"/>
      <point x="1191" y="1305" type="line"/>
      <point x="1216" y="1400" type="line"/>
      <point x="362" y="1400" type="line"/>
      <point x="334" y="1292" type="line"/>
      <point x="1048" y="1292" type="line"/>
      <point x="73" y="0" type="line"/>
    </contour>
  </outline>
</glyph>
<glyph name="eight" format="2">
  <advance width="1224"/>
  <unicode hex="0038"/>
  <outline>
    <contour>
      <point x="551" y="-30" type="qcurve" smooth="yes"/>
      <point x="655" y="-30"/>
      <point x="844" y="37"/>
      <point x="987" y="157"/>
      <point x="1073" y="321"/>
      <point x="1073" y="420" type="qcurve"/>
      <point x="1072" y="522"/>
      <point x="969" y="665"/>
      <point x="877" y="716" type="qcurve"/>
      <point x="944" y="734"/>
      <point x="1065" y="801"/>
      <point x="1157" y="898"/>
      <point x="1210" y="1020"/>
      <point x="1210" y="1093" type="qcurve" smooth="yes"/>
      <point x="1210" y="1162"/>
      <point x="1152" y="1283"/>
      <point x="1044" y="1376"/>
      <point x="892" y="1430"/>
      <point x="799" y="1430" type="qcurve" smooth="yes"/>
      <point x="702" y="1430"/>
      <point x="531" y="1371"/>
      <point x="402" y="1264"/>
      <point x="327" y="1118"/>
      <point x="327" y="1032" type="qcurve" smooth="yes"/>
      <point x="327" y="988"/>
      <point x="354" y="905"/>
      <point x="399" y="837"/>
      <point x="455" y="783"/>
      <point x="487" y="766" type="qcurve"/>
      <point x="405" y="748"/>
      <point x="263" y="672"/>
      <point x="158" y="562"/>
      <point x="99" y="420"/>
      <point x="99" y="334" type="qcurve" smooth="yes"/>
      <point x="99" y="258"/>
      <point x="157" y="126"/>
      <point x="273" y="28"/>
      <point x="441" y="-30"/>
    </contour>
    <contour>
      <point x="560" y="82" type="qcurve" smooth="yes"/>
      <point x="490" y="82"/>
      <point x="367" y="118"/>
      <point x="276" y="183"/>
      <point x="223" y="280"/>
      <point x="223" y="343" type="qcurve"/>
      <point x="222" y="421"/>
      <point x="280" y="545"/>
      <point x="381" y="633"/>
      <point x="523" y="680"/>
      <point x="609" y="680" type="qcurve" smooth="yes"/>
      <point x="683" y="680"/>
      <point x="807" y="645"/>
      <point x="897" y="577"/>
      <point x="949" y="479"/>
      <point x="949" y="415" type="qcurve" smooth="yes"/>
      <point x="949" y="338"/>
      <point x="888" y="214"/>
      <point x="783" y="129"/>
      <point x="641" y="82"/>
    </contour>
    <contour>
      <point x="752" y="792" type="qcurve" smooth="yes"/>
      <point x="684" y="792"/>
      <point x="570" y="825"/>
      <point x="491" y="887"/>
      <point x="447" y="978"/>
      <point x="447" y="1037" type="qcurve" smooth="yes"/>
      <point x="447" y="1096"/>
      <point x="498" y="1200"/>
      <point x="589" y="1275"/>
      <point x="714" y="1318"/>
      <point x="787" y="1318" type="qcurve" smooth="yes"/>
      <point x="858" y="1318"/>
      <point x="971" y="1282"/>
      <point x="1048" y="1214"/>
      <point x="1090" y="1124"/>
      <point x="1090" y="1070" type="qcurve" smooth="yes"/>
      <point x="1090" y="1004"/>
      <point x="1037" y="901"/>
      <point x="947" y="831"/>
      <point x="823" y="792"/>
    </contour>
  </outline>
</glyph>
<glyph name="eight.tnum" format="2">
  <advance width="1200"/>
  <unicode hex="0038"/>
  <outline>
    <contour>
      <point x="536" y="-30" type="curve" smooth="yes"/>
      <point x="779" y="-30"/>
      <point x="1037" y="141"/>
      <point x="1037" y="420" type="curve" smooth="yes"/>
      <point x="1037" y="556"/>
      <point x="967" y="647"/>
      <point x="849" y="716" type="curve"/>
      <point x="1018" y="763"/>
      <point x="1168" y="897"/>
      <point x="1168" y="1093" type="curve" smooth="yes"/>
      <point x="1168" y="1306"/>
      <point x="978" y="1430"/>
      <point x="773" y="1430" type="curve" smooth="yes"/>
      <point x="554" y="1430"/>
      <point x="320" y="1285"/>
      <point x="320" y="1032" type="curve" smooth="yes"/>
      <point x="320" y="924"/>
      <point x="386" y="817"/>
      <point x="474" y="766" type="curve"/>
      <point x="270" y="720"/>
      <point x="101" y="565"/>
      <point x="101" y="334" type="curve" smooth="yes"/>
      <point x="101" y="80"/>
      <point x="322" y="-30"/>
    </contour>
    <contour>
      <point x="544" y="82" type="curve" smooth="yes"/>
      <point x="390" y="82"/>
      <point x="224" y="160"/>
      <point x="224" y="343" type="curve" smooth="yes"/>
      <point x="224" y="562"/>
      <point x="396" y="680"/>
      <point x="591" y="680" type="curve" smooth="yes"/>
      <point x="750" y="680"/>
      <point x="914" y="603"/>
      <point x="914" y="415" type="curve" smooth="yes"/>
      <point x="914" y="198"/>
      <point x="737" y="82"/>
    </contour>
    <contour>
      <point x="728" y="792" type="curve" smooth="yes"/>
      <point x="577" y="792"/>
      <point x="438" y="863"/>
      <point x="438" y="1037" type="curve" smooth="yes"/>
      <point x="438" y="1220"/>
      <point x="601" y="1318"/>
      <point x="762" y="1318" type="curve" smooth="yes"/>
      <point x="910" y="1318"/>
      <point x="1050" y="1240"/>
      <point x="1050" y="1070" type="curve" smooth="yes"/>
      <point x="1050" y="883"/>
      <point x="890" y="792"/>
    </contour>
  </outline>
</glyph>
<glyph name="nine" format="2">
  <advance width="1228"/>
  <unicode hex="0039"/>
  <outline>
    <contour>
      <point x="135" y="-30" type="line"/>
      <point x="686" y="-30"/>
      <point x="1237" y="443"/>
      <point x="1237" y="1000" type="curve" smooth="yes"/>
      <point x="1237" y="1269"/>
      <point x="1049" y="1430"/>
      <point x="758" y="1430" type="curve" smooth="yes"/>
      <point x="469" y="1430"/>
      <point x="228" y="1211"/>
      <point x="228" y="932" type="curve" smooth="yes"/>
      <point x="228" y="711"/>
      <point x="412" y="547"/>
      <point x="666" y="547" type="curve" smooth="yes"/>
      <point x="829" y="547"/>
      <point x="952" y="607"/>
      <point x="1055" y="718" type="curve"/>
      <point x="926" y="403"/>
      <point x="590" y="70"/>
      <point x="119" y="70" type="curve"/>
    </contour>
    <contour>
      <point x="703" y="646" type="curve" smooth="yes"/>
      <point x="498" y="646"/>
      <point x="357" y="763"/>
      <point x="357" y="947" type="curve" smooth="yes"/>
      <point x="357" y="1147"/>
      <point x="536" y="1316"/>
      <point x="761" y="1316" type="curve" smooth="yes"/>
      <point x="981" y="1316"/>
      <point x="1114" y="1195"/>
      <point x="1114" y="1028" type="curve" smooth="yes"/>
      <point x="1114" y="809"/>
      <point x="923" y="646"/>
    </contour>
  </outline>
</glyph>
<glyph name="nine.tnum" format="2">
  <advance width="1200"/>
  <unicode hex="0039"/>
  <outline>
    <contour>
      <point x="147" y="-30" type="line"/>
      <point x="696" y="-30"/>
      <point x="1204" y="439"/>
      <point x="1204" y="1000" type="curve" smooth="yes"/>
      <point x="1204" y="1268"/>
      <point x="1023" y="1430"/>
      <point x="745" y="1430" type="curve" smooth="yes"/>
      <point x="467" y="1430"/>
      <point x="235" y="1211"/>
      <point x="235" y="932" type="curve" smooth="yes"/>
      <point x="235" y="711"/>
      <point x="412" y="547"/>
      <point x="656" y="547" type="curve" smooth="yes"/>
      <point x="807" y="547"/>
      <point x="921" y="602"/>
      <point x="1018" y="705" type="curve"/>
      <point x="866" y="328"/>
      <point x="526" y="70"/>
      <point x="131" y="70" type="curve"/>
    </contour>
    <contour>
      <point x="692" y="646" type="curve" smooth="yes"/>
      <point x="496" y="646"/>
      <point x="362" y="763"/>
      <point x="362" y="947" type="curve" smooth="yes"/>
      <point x="362" y="1147"/>
      <point x="532" y="1316"/>
      <point x="747" y="1316" type="curve" smooth="yes"/>
      <point x="956" y="1316"/>
      <point x="1084" y="1195"/>
      <point x="1084" y="1028" type="curve" smooth="yes"/>
      <point x="1084" y="809"/>
      <point x="902" y="646"/>
    </contour>
  </outline>
</glyph>
<glyph name="less" format="2">
  <advance width="1296"/>
  <unicode hex="003C"/>
  <outline>
    <contour>
      <point x="1081" y="350" type="line"/>
      <point x="383" y="658" type="line"/>
      <point x="1274" y="979" type="line"/>
      <point x="1237" y="1084" type="line"/>
      <point x="242" y="711" type="line"/>
      <point x="219" y="619" type="line"/>
      <point x="1037" y="251" type="line"/>
    </contour>
  </outline>
</glyph>
<glyph name="equal" format="2">
  <advance width="1296"/>
  <unicode hex="003D"/>
  <outline>
    <contour>
      <point x="1200" y="782" type="line"/>
      <point x="1225" y="878" type="line"/>
      <point x="289" y="878" type="line"/>
      <point x="264" y="782" type="line"/>
    </contour>
    <contour>
      <point x="1108" y="453" type="line"/>
      <point x="1134" y="549" type="line"/>
      <point x="198" y="549" type="line"/>
      <point x="172" y="453" type="line"/>
    </contour>
  </outline>
</glyph>
<glyph name="greater" format="2">
  <advance width="1296"/>
  <unicode hex="003E"/>
  <outline>
    <contour>
      <point x="1154" y="621" type="line"/>
      <point x="1177" y="713" type="line"/>
      <point x="359" y="1081" type="line"/>
      <point x="315" y="982" type="line"/>
      <point x="1013" y="674" type="line"/>
      <point x="122" y="353" type="line"/>
      <point x="159" y="248" type="line"/>
    </contour>
  </outline>
</glyph>
<glyph name="question" format="2">
  <advance width="950"/>
  <unicode hex="003F"/>
  <outline>
    <contour>
      <point x="390" y="378" type="line"/>
      <point x="360" y="422"/>
      <point x="338" y="473"/>
      <point x="338" y="527" type="curve" smooth="yes"/>
      <point x="338" y="862"/>
      <point x="874" y="758"/>
      <point x="874" y="1111" type="curve" smooth="yes"/>
      <point x="874" y="1277"/>
      <point x="671" y="1318"/>
      <point x="541" y="1318" type="curve" smooth="yes"/>
      <point x="460" y="1318"/>
      <point x="378" y="1300"/>
      <point x="308" y="1258" type="curve"/>
      <point x="286" y="1361" type="line"/>
      <point x="368" y="1410"/>
      <point x="464" y="1430"/>
      <point x="559" y="1430" type="curve" smooth="yes"/>
      <point x="744" y="1430"/>
      <point x="1001" y="1352"/>
      <point x="1001" y="1127" type="curve" smooth="yes"/>
      <point x="1001" y="723"/>
      <point x="459" y="739"/>
      <point x="459" y="546" type="curve" smooth="yes"/>
      <point x="459" y="506"/>
      <point x="485" y="465"/>
      <point x="508" y="433" type="curve"/>
    </contour>
    <contour>
      <point x="330" y="-30" type="curve" smooth="yes"/>
      <point x="397" y="-30"/>
      <point x="458" y="19"/>
      <point x="458" y="89" type="curve" smooth="yes"/>
      <point x="458" y="145"/>
      <point x="417" y="178"/>
      <point x="363" y="178" type="curve" smooth="yes"/>
      <point x="297" y="178"/>
      <point x="233" y="131"/>
      <point x="233" y="61" type="curve" smooth="yes"/>
      <point x="233" y="6"/>
      <point x="277" y="-30"/>
    </contour>
  </outline>
</glyph>
<glyph name="at" format="2">
  <advance width="1726"/>
  <unicode hex="0040"/>
  <outline>
    <contour>
      <point x="879" y="-234" type="curve" smooth="yes"/>
      <point x="984" y="-234"/>
      <point x="1091" y="-219"/>
      <point x="1188" y="-192" type="curve" smooth="yes"/>
      <point x="1284" y="-164"/>
      <point x="1368" y="-125"/>
      <point x="1429" y="-78" type="curve"/>
      <point x="1389" y="2" type="line"/>
      <point x="1338" y="-41"/>
      <point x="1261" y="-78"/>
      <point x="1174" y="-106" type="curve" smooth="yes"/>
      <point x="1086" y="-133"/>
      <point x="988" y="-148"/>
      <point x="895" y="-148" type="curve" smooth="yes"/>
      <point x="692" y="-148"/>
      <point x="527" y="-83"/>
      <point x="409" y="30" type="curve" smooth="yes"/>
      <point x="291" y="142"/>
      <point x="223" y="301"/>
      <point x="223" y="490" type="curve" smooth="yes"/>
      <point x="223" y="679"/>
      <point x="295" y="846"/>
      <point x="418" y="966" type="curve" smooth="yes"/>
      <point x="541" y="1085"/>
      <point x="710" y="1156"/>
      <point x="903" y="1156" type="curve" smooth="yes"/>
      <point x="1088" y="1156"/>
      <point x="1247" y="1097"/>
      <point x="1360" y="994" type="curve" smooth="yes"/>
      <point x="1472" y="891"/>
      <point x="1537" y="744"/>
      <point x="1537" y="572" type="curve" smooth="yes"/>
      <point x="1537" y="467"/>
      <point x="1511" y="377"/>
      <point x="1468" y="314" type="curve" smooth="yes"/>
      <point x="1424" y="250"/>
      <point x="1366" y="214"/>
      <point x="1303" y="214" type="curve" smooth="yes"/>
      <point x="1247" y="214"/>
      <point x="1214" y="228"/>
      <point x="1194" y="257" type="curve" smooth="yes"/>
      <point x="1174" y="285"/>
      <point x="1167" y="331"/>
      <point x="1171" y="394" type="curve" smooth="yes"/>
      <point x="1195" y="864" type="line"/>
      <point x="1095" y="864" type="line"/>
      <point x="1091" y="772" type="line"/>
      <point x="1027" y="851"/>
      <point x="946" y="890"/>
      <point x="849" y="890" type="curve" smooth="yes"/>
      <point x="752" y="890"/>
      <point x="663" y="846"/>
      <point x="599" y="773" type="curve" smooth="yes"/>
      <point x="535" y="700"/>
      <point x="497" y="599"/>
      <point x="497" y="488" type="curve" smooth="yes"/>
      <point x="497" y="388"/>
      <point x="530" y="299"/>
      <point x="585" y="235" type="curve" smooth="yes"/>
      <point x="640" y="171"/>
      <point x="715" y="132"/>
      <point x="803" y="132" type="curve" smooth="yes"/>
      <point x="928" y="132"/>
      <point x="1031" y="189"/>
      <point x="1087" y="284" type="curve"/>
      <point x="1102" y="189"/>
      <point x="1166" y="132"/>
      <point x="1289" y="132" type="curve" smooth="yes"/>
      <point x="1384" y="132"/>
      <point x="1469" y="179"/>
      <point x="1530" y="258" type="curve" smooth="yes"/>
      <point x="1591" y="337"/>
      <point x="1631" y="447"/>
      <point x="1631" y="574" type="curve" smooth="yes"/>
      <point x="1631" y="771"/>
      <point x="1556" y="937"/>
      <point x="1427" y="1056" type="curve" smooth="yes"/>
      <point x="1298" y="1175"/>
      <point x="1118" y="1242"/>
      <point x="903" y="1242" type="curve" smooth="yes"/>
      <point x="680" y="1242"/>
      <point x="488" y="1162"/>
      <point x="350" y="1026" type="curve" smooth="yes"/>
      <point x="212" y="890"/>
      <point x="129" y="701"/>
      <point x="129" y="484" type="curve" smooth="yes"/>
      <point x="129" y="271"/>
      <point x="203" y="91"/>
      <point x="335" y="-36" type="curve" smooth="yes"/>
      <point x="467" y="-163"/>
      <point x="655" y="-234"/>
    </contour>
    <contour>
      <point x="823" y="228" type="curve" smooth="yes"/>
      <point x="678" y="228"/>
      <point x="601" y="317"/>
      <point x="601" y="484" type="curve" smooth="yes"/>
      <point x="601" y="581"/>
      <point x="624" y="660"/>
      <point x="669" y="713" type="curve" smooth="yes"/>
      <point x="713" y="766"/>
      <point x="776" y="794"/>
      <point x="857" y="794" type="curve" smooth="yes"/>
      <point x="998" y="794"/>
      <point x="1077" y="706"/>
      <point x="1077" y="542" type="curve" smooth="yes"/>
      <point x="1077" y="343"/>
      <point x="984" y="228"/>
    </contour>
  </outline>
</glyph>
<glyph name="A" format="2">
  <advance width="1324"/>
  <unicode hex="0041"/>
  <outline>
    <contour>
      <point x="41" y="0" type="line"/>
      <point x="295" y="384" type="line"/>
      <point x="975" y="384" type="line"/>
      <point x="1035" y="0" type="line"/>
      <point x="1160" y="0" type="line"/>
      <point x="943" y="1400" type="line"/>
      <point x="843" y="1400" type="line"/>
      <point x="-92" y="0" type="line"/>
    </contour>
    <contour>
      <point x="849" y="1225" type="line"/>
      <point x="960" y="492" type="line"/>
      <point x="364" y="492" type="line"/>
    </contour>
  </outline>
</glyph>
<glyph name="B" format="2">
  <advance width="1220"/>
  <unicode hex="0042"/>
  <outline>
    <contour>
      <point x="593" y="0" type="line" smooth="yes"/>
      <point x="858" y="0"/>
      <point x="1066" y="184"/>
      <point x="1066" y="439" type="curve" smooth="yes"/>
      <point x="1066" y="558"/>
      <point x="1003" y="679"/>
      <point x="857" y="726" type="curve"/>
      <point x="1058" y="762"/>
      <point x="1207" y="915"/>
      <point x="1207" y="1086" type="curve" smooth="yes"/>
      <point x="1207" y="1281"/>
      <point x="1051" y="1400"/>
      <point x="794" y="1400" type="curve" smooth="yes"/>
      <point x="444" y="1400" type="line"/>
      <point x="69" y="0" type="line"/>
    </contour>
    <contour>
      <point x="365" y="670" type="line"/>
      <point x="656" y="670" type="line" smooth="yes"/>
      <point x="834" y="670"/>
      <point x="952" y="592"/>
      <point x="952" y="442" type="curve" smooth="yes"/>
      <point x="952" y="226"/>
      <point x="813" y="108"/>
      <point x="580" y="108" type="curve" smooth="yes"/>
      <point x="213" y="108" type="line"/>
    </contour>
    <contour>
      <point x="532" y="1292" type="line"/>
      <point x="753" y="1292" type="line" smooth="yes"/>
      <point x="974" y="1292"/>
      <point x="1088" y="1216"/>
      <point x="1088" y="1079" type="curve" smooth="yes"/>
      <point x="1088" y="898"/>
      <point x="901" y="778"/>
      <point x="658" y="778" type="curve" smooth="yes"/>
      <point x="393" y="778" type="line"/>
    </contour>
  </outline>
</glyph>
<glyph name="C" format="2">
  <advance width="1392"/>
  <unicode hex="0043"/>
  <outline>
    <contour>
      <point x="797" y="-30" type="qcurve" smooth="yes"/>
      <point x="908" y="-30"/>
      <point x="1118" y="25"/>
      <point x="1219" y="88" type="qcurve"/>
      <point x="1189" y="196" type="line"/>
      <point x="1106" y="139"/>
      <point x="927" y="82"/>
      <point x="826" y="82" type="qcurve" smooth="yes"/>
      <point x="701" y="82"/>
      <point x="503" y="149"/>
      <point x="364" y="273"/>
      <point x="291" y="452"/>
      <point x="291" y="565" type="qcurve" smooth="yes"/>
      <point x="291" y="718"/>
      <point x="384" y="993"/>
      <point x="558" y="1199"/>
      <point x="806" y="1320"/>
      <point x="959" y="1320" type="qcurve" smooth="yes"/>
      <point x="1095" y="1320"/>
      <point x="1289" y="1238"/>
      <point x="1352" y="1166" type="qcurve"/>
      <point x="1441" y="1254" type="line"/>
      <point x="1404" y="1296"/>
      <point x="1308" y="1362"/>
      <point x="1190" y="1406"/>
      <point x="1049" y="1430"/>
      <point x="968" y="1430" type="qcurve" smooth="yes"/>
      <point x="855" y="1430"/>
      <point x="648" y="1364"/>
      <point x="470" y="1247"/>
      <point x="325" y="1083"/>
      <point x="222" y="885"/>
      <point x="165" y="663"/>
      <point x="165" y="545" type="qcurve" smooth="yes"/>
      <point x="165" y="416"/>
      <point x="252" y="204"/>
      <point x="415" y="52"/>
      <point x="649" y="-30"/>
    </contour>
  </outline>
</glyph>
<glyph name="D" format="2">
  <advance width="1396"/>
  <unicode hex="0044"/>
  <anchor x="499" y="742" name="bar"/>
  <anchor x="916" y="1400" name="top"/>
  <outline>
    <contour>
      <point x="492" y="0" type="line" smooth="yes"/>
      <point x="1006" y="0"/>
      <point x="1349" y="319"/>
      <point x="1349" y="820" type="curve" smooth="yes"/>
      <point x="1349" y="1209"/>
      <point x="1047" y="1400"/>
      <point x="644" y="1400" type="curve" smooth="yes"/>
      <point x="440" y="1400" type="line"/>
      <point x="65" y="0" type="line"/>
    </contour>
    <contour>
      <point x="528" y="1292" type="line"/>
      <point x="677" y="1292" type="line" smooth="yes"/>
      <point x="1022" y="1292"/>
      <point x="1229" y="1094"/>
      <point x="1229" y="799" type="curve" smooth="yes"/>
      <point x="1229" y="417"/>
      <point x="949" y="108"/>
      <point x="550" y="108" type="curve" smooth="yes"/>
      <point x="209" y="108" type="line"/>
    </contour>
  </outline>
</glyph>
<glyph name="E" format="2">
  <advance width="1180"/>
  <unicode hex="0045"/>
  <anchor x="473" y="0" name="bottom"/>
  <anchor x="901" y="0" name="ogonek"/>
  <anchor x="848" y="1400" name="top"/>
  <anchor x="366" y="1400" name="topleft"/>
  <outline>
    <contour>
      <point x="901" y="0" type="line"/>
      <point x="929" y="108" type="line"/>
      <point x="215" y="108" type="line"/>
      <point x="372" y="688" type="line"/>
      <point x="1000" y="688" type="line"/>
      <point x="1028" y="796" type="line"/>
      <point x="400" y="796" type="line"/>
      <point x="534" y="1292" type="line"/>
      <point x="1242" y="1292" type="line"/>
      <point x="1270" y="1400" type="line"/>
      <point x="446" y="1400" type="line"/>
      <point x="71" y="0" type="line"/>
    </contour>
  </outline>
</glyph>
<glyph name="F" format="2">
  <advance width="1135"/>
  <unicode hex="0046"/>
  <outline>
    <contour>
      <point x="189" y="0" type="line"/>
      <point x="369" y="668" type="line"/>
      <point x="1001" y="668" type="line"/>
      <point x="1029" y="776" type="line"/>
      <point x="397" y="776" type="line"/>
      <point x="536" y="1292" type="line"/>
      <point x="1228" y="1292" type="line"/>
      <point x="1256" y="1400" type="line"/>
      <point x="448" y="1400" type="line"/>
      <point x="73" y="0" type="line"/>
    </contour>
  </outline>
</glyph>
<glyph name="G" format="2">
  <advance width="1500"/>
  <unicode hex="0047"/>
  <outline>
    <contour>
      <point x="840" y="-30" type="curve" smooth="yes"/>
      <point x="893" y="-30"/>
      <point x="959" y="-25"/>
      <point x="1024" y="-14" type="curve" smooth="yes"/>
      <point x="1088" y="-3"/>
      <point x="1155" y="14"/>
      <point x="1207" y="35" type="curve"/>
      <point x="1382" y="686" type="line"/>
      <point x="872" y="686" type="line"/>
      <point x="842" y="578" type="line"/>
      <point x="1240" y="578" type="line"/>
      <point x="1117" y="104" type="line"/>
      <point x="1057" y="91"/>
      <point x="978" y="79"/>
      <point x="886" y="79" type="curve" smooth="yes"/>
      <point x="698" y="79"/>
      <point x="549" y="126"/>
      <point x="445" y="215" type="curve" smooth="yes"/>
      <point x="341" y="303"/>
      <point x="284" y="428"/>
      <point x="284" y="584" type="curve" smooth="yes"/>
      <point x="284" y="787"/>
      <point x="353" y="967"/>
      <point x="474" y="1102" type="curve" smooth="yes"/>
      <point x="595" y="1237"/>
      <point x="768" y="1318"/>
      <point x="977" y="1318" type="curve" smooth="yes"/>
      <point x="1053" y="1318"/>
      <point x="1127" y="1307"/>
      <point x="1202" y="1284" type="curve" smooth="yes"/>
      <point x="1277" y="1261"/>
      <point x="1341" y="1228"/>
      <point x="1398" y="1183" type="curve"/>
      <point x="1475" y="1275" type="line"/>
      <point x="1422" y="1326"/>
      <point x="1352" y="1364"/>
      <point x="1272" y="1391" type="curve" smooth="yes"/>
      <point x="1192" y="1418"/>
      <point x="1102" y="1430"/>
      <point x="1010" y="1430" type="curve" smooth="yes"/>
      <point x="930" y="1430"/>
      <point x="854" y="1420"/>
      <point x="781" y="1400" type="curve" smooth="yes"/>
      <point x="636" y="1360"/>
      <point x="510" y="1289"/>
      <point x="407" y="1185" type="curve" smooth="yes"/>
      <point x="356" y="1133"/>
      <point x="312" y="1077"/>
      <point x="277" y="1013" type="curve" smooth="yes"/>
      <point x="205" y="886"/>
      <point x="164" y="740"/>
      <point x="164" y="580" type="curve" smooth="yes"/>
      <point x="164" y="393"/>
      <point x="237" y="243"/>
      <point x="358" y="135" type="curve" smooth="yes"/>
      <point x="479" y="27"/>
      <point x="647" y="-30"/>
    </contour>
  </outline>
</glyph>
<glyph name="H" format="2">
  <advance width="1436"/>
  <unicode hex="0048"/>
  <outline>
    <contour>
      <point x="188" y="0" type="line"/>
      <point x="375" y="698" type="line"/>
      <point x="1179" y="698" type="line"/>
      <point x="992" y="0" type="line"/>
      <point x="1108" y="0" type="line"/>
      <point x="1483" y="1400" type="line"/>
      <point x="1367" y="1400" type="line"/>
      <point x="1207" y="806" type="line"/>
      <point x="403" y="806" type="line"/>
      <point x="563" y="1400" type="line"/>
      <point x="447" y="1400" type="line"/>
      <point x="72" y="0" type="line"/>
    </contour>
  </outline>
</glyph>
<glyph name="I" format="2">
  <advance width="516"/>
  <unicode hex="0049"/>
  <outline>
    <contour>
      <point x="188" y="0" type="line"/>
      <point x="563" y="1400" type="line"/>
      <point x="447" y="1400" type="line"/>
      <point x="72" y="0" type="line"/>
    </contour>
  </outline>
</glyph>
<glyph name="J" format="2">
  <advance width="950"/>
  <unicode hex="004A"/>
  <anchor x="937" y="1400" name="top"/>
  <outline>
    <contour>
      <point x="245" y="-30" type="curve" smooth="yes"/>
      <point x="488" y="-30"/>
      <point x="649" y="107"/>
      <point x="717" y="362" type="curve" smooth="yes"/>
      <point x="995" y="1400" type="line"/>
      <point x="879" y="1400" type="line"/>
      <point x="601" y="366" type="line" smooth="yes"/>
      <point x="543" y="152"/>
      <point x="432" y="78"/>
      <point x="248" y="78" type="curve" smooth="yes"/>
      <point x="156" y="78"/>
      <point x="77" y="102"/>
      <point x="12" y="149" type="curve"/>
      <point x="-61" y="59" type="line"/>
      <point x="32" y="-3"/>
      <point x="135" y="-30"/>
    </contour>
  </outline>
</glyph>
<glyph name="K" format="2">
  <advance width="1314"/>
  <unicode hex="004B"/>
  <anchor x="563" y="-0" name="bottom"/>
  <outline>
    <contour>
      <point x="187" y="0" type="line"/>
      <point x="291" y="394" type="line"/>
      <point x="610" y="684" type="line"/>
      <point x="954" y="0" type="line"/>
      <point x="1095" y="0" type="line"/>
      <point x="704" y="771" type="line"/>
      <point x="1380" y="1400" type="line"/>
      <point x="1234" y="1400" type="line"/>
      <point x="342" y="574" type="line"/>
      <point x="562" y="1400" type="line"/>
      <point x="446" y="1400" type="line"/>
      <point x="71" y="0" type="line"/>
    </contour>
  </outline>
</glyph>
<glyph name="L" format="2">
  <advance width="1054"/>
  <unicode hex="004C"/>
  <outline>
    <contour>
      <point x="845" y="0" type="line"/>
      <point x="874" y="108" type="line"/>
      <point x="216" y="108" type="line"/>
      <point x="562" y="1400" type="line"/>
      <point x="446" y="1400" type="line"/>
      <point x="71" y="0" type="line"/>
    </contour>
  </outline>
</glyph>
<glyph name="M" format="2">
  <advance width="1784"/>
  <unicode hex="004D"/>
  <outline>
    <contour>
      <point x="178" y="0" type="line"/>
      <point x="509" y="1241" type="line"/>
      <point x="491" y="1238" type="line"/>
      <point x="798" y="340" type="line"/>
      <point x="910" y="340" type="line"/>
      <point x="1687" y="1198" type="line"/>
      <point x="1663" y="1210" type="line"/>
      <point x="1340" y="0" type="line"/>
      <point x="1456" y="0" type="line"/>
      <point x="1831" y="1400" type="line"/>
      <point x="1725" y="1400" type="line"/>
      <point x="861" y="427" type="line"/>
      <point x="899" y="416" type="line"/>
      <point x="564" y="1400" type="line"/>
      <point x="447" y="1400" type="line"/>
      <point x="72" y="0" type="line"/>
    </contour>
  </outline>
</glyph>
<glyph name="N" format="2">
  <advance width="1452"/>
  <unicode hex="004E"/>
  <anchor x="597" y="0" name="bottom"/>
  <anchor x="972" y="1400" name="top"/>
  <outline>
    <contour>
      <point x="187" y="0" type="line"/>
      <point x="509" y="1201" type="line"/>
      <point x="1021" y="0" type="line"/>
      <point x="1123" y="0" type="line"/>
      <point x="1498" y="1400" type="line"/>
      <point x="1382" y="1400" type="line"/>
      <point x="1063" y="209" type="line"/>
      <point x="551" y="1400" type="line"/>
      <point x="446" y="1400" type="line"/>
      <point x="71" y="0" type="line"/>
    </contour>
  </outline>
</glyph>
<glyph name="O" format="2">
  <advance width="1676"/>
  <unicode hex="004F"/>
  <anchor x="755" y="0" name="bottom"/>
  <anchor x="1441" y="1400" name="horn"/>
  <anchor x="967" y="0" name="ogonek"/>
  <anchor x="1039" y="1400" name="top"/>
  <anchor x="386" y="1400" name="topleft"/>
  <outline>
    <contour>
      <point x="803" y="-30" type="curve" smooth="yes"/>
      <point x="1252" y="-30"/>
      <point x="1636" y="357"/>
      <point x="1636" y="804" type="curve" smooth="yes"/>
      <point x="1636" y="1159"/>
      <point x="1376" y="1430"/>
      <point x="988" y="1430" type="curve" smooth="yes"/>
      <point x="538" y="1430"/>
      <point x="158" y="1045"/>
      <point x="158" y="591" type="curve" smooth="yes"/>
      <point x="158" y="235"/>
      <point x="417" y="-30"/>
    </contour>
    <contour>
      <point x="819" y="82" type="curve" smooth="yes"/>
      <point x="505" y="82"/>
      <point x="281" y="288"/>
      <point x="281" y="599" type="curve" smooth="yes"/>
      <point x="281" y="988"/>
      <point x="581" y="1318"/>
      <point x="976" y="1318" type="curve" smooth="yes"/>
      <point x="1294" y="1318"/>
      <point x="1513" y="1113"/>
      <point x="1513" y="801" type="curve" smooth="yes"/>
      <point x="1513" y="412"/>
      <point x="1213" y="82"/>
    </contour>
  </outline>
</glyph>
<glyph name="P" format="2">
  <advance width="1220"/>
  <unicode hex="0050"/>
  <outline>
    <contour>
      <point x="183" y="0" type="line"/>
      <point x="344" y="604" type="line"/>
      <point x="758" y="604" type="line" smooth="yes"/>
      <point x="868" y="604"/>
      <point x="1057" y="666"/>
      <point x="1195" y="782"/>
      <point x="1273" y="951"/>
      <point x="1273" y="1057" type="qcurve" smooth="yes"/>
      <point x="1273" y="1136"/>
      <point x="1212" y="1263"/>
      <point x="1095" y="1352"/>
      <point x="926" y="1400"/>
      <point x="817" y="1400" type="qcurve" smooth="yes"/>
      <point x="442" y="1400" type="line"/>
      <point x="67" y="0" type="line"/>
    </contour>
    <contour>
      <point x="529" y="1292" type="line"/>
      <point x="817" y="1292" type="line" smooth="yes"/>
      <point x="900" y="1292"/>
      <point x="1027" y="1258"/>
      <point x="1112" y="1192"/>
      <point x="1155" y="1097"/>
      <point x="1155" y="1039" type="qcurve" smooth="yes"/>
      <point x="1155" y="966"/>
      <point x="1100" y="846"/>
      <point x="1003" y="759"/>
      <point x="867" y="712"/>
      <point x="784" y="712" type="qcurve" smooth="yes"/>
      <point x="372" y="712" type="line"/>
    </contour>
  </outline>
</glyph>
<glyph name="Q" format="2">
  <advance width="1676"/>
  <unicode hex="0051"/>
  <outline>
    <contour>
      <point x="988" y="34" type="line"/>
      <point x="1373" y="-251" type="line"/>
      <point x="1453" y="-151" type="line"/>
      <point x="1085" y="112" type="line"/>
    </contour>
    <contour>
      <point x="804" y="-30" type="curve" smooth="yes"/>
      <point x="879" y="-30"/>
      <point x="951" y="-20"/>
      <point x="1021" y="1" type="curve" smooth="yes"/>
      <point x="1161" y="41"/>
      <point x="1285" y="116"/>
      <point x="1388" y="219" type="curve" smooth="yes"/>
      <point x="1439" y="270"/>
      <point x="1483" y="327"/>
      <point x="1520" y="389" type="curve" smooth="yes"/>
      <point x="1593" y="512"/>
      <point x="1636" y="655"/>
      <point x="1636" y="804" type="curve" smooth="yes"/>
      <point x="1636" y="981"/>
      <point x="1572" y="1138"/>
      <point x="1458" y="1250" type="curve" smooth="yes"/>
      <point x="1344" y="1362"/>
      <point x="1183" y="1430"/>
      <point x="988" y="1430" type="curve" smooth="yes"/>
      <point x="913" y="1430"/>
      <point x="841" y="1420"/>
      <point x="771" y="1400" type="curve" smooth="yes"/>
      <point x="630" y="1359"/>
      <point x="507" y="1284"/>
      <point x="405" y="1181" type="curve" smooth="yes"/>
      <point x="354" y="1130"/>
      <point x="310" y="1073"/>
      <point x="274" y="1011" type="curve" smooth="yes"/>
      <point x="201" y="887"/>
      <point x="158" y="743"/>
      <point x="158" y="591" type="curve" smooth="yes"/>
      <point x="158" y="415"/>
      <point x="223" y="259"/>
      <point x="336" y="148" type="curve" smooth="yes"/>
      <point x="449" y="37"/>
      <point x="611" y="-30"/>
    </contour>
    <contour>
      <point x="819" y="82" type="curve" smooth="yes"/>
      <point x="663" y="82"/>
      <point x="528" y="133"/>
      <point x="433" y="224" type="curve" smooth="yes"/>
      <point x="337" y="315"/>
      <point x="281" y="444"/>
      <point x="281" y="599" type="curve" smooth="yes"/>
      <point x="281" y="794"/>
      <point x="356" y="973"/>
      <point x="481" y="1105" type="curve" smooth="yes"/>
      <point x="605" y="1236"/>
      <point x="780" y="1318"/>
      <point x="977" y="1318" type="curve" smooth="yes"/>
      <point x="1136" y="1318"/>
      <point x="1269" y="1268"/>
      <point x="1364" y="1178" type="curve" smooth="yes"/>
      <point x="1459" y="1088"/>
      <point x="1514" y="958"/>
      <point x="1514" y="801" type="curve" smooth="yes"/>
      <point x="1515" y="704"/>
      <point x="1497" y="612"/>
      <point x="1462" y="525" type="curve" smooth="yes"/>
      <point x="1427" y="438"/>
      <point x="1378" y="361"/>
      <point x="1315" y="296" type="curve" smooth="yes"/>
      <point x="1190" y="165"/>
      <point x="1016" y="82"/>
    </contour>
  </outline>
</glyph>
<glyph name="R" format="2">
  <advance width="1284"/>
  <unicode hex="0052"/>
  <outline>
    <contour>
      <point x="188" y="0" type="line"/>
      <point x="353" y="614" type="line"/>
      <point x="611" y="614" type="line"/>
      <point x="915" y="0" type="line"/>
      <point x="1055" y="0" type="line"/>
      <point x="748" y="611" type="line"/>
      <point x="857" y="617"/>
      <point x="1047" y="684"/>
      <point x="1190" y="798"/>
      <point x="1271" y="961"/>
      <point x="1271" y="1064" type="qcurve" smooth="yes"/>
      <point x="1271" y="1139"/>
      <point x="1218" y="1263"/>
      <point x="1115" y="1353"/>
      <point x="962" y="1400"/>
      <point x="860" y="1400" type="qcurve" smooth="yes"/>
      <point x="447" y="1400" type="line"/>
      <point x="72" y="0" type="line"/>
    </contour>
    <contour>
      <point x="535" y="1292" type="line"/>
      <point x="836" y="1292" type="line" smooth="yes"/>
      <point x="919" y="1292"/>
      <point x="1040" y="1258"/>
      <point x="1118" y="1196"/>
      <point x="1155" y="1108"/>
      <point x="1155" y="1055" type="qcurve" smooth="yes"/>
      <point x="1155" y="980"/>
      <point x="1100" y="856"/>
      <point x="1002" y="770"/>
      <point x="864" y="722"/>
      <point x="784" y="722" type="qcurve" smooth="yes"/>
      <point x="381" y="722" type="line"/>
    </contour>
  </outline>
</glyph>
<glyph name="S" format="2">
  <advance width="1234"/>
  <unicode hex="0053"/>
  <outline>
    <contour>
      <point x="563" y="-30" type="qcurve" smooth="yes"/>
      <point x="671" y="-30"/>
      <point x="857" y="30"/>
      <point x="995" y="144"/>
      <point x="1076" y="308"/>
      <point x="1076" y="413" type="qcurve" smooth="yes"/>
      <point x="1076" y="518"/>
      <point x="947" y="664"/>
      <point x="818" y="719" type="qcurve"/>
      <point x="660" y="781" type="line"/>
      <point x="592" y="810"/>
      <point x="497" y="866"/>
      <point x="438" y="925"/>
      <point x="413" y="989"/>
      <point x="413" y="1026" type="qcurve" smooth="yes"/>
      <point x="413" y="1094"/>
      <point x="468" y="1206"/>
      <point x="567" y="1285"/>
      <point x="701" y="1328"/>
      <point x="780" y="1328" type="qcurve" smooth="yes"/>
      <point x="836" y="1328"/>
      <point x="943" y="1310"/>
      <point x="1043" y="1274"/>
      <point x="1127" y="1224"/>
      <point x="1161" y="1190" type="qcurve"/>
      <point x="1246" y="1276" type="line"/>
      <point x="1211" y="1311"/>
      <point x="1121" y="1367"/>
      <point x="1012" y="1408"/>
      <point x="885" y="1431"/>
      <point x="814" y="1431" type="qcurve" smooth="yes"/>
      <point x="709" y="1431"/>
      <point x="522" y="1370"/>
      <point x="382" y="1257"/>
      <point x="301" y="1097"/>
      <point x="301" y="996" type="qcurve" smooth="yes"/>
      <point x="301" y="895"/>
      <point x="434" y="749"/>
      <point x="571" y="692" type="qcurve" smooth="yes"/>
      <point x="715" y="633" type="line" smooth="yes"/>
      <point x="784" y="605"/>
      <point x="879" y="546"/>
      <point x="938" y="486"/>
      <point x="966" y="419"/>
      <point x="966" y="382" type="qcurve" smooth="yes"/>
      <point x="966" y="310"/>
      <point x="906" y="197"/>
      <point x="804" y="119"/>
      <point x="663" y="78"/>
      <point x="580" y="78" type="qcurve" smooth="yes"/>
      <point x="515" y="78"/>
      <point x="394" y="98"/>
      <point x="285" y="135"/>
      <point x="193" y="191"/>
      <point x="154" y="224" type="qcurve"/>
      <point x="67" y="136" type="line"/>
      <point x="107" y="98"/>
      <point x="219" y="36"/>
      <point x="348" y="-7"/>
      <point x="490" y="-30"/>
    </contour>
  </outline>
</glyph>
<glyph name="T" format="2">
  <advance width="1084"/>
  <unicode hex="0054"/>
  <anchor x="606" y="722" name="bar"/>
  <anchor x="413" y="0" name="bottom"/>
  <anchor x="788" y="1400" name="top"/>
  <outline>
    <contour>
      <point x="471" y="0" type="line"/>
      <point x="818" y="1292" type="line"/>
      <point x="1232" y="1292" type="line"/>
      <point x="1260" y="1400" type="line"/>
      <point x="316" y="1400" type="line"/>
      <point x="288" y="1292" type="line"/>
      <point x="702" y="1292" type="line"/>
      <point x="355" y="0" type="line"/>
    </contour>
  </outline>
</glyph>
<glyph name="U" format="2">
  <advance width="1444"/>
  <unicode hex="0055"/>
  <outline>
    <contour>
      <point x="642" y="-30" type="qcurve" smooth="yes"/>
      <point x="763" y="-30"/>
      <point x="965" y="51"/>
      <point x="1123" y="196"/>
      <point x="1233" y="397"/>
      <point x="1264" y="516" type="qcurve"/>
      <point x="1503" y="1400" type="line"/>
      <point x="1387" y="1400" type="line"/>
      <point x="1154" y="532" type="line" smooth="yes"/>
      <point x="1122" y="415"/>
      <point x="1023" y="245"/>
      <point x="895" y="135"/>
      <point x="741" y="82"/>
      <point x="654" y="82" type="qcurve" smooth="yes"/>
      <point x="543" y="82"/>
      <point x="390" y="145"/>
      <point x="306" y="262"/>
      <point x="293" y="428"/>
      <point x="322" y="532" type="qcurve"/>
      <point x="555" y="1400" type="line"/>
      <point x="439" y="1400" type="line"/>
      <point x="200" y="516" type="line" smooth="yes"/>
      <point x="168" y="396"/>
      <point x="201" y="195"/>
      <point x="318" y="51"/>
      <point x="511" y="-30"/>
    </contour>
  </outline>
</glyph>
<glyph name="V" format="2">
  <advance width="1256"/>
  <unicode hex="0056"/>
  <outline>
    <contour>
      <point x="554" y="0" type="line"/>
      <point x="1473" y="1400" type="line"/>
      <point x="1341" y="1400" type="line"/>
      <point x="549" y="176" type="line"/>
      <point x="404" y="1400" type="line"/>
      <point x="279" y="1400" type="line"/>
      <point x="454" y="0" type="line"/>
    </contour>
  </outline>
</glyph>
<glyph name="W" format="2">
  <advance width="2000"/>
  <unicode hex="0057"/>
  <anchor x="1248" y="1400" name="top"/>
  <outline>
    <contour>
      <point x="501" y="0" type="line"/>
      <point x="1204" y="1213" type="line"/>
      <point x="1243" y="0" type="line"/>
      <point x="1393" y="0" type="line"/>
      <point x="2184" y="1400" type="line"/>
      <point x="2054" y="1400" type="line"/>
      <point x="1347" y="131" type="line"/>
      <point x="1316" y="1400" type="line"/>
      <point x="1179" y="1400" type="line"/>
      <point x="459" y="123" type="line"/>
      <point x="436" y="1400" type="line"/>
      <point x="312" y="1400" type="line"/>
      <point x="353" y="0" type="line"/>
    </contour>
  </outline>
</glyph>
<glyph name="X" format="2">
  <advance width="1292"/>
  <unicode hex="0058"/>
  <outline>
    <contour>
      <point x="89" y="0" type="line"/>
      <point x="681" y="640" type="line"/>
      <point x="955" y="0" type="line"/>
      <point x="1086" y="0" type="line"/>
      <point x="779" y="711" type="line"/>
      <point x="1443" y="1400" type="line"/>
      <point x="1306" y="1400" type="line"/>
      <point x="719" y="803" type="line"/>
      <point x="483" y="1400" type="line"/>
      <point x="354" y="1400" type="line"/>
      <point x="619" y="733" type="line"/>
      <point x="-51" y="0" type="line"/>
    </contour>
  </outline>
</glyph>
<glyph name="Y" format="2">
  <advance width="1180"/>
  <unicode hex="0059"/>
  <outline>
    <contour>
      <point x="520" y="0" type="line"/>
      <point x="686" y="625" type="line"/>
      <point x="1394" y="1400" type="line"/>
      <point x="1250" y="1400" type="line"/>
      <point x="656" y="742" type="line"/>
      <point x="415" y="1400" type="line"/>
      <point x="282" y="1400" type="line"/>
      <point x="570" y="624" type="line"/>
      <point x="404" y="0" type="line"/>
    </contour>
  </outline>
</glyph>
<glyph name="Z" format="2">
  <advance width="1159"/>
  <unicode hex="005A"/>
  <anchor x="834" y="1400" name="top"/>
  <outline>
    <contour>
      <point x="935" y="0" type="line"/>
      <point x="963" y="108" type="line"/>
      <point x="152" y="108" type="line"/>
      <point x="1277" y="1297" type="line"/>
      <point x="1302" y="1400" type="line"/>
      <point x="376" y="1400" type="line"/>
      <point x="348" y="1292" type="line"/>
      <point x="1131" y="1292" type="line"/>
      <point x="5" y="103" type="line"/>
      <point x="-21" y="0" type="line"/>
    </contour>
  </outline>
</glyph>
<glyph name="bracketleft" format="2">
  <advance width="666"/>
  <unicode hex="005B"/>
  <outline>
    <contour>
      <point x="332" y="-220" type="line"/>
      <point x="357" y="-124" type="line"/>
      <point x="149" y="-124" type="line"/>
      <point x="589" y="1504" type="line"/>
      <point x="797" y="1504" type="line"/>
      <point x="823" y="1600" type="line"/>
      <point x="515" y="1600" type="line"/>
      <point x="24" y="-220" type="line"/>
    </contour>
  </outline>
</glyph>
<glyph name="backslash" format="2">
  <advance width="892"/>
  <unicode hex="005C"/>
  <outline>
    <contour>
      <point x="698" y="-213" type="line"/>
      <point x="423" y="1610" type="line"/>
      <point x="313" y="1594" type="line"/>
      <point x="588" y="-230" type="line"/>
    </contour>
  </outline>
</glyph>
<glyph name="bracketright" format="2">
  <advance width="666"/>
  <unicode hex="005D"/>
  <outline>
    <contour>
      <point x="756" y="1600" type="line"/>
      <point x="448" y="1600" type="line"/>
      <point x="419" y="1504" type="line"/>
      <point x="627" y="1504" type="line"/>
      <point x="192" y="-124" type="line"/>
      <point x="-16" y="-124" type="line"/>
      <point x="-41" y="-220" type="line"/>
      <point x="267" y="-220" type="line"/>
    </contour>
  </outline>
</glyph>
<glyph name="underscore" format="2">
  <advance width="1060"/>
  <unicode hex="005F"/>
  <outline>
    <contour>
      <point x="825" y="-282" type="line"/>
      <point x="851" y="-190" type="line"/>
      <point x="-149" y="-190" type="line"/>
      <point x="-175" y="-282" type="line"/>
    </contour>
  </outline>
</glyph>
<glyph name="a" format="2">
  <advance width="1049"/>
  <unicode hex="0061"/>
  <outline>
    <contour>
      <point x="339" y="-29" type="qcurve" smooth="yes"/>
      <point x="385" y="-29"/>
      <point x="481" y="-13"/>
      <point x="572" y="24"/>
      <point x="653" y="84"/>
      <point x="685" y="126" type="qcurve"/>
      <point x="652" y="0" type="line"/>
      <point x="765" y="0" type="line"/>
      <point x="931" y="597" type="line"/>
      <point x="957" y="697"/>
      <point x="931" y="848"/>
      <point x="841" y="950"/>
      <point x="698" y="1000"/>
      <point x="608" y="1000" type="qcurve" smooth="yes"/>
      <point x="515" y="1000"/>
      <point x="343" y="950"/>
      <point x="265" y="896" type="qcurve"/>
      <point x="279" y="792" type="line"/>
      <point x="315" y="817"/>
      <point x="393" y="853"/>
      <point x="473" y="880"/>
      <point x="548" y="893"/>
      <point x="581" y="893" type="qcurve" smooth="yes"/>
      <point x="640" y="893"/>
      <point x="745" y="860"/>
      <point x="813" y="790"/>
      <point x="835" y="677"/>
      <point x="815" y="594" type="qcurve"/>
      <point x="746" y="350" type="line" smooth="yes"/>
      <point x="732" y="298"/>
      <point x="661" y="200"/>
      <point x="559" y="123"/>
      <point x="429" y="78"/>
      <point x="357" y="78" type="qcurve" smooth="yes"/>
      <point x="313" y="78"/>
      <point x="236" y="102"/>
      <point x="180" y="146"/>
      <point x="149" y="210"/>
      <point x="149" y="250" type="qcurve" smooth="yes"/>
      <point x="149" y="315"/>
      <point x="212" y="399"/>
      <point x="317" y="451"/>
      <point x="455" y="474"/>
      <point x="604" y="478"/>
      <point x="757" y="468"/>
      <point x="826" y="459" type="qcurve"/>
      <point x="848" y="550" type="line"/>
      <point x="753" y="565"/>
      <point x="559" y="577"/>
      <point x="379" y="562"/>
      <point x="220" y="517"/>
      <point x="103" y="436"/>
      <point x="35" y="316"/>
      <point x="35" y="232" type="qcurve" smooth="yes"/>
      <point x="35" y="170"/>
      <point x="78" y="73"/>
      <point x="157" y="5"/>
      <point x="269" y="-29"/>
    </contour>
  </outline>
</glyph>
<glyph name="b" format="2">
  <advance width="1254"/>
  <unicode hex="0062"/>
  <outline>
    <contour>
      <point x="620" y="-30" type="qcurve" smooth="yes"/>
      <point x="737" y="-30"/>
      <point x="941" y="69"/>
      <point x="1093" y="234"/>
      <point x="1179" y="449"/>
      <point x="1179" y="566" type="qcurve" smooth="yes"/>
      <point x="1179" y="655"/>
      <point x="1121" y="810"/>
      <point x="1009" y="924"/>
      <point x="847" y="990"/>
      <point x="745" y="990" type="qcurve" smooth="yes"/>
      <point x="675" y="990"/>
      <point x="560" y="959"/>
      <point x="459" y="905"/>
      <point x="374" y="832"/>
      <point x="335" y="789" type="qcurve"/>
      <point x="346" y="734" type="line"/>
      <point x="535" y="1440" type="line"/>
      <point x="423" y="1440" type="line"/>
      <point x="36" y="0" type="line"/>
      <point x="148" y="0" type="line"/>
      <point x="210" y="227" type="line"/>
      <point x="187" y="238" type="line"/>
      <point x="209" y="180"/>
      <point x="285" y="83"/>
      <point x="393" y="11"/>
      <point x="534" y="-30"/>
    </contour>
    <contour>
      <point x="616" y="82" type="qcurve" smooth="yes"/>
      <point x="535" y="82"/>
      <point x="408" y="126"/>
      <point x="317" y="211"/>
      <point x="269" y="333"/>
      <point x="269" y="410" type="qcurve" smooth="yes"/>
      <point x="269" y="504"/>
      <point x="332" y="677"/>
      <point x="450" y="807"/>
      <point x="615" y="882"/>
      <point x="717" y="882" type="qcurve" smooth="yes"/>
      <point x="794" y="882"/>
      <point x="921" y="837"/>
      <point x="1010" y="753"/>
      <point x="1058" y="636"/>
      <point x="1058" y="564" type="qcurve" smooth="yes"/>
      <point x="1058" y="468"/>
      <point x="994" y="294"/>
      <point x="878" y="160"/>
      <point x="715" y="82"/>
    </contour>
  </outline>
</glyph>
<glyph name="c" format="2">
  <advance width="991"/>
  <unicode hex="0063"/>
  <outline>
    <contour>
      <point x="522" y="-30" type="qcurve" smooth="yes"/>
      <point x="602" y="-30"/>
      <point x="756" y="19"/>
      <point x="832" y="64" type="qcurve"/>
      <point x="772" y="154" type="line"/>
      <point x="730" y="121"/>
      <point x="604" y="78"/>
      <point x="538" y="78" type="qcurve" smooth="yes"/>
      <point x="453" y="78"/>
      <point x="322" y="125"/>
      <point x="232" y="208"/>
      <point x="184" y="328"/>
      <point x="184" y="401" type="qcurve" smooth="yes"/>
      <point x="184" y="501"/>
      <point x="246" y="677"/>
      <point x="363" y="806"/>
      <point x="528" y="882"/>
      <point x="634" y="882" type="qcurve" smooth="yes"/>
      <point x="721" y="882"/>
      <point x="855" y="837"/>
      <point x="898" y="789" type="qcurve"/>
      <point x="987" y="875" type="line"/>
      <point x="923" y="936"/>
      <point x="769" y="990"/>
      <point x="670" y="990" type="qcurve" smooth="yes"/>
      <point x="543" y="990"/>
      <point x="321" y="901"/>
      <point x="157" y="742"/>
      <point x="63" y="525"/>
      <point x="63" y="400" type="qcurve" smooth="yes"/>
      <point x="63" y="306"/>
      <point x="127" y="150"/>
      <point x="246" y="35"/>
      <point x="415" y="-30"/>
    </contour>
  </outline>
</glyph>
<glyph name="d" format="2">
  <advance width="1263"/>
  <unicode hex="0064"/>
  <anchor x="1176" y="1204" name="bar"/>
  <anchor x="1351" y="1440" name="caron"/>
  <outline>
    <contour>
      <point x="522" y="-30" type="curve" smooth="yes"/>
      <point x="709" y="-30"/>
      <point x="817" y="54"/>
      <point x="918" y="161" type="curve"/>
      <point x="910" y="212" type="line"/>
      <point x="852" y="0" type="line"/>
      <point x="964" y="0" type="line"/>
      <point x="1351" y="1440" type="line"/>
      <point x="1239" y="1440" type="line"/>
      <point x="1052" y="742" type="line"/>
      <point x="1077" y="736" type="line"/>
      <point x="1014" y="883"/>
      <point x="867" y="990"/>
      <point x="638" y="990" type="curve" smooth="yes"/>
      <point x="333" y="990"/>
      <point x="79" y="710"/>
      <point x="79" y="396" type="curve" smooth="yes"/>
      <point x="79" y="144"/>
      <point x="252" y="-30"/>
    </contour>
    <contour>
      <point x="542" y="78" type="curve" smooth="yes"/>
      <point x="331" y="78"/>
      <point x="201" y="206"/>
      <point x="201" y="402" type="curve" smooth="yes"/>
      <point x="201" y="665"/>
      <point x="382" y="882"/>
      <point x="643" y="882" type="curve" smooth="yes"/>
      <point x="854" y="882"/>
      <point x="988" y="756"/>
      <point x="988" y="556" type="curve" smooth="yes"/>
      <point x="988" y="290"/>
      <point x="806" y="78"/>
    </contour>
  </outline>
</glyph>
<glyph name="e" format="2">
  <advance width="1101"/>
  <unicode hex="0065"/>
  <outline>
    <contour>
      <point x="537" y="-30" type="qcurve" smooth="yes"/>
      <point x="577" y="-30"/>
      <point x="662" y="-19"/>
      <point x="745" y="3"/>
      <point x="828" y="37"/>
      <point x="868" y="60" type="qcurve"/>
      <point x="824" y="161" type="line"/>
      <point x="764" y="120"/>
      <point x="621" y="78"/>
      <point x="553" y="78" type="qcurve" smooth="yes"/>
      <point x="464" y="78"/>
      <point x="317" y="129"/>
      <point x="221" y="228"/>
      <point x="182" y="375"/>
      <point x="198" y="468" type="qcurve"/>
      <point x="1023" y="468" type="line"/>
      <point x="1051" y="572"/>
      <point x="1027" y="761"/>
      <point x="927" y="905"/>
      <point x="759" y="990"/>
      <point x="644" y="990" type="qcurve" smooth="yes"/>
      <point x="524" y="990"/>
      <point x="315" y="893"/>
      <point x="161" y="725"/>
      <point x="72" y="507"/>
      <point x="72" y="386" type="qcurve" smooth="yes"/>
      <point x="72" y="292"/>
      <point x="137" y="140"/>
      <point x="258" y="30"/>
      <point x="430" y="-30"/>
    </contour>
    <contour>
      <point x="225" y="572" type="line"/>
      <point x="244" y="648"/>
      <point x="317" y="763"/>
      <point x="418" y="841"/>
      <point x="547" y="882"/>
      <point x="619" y="882" type="qcurve" smooth="yes"/>
      <point x="695" y="882"/>
      <point x="815" y="848"/>
      <point x="895" y="772"/>
      <point x="931" y="654"/>
      <point x="923" y="572" type="qcurve"/>
    </contour>
  </outline>
</glyph>
<glyph name="f" format="2">
  <advance width="714"/>
  <unicode hex="0066"/>
  <outline>
    <contour>
      <point x="261" y="0" type="line"/>
      <point x="492" y="856" type="line"/>
      <point x="762" y="856" type="line"/>
      <point x="789" y="960" type="line"/>
      <point x="519" y="960" type="line"/>
      <point x="581" y="1190" type="line" smooth="yes"/>
      <point x="606" y="1286"/>
      <point x="702" y="1362"/>
      <point x="761" y="1362" type="qcurve" smooth="yes"/>
      <point x="793" y="1362"/>
      <point x="858" y="1349"/>
      <point x="891" y="1331" type="qcurve"/>
      <point x="945" y="1422" type="line"/>
      <point x="922" y="1442"/>
      <point x="848" y="1470"/>
      <point x="787" y="1470" type="qcurve" smooth="yes"/>
      <point x="673" y="1470"/>
      <point x="508" y="1330"/>
      <point x="472" y="1192" type="qcurve"/>
      <point x="151" y="0" type="line"/>
    </contour>
    <contour>
      <point x="408" y="856" type="line"/>
      <point x="433" y="960" type="line"/>
      <point x="187" y="960" type="line"/>
      <point x="162" y="856" type="line"/>
    </contour>
  </outline>
</glyph>
<glyph name="g" format="2">
  <advance width="1168"/>
  <unicode hex="0067"/>
  <outline>
    <contour>
      <point x="366" y="-450" type="curve" smooth="yes"/>
      <point x="399" y="-450"/>
      <point x="435" y="-448"/>
      <point x="472" y="-444" type="curve" smooth="yes"/>
      <point x="546" y="-435"/>
      <point x="620" y="-414"/>
      <point x="688" y="-382" type="curve"/>
      <point x="721" y="-365"/>
      <point x="751" y="-345"/>
      <point x="777" y="-321" type="curve" smooth="yes"/>
      <point x="828" y="-273"/>
      <point x="861" y="-209"/>
      <point x="861" y="-126" type="curve" smooth="yes"/>
      <point x="861" y="-73"/>
      <point x="835" y="-23"/>
      <point x="783" y="17" type="curve" smooth="yes"/>
      <point x="731" y="57"/>
      <point x="651" y="90"/>
      <point x="543" y="110" type="curve" smooth="yes"/>
      <point x="380" y="143" type="line"/>
      <point x="273" y="167"/>
      <point x="234" y="189"/>
      <point x="234" y="230" type="curve" smooth="yes"/>
      <point x="234" y="270"/>
      <point x="269" y="297"/>
      <point x="318" y="313" type="curve" smooth="yes"/>
      <point x="367" y="329"/>
      <point x="432" y="334"/>
      <point x="489" y="330" type="curve"/>
      <point x="472" y="398" type="line"/>
      <point x="435" y="397"/>
      <point x="401" y="395"/>
      <point x="369" y="391" type="curve" smooth="yes"/>
      <point x="304" y="382"/>
      <point x="250" y="367"/>
      <point x="207" y="345" type="curve" smooth="yes"/>
      <point x="186" y="334"/>
      <point x="168" y="321"/>
      <point x="153" y="307" type="curve"/>
      <point x="124" y="278"/>
      <point x="108" y="243"/>
      <point x="108" y="203" type="curve" smooth="yes"/>
      <point x="108" y="164"/>
      <point x="134" y="122"/>
      <point x="194" y="83" type="curve"/>
      <point x="113" y="78"/>
      <point x="34" y="56"/>
      <point x="-25" y="17" type="curve" smooth="yes"/>
      <point x="-85" y="-22"/>
      <point x="-123" y="-79"/>
      <point x="-123" y="-155" type="curve" smooth="yes"/>
      <point x="-123" y="-189"/>
      <point x="-116" y="-220"/>
      <point x="-103" y="-248" type="curve" smooth="yes"/>
      <point x="-76" y="-304"/>
      <point x="-28" y="-347"/>
      <point x="35" y="-379" type="curve" smooth="yes"/>
      <point x="66" y="-395"/>
      <point x="100" y="-408"/>
      <point x="137" y="-419" type="curve" smooth="yes"/>
      <point x="209" y="-440"/>
      <point x="289" y="-450"/>
    </contour>
    <contour>
      <point x="393" y="-352" type="curve"/>
      <point x="372" y="-353"/>
      <point x="347" y="-352"/>
      <point x="320" y="-349" type="curve" smooth="yes"/>
      <point x="264" y="-344"/>
      <point x="206" y="-331"/>
      <point x="151" y="-310" type="curve" smooth="yes"/>
      <point x="123" y="-299"/>
      <point x="98" y="-286"/>
      <point x="77" y="-270" type="curve" smooth="yes"/>
      <point x="33" y="-238"/>
      <point x="4" y="-194"/>
      <point x="4" y="-137" type="curve" smooth="yes"/>
      <point x="4" y="-78"/>
      <point x="42" y="-32"/>
      <point x="100" y="-3" type="curve" smooth="yes"/>
      <point x="158" y="26"/>
      <point x="234" y="40"/>
      <point x="313" y="35" type="curve"/>
      <point x="482" y="0" type="line" smooth="yes"/>
      <point x="565" y="-17"/>
      <point x="628" y="-38"/>
      <point x="670" y="-65" type="curve" smooth="yes"/>
      <point x="712" y="-92"/>
      <point x="733" y="-124"/>
      <point x="733" y="-161" type="curve" smooth="yes"/>
      <point x="733" y="-217"/>
      <point x="701" y="-265"/>
      <point x="642" y="-299" type="curve" smooth="yes"/>
      <point x="582" y="-333"/>
      <point x="497" y="-352"/>
    </contour>
    <contour>
      <point x="528" y="310" type="curve" smooth="yes"/>
      <point x="647" y="310"/>
      <point x="759" y="352"/>
      <point x="841" y="420" type="curve" smooth="yes"/>
      <point x="923" y="487"/>
      <point x="976" y="579"/>
      <point x="976" y="676" type="curve" smooth="yes"/>
      <point x="976" y="765"/>
      <point x="934" y="844"/>
      <point x="865" y="900" type="curve" smooth="yes"/>
      <point x="796" y="956"/>
      <point x="697" y="990"/>
      <point x="585" y="990" type="curve" smooth="yes"/>
      <point x="468" y="990"/>
      <point x="358" y="948"/>
      <point x="276" y="881" type="curve" smooth="yes"/>
      <point x="194" y="814"/>
      <point x="141" y="721"/>
      <point x="141" y="620" type="curve" smooth="yes"/>
      <point x="141" y="532"/>
      <point x="183" y="455"/>
      <point x="252" y="399" type="curve" smooth="yes"/>
      <point x="320" y="343"/>
      <point x="417" y="310"/>
    </contour>
    <contour>
      <point x="543" y="418" type="curve" smooth="yes"/>
      <point x="459" y="418"/>
      <point x="391" y="438"/>
      <point x="343" y="473" type="curve" smooth="yes"/>
      <point x="295" y="508"/>
      <point x="268" y="560"/>
      <point x="268" y="621" type="curve" smooth="yes"/>
      <point x="268" y="688"/>
      <point x="299" y="753"/>
      <point x="352" y="802" type="curve" smooth="yes"/>
      <point x="405" y="850"/>
      <point x="482" y="882"/>
      <point x="574" y="882" type="curve" smooth="yes"/>
      <point x="657" y="882"/>
      <point x="724" y="863"/>
      <point x="772" y="828" type="curve" smooth="yes"/>
      <point x="819" y="793"/>
      <point x="846" y="744"/>
      <point x="846" y="684" type="curve" smooth="yes"/>
      <point x="846" y="615"/>
      <point x="816" y="548"/>
      <point x="763" y="499" type="curve" smooth="yes"/>
      <point x="710" y="450"/>
      <point x="635" y="418"/>
    </contour>
    <contour>
      <point x="1155" y="856" type="line"/>
      <point x="1205" y="960" type="line"/>
      <point x="749" y="960" type="line"/>
      <point x="754" y="906" type="line"/>
      <point x="826" y="889"/>
      <point x="885" y="876"/>
      <point x="939" y="868" type="curve" smooth="yes"/>
      <point x="993" y="860"/>
      <point x="1042" y="856"/>
      <point x="1095" y="856" type="curve" smooth="yes"/>
    </contour>
  </outline>
</glyph>
<glyph name="h" format="2">
  <advance width="1154"/>
  <unicode hex="0068"/>
  <outline>
    <contour>
      <point x="153" y="0" type="line"/>
      <point x="307" y="570" type="line"/>
      <point x="327" y="648"/>
      <point x="403" y="764"/>
      <point x="503" y="842"/>
      <point x="619" y="882"/>
      <point x="681" y="882" type="qcurve" smooth="yes"/>
      <point x="745" y="882"/>
      <point x="849" y="845"/>
      <point x="915" y="774"/>
      <point x="936" y="674"/>
      <point x="919" y="612" type="qcurve" smooth="yes"/>
      <point x="753" y="0" type="line"/>
      <point x="865" y="0" type="line"/>
      <point x="1039" y="646" type="line"/>
      <point x="1058" y="723"/>
      <point x="1020" y="851"/>
      <point x="929" y="941"/>
      <point x="797" y="990"/>
      <point x="721" y="990" type="qcurve" smooth="yes"/>
      <point x="630" y="990"/>
      <point x="446" y="915"/>
      <point x="366" y="825" type="qcurve"/>
      <point x="366" y="784" type="line"/>
      <point x="543" y="1440" type="line"/>
      <point x="431" y="1440" type="line"/>
      <point x="41" y="0" type="line"/>
    </contour>
  </outline>
</glyph>
<glyph name="k" format="2">
  <advance width="1026"/>
  <unicode hex="006B"/>
  <anchor x="425" y="0" name="bottom"/>
  <outline>
    <contour>
      <point x="151" y="0" type="line"/>
      <point x="247" y="356" type="line"/>
      <point x="483" y="542" type="line"/>
      <point x="705" y="0" type="line"/>
      <point x="837" y="0" type="line"/>
      <point x="583" y="609" type="line"/>
      <point x="1021" y="960" type="line"/>
      <point x="874" y="960" type="line"/>
      <point x="288" y="502" type="line"/>
      <point x="541" y="1440" type="line"/>
      <point x="429" y="1440" type="line"/>
      <point x="39" y="0" type="line"/>
    </contour>
  </outline>
</glyph>
<glyph name="l" format="2">
  <advance width="587"/>
  <unicode hex="006C"/>
  <outline>
    <contour>
      <point x="270" y="-31" type="qcurve" smooth="yes"/>
      <point x="211" y="-31"/>
      <point x="132" y="6"/>
      <point x="93" y="72"/>
      <point x="90" y="159"/>
      <point x="105" y="211" type="qcurve"/>
      <point x="438" y="1440" type="line"/>
      <point x="550" y="1440" type="line"/>
      <point x="232" y="257" type="line"/>
      <point x="223" y="219"/>
      <point x="214" y="155"/>
      <point x="228" y="105"/>
      <point x="266" y="78"/>
      <point x="301" y="78" type="qcurve" smooth="yes"/>
      <point x="327" y="78"/>
      <point x="383" y="89"/>
      <point x="418" y="97" type="qcurve"/>
      <point x="427" y="-8" type="line"/>
      <point x="382" y="-22"/>
      <point x="295" y="-31"/>
    </contour>
  </outline>
</glyph>
<glyph name="m" format="2">
  <advance width="1818"/>
  <unicode hex="006D"/>
  <outline>
    <contour>
      <point x="153" y="0" type="line"/>
      <point x="306" y="570" type="line" smooth="yes"/>
      <point x="326" y="646"/>
      <point x="403" y="762"/>
      <point x="502" y="841"/>
      <point x="620" y="882"/>
      <point x="680" y="882" type="qcurve" smooth="yes"/>
      <point x="747" y="882"/>
      <point x="843" y="845"/>
      <point x="899" y="775"/>
      <point x="910" y="676"/>
      <point x="892" y="612" type="qcurve"/>
      <point x="729" y="0" type="line"/>
      <point x="841" y="0" type="line"/>
      <point x="994" y="570" type="line" smooth="yes"/>
      <point x="1014" y="646"/>
      <point x="1091" y="762"/>
      <point x="1190" y="841"/>
      <point x="1308" y="882"/>
      <point x="1368" y="882" type="qcurve" smooth="yes"/>
      <point x="1435" y="882"/>
      <point x="1531" y="845"/>
      <point x="1587" y="775"/>
      <point x="1598" y="676"/>
      <point x="1580" y="612" type="qcurve"/>
      <point x="1417" y="0" type="line"/>
      <point x="1529" y="0" type="line"/>
      <point x="1704" y="646" type="line"/>
      <point x="1721" y="724"/>
      <point x="1693" y="852"/>
      <point x="1615" y="941"/>
      <point x="1492" y="990"/>
      <point x="1413" y="990" type="qcurve" smooth="yes"/>
      <point x="1362" y="990"/>
      <point x="1258" y="965"/>
      <point x="1157" y="908"/>
      <point x="1056" y="824"/>
      <point x="1006" y="766" type="qcurve"/>
      <point x="1006" y="811"/>
      <point x="974" y="892"/>
      <point x="906" y="954"/>
      <point x="802" y="990"/>
      <point x="730" y="990" type="qcurve" smooth="yes"/>
      <point x="679" y="990"/>
      <point x="582" y="963"/>
      <point x="490" y="914"/>
      <point x="408" y="843"/>
      <point x="370" y="799" type="qcurve"/>
      <point x="410" y="960" type="line"/>
      <point x="298" y="960" type="line"/>
      <point x="41" y="0" type="line"/>
    </contour>
  </outline>
</glyph>
<glyph name="n" format="2">
  <advance width="1154"/>
  <unicode hex="006E"/>
  <outline>
    <contour>
      <point x="153" y="0" type="line"/>
      <point x="307" y="570" type="line"/>
      <point x="326" y="646"/>
      <point x="401" y="763"/>
      <point x="501" y="841"/>
      <point x="619" y="882"/>
      <point x="680" y="882" type="qcurve" smooth="yes"/>
      <point x="745" y="882"/>
      <point x="848" y="844"/>
      <point x="912" y="774"/>
      <point x="933" y="674"/>
      <point x="917" y="612" type="qcurve" smooth="yes"/>
      <point x="753" y="0" type="line"/>
      <point x="865" y="0" type="line"/>
      <point x="1040" y="646" type="line"/>
      <point x="1060" y="723"/>
      <point x="1022" y="850"/>
      <point x="933" y="940"/>
      <point x="799" y="990"/>
      <point x="723" y="990" type="qcurve" smooth="yes"/>
      <point x="636" y="990"/>
      <point x="453" y="911"/>
      <point x="376" y="822" type="qcurve"/>
      <point x="410" y="960" type="line"/>
      <point x="298" y="960" type="line"/>
      <point x="41" y="0" type="line"/>
    </contour>
  </outline>
</glyph>
<glyph name="o" format="2">
  <advance width="1172"/>
  <unicode hex="006F"/>
  <outline>
    <contour>
      <point x="520" y="-30" type="curve" smooth="yes"/>
      <point x="676" y="-30"/>
      <point x="820" y="38"/>
      <point x="925" y="145" type="curve" smooth="yes"/>
      <point x="978" y="198"/>
      <point x="1020" y="259"/>
      <point x="1052" y="331" type="curve" smooth="yes"/>
      <point x="1084" y="403"/>
      <point x="1100" y="476"/>
      <point x="1100" y="553" type="curve" smooth="yes"/>
      <point x="1100" y="674"/>
      <point x="1056" y="782"/>
      <point x="979" y="862" type="curve" smooth="yes"/>
      <point x="902" y="942"/>
      <point x="789" y="990"/>
      <point x="652" y="990" type="curve" smooth="yes"/>
      <point x="499" y="990"/>
      <point x="356" y="925"/>
      <point x="248" y="817" type="curve" smooth="yes"/>
      <point x="140" y="709"/>
      <point x="72" y="566"/>
      <point x="72" y="409" type="curve" smooth="yes"/>
      <point x="72" y="288"/>
      <point x="115" y="179"/>
      <point x="194" y="99" type="curve" smooth="yes"/>
      <point x="273" y="19"/>
      <point x="383" y="-30"/>
    </contour>
    <contour>
      <point x="538" y="78" type="curve" smooth="yes"/>
      <point x="433" y="78"/>
      <point x="346" y="110"/>
      <point x="286" y="167" type="curve" smooth="yes"/>
      <point x="226" y="223"/>
      <point x="193" y="304"/>
      <point x="193" y="404" type="curve" smooth="yes"/>
      <point x="193" y="532"/>
      <point x="237" y="650"/>
      <point x="314" y="738" type="curve" smooth="yes"/>
      <point x="390" y="826"/>
      <point x="501" y="882"/>
      <point x="634" y="882" type="curve" smooth="yes"/>
      <point x="742" y="882"/>
      <point x="826" y="851"/>
      <point x="887" y="795" type="curve" smooth="yes"/>
      <point x="947" y="739"/>
      <point x="979" y="657"/>
      <point x="979" y="557" type="curve" smooth="yes"/>
      <point x="979" y="429"/>
      <point x="936" y="311"/>
      <point x="859" y="223" type="curve" smooth="yes"/>
      <point x="782" y="135"/>
      <point x="671" y="78"/>
    </contour>
  </outline>
</glyph>
<glyph name="p" format="2">
  <advance width="1254"/>
  <unicode hex="0070"/>
  <outline>
    <contour>
      <point x="36" y="-420" type="line"/>
      <point x="201" y="194" type="line"/>
      <point x="236" y="130"/>
      <point x="288" y="73"/>
      <point x="357" y="34" type="curve" smooth="yes"/>
      <point x="426" y="-6"/>
      <point x="515" y="-30"/>
      <point x="623" y="-30" type="curve" smooth="yes"/>
      <point x="776" y="-30"/>
      <point x="916" y="40"/>
      <point x="1017" y="151" type="curve" smooth="yes"/>
      <point x="1117" y="262"/>
      <point x="1180" y="408"/>
      <point x="1180" y="561" type="curve" smooth="yes"/>
      <point x="1180" y="682"/>
      <point x="1140" y="790"/>
      <point x="1064" y="867" type="curve" smooth="yes"/>
      <point x="988" y="944"/>
      <point x="878" y="990"/>
      <point x="738" y="990" type="curve" smooth="yes"/>
      <point x="654" y="990"/>
      <point x="586" y="972"/>
      <point x="526" y="943" type="curve" smooth="yes"/>
      <point x="466" y="914"/>
      <point x="416" y="873"/>
      <point x="371" y="826" type="curve"/>
      <point x="409" y="960" type="line"/>
      <point x="297" y="960" type="line"/>
      <point x="-76" y="-420" type="line"/>
    </contour>
    <contour>
      <point x="618" y="78" type="curve" smooth="yes"/>
      <point x="510" y="78"/>
      <point x="425" y="109"/>
      <point x="364" y="166" type="curve" smooth="yes"/>
      <point x="303" y="222"/>
      <point x="270" y="303"/>
      <point x="270" y="400" type="curve" smooth="yes"/>
      <point x="270" y="525"/>
      <point x="314" y="647"/>
      <point x="391" y="736" type="curve" smooth="yes"/>
      <point x="467" y="825"/>
      <point x="577" y="882"/>
      <point x="713" y="882" type="curve" smooth="yes"/>
      <point x="818" y="882"/>
      <point x="905" y="851"/>
      <point x="966" y="795" type="curve" smooth="yes"/>
      <point x="1026" y="739"/>
      <point x="1059" y="658"/>
      <point x="1059" y="562" type="curve" smooth="yes"/>
      <point x="1059" y="437"/>
      <point x="1016" y="316"/>
      <point x="939" y="227" type="curve" smooth="yes"/>
      <point x="862" y="138"/>
      <point x="754" y="78"/>
    </contour>
  </outline>
</glyph>
<glyph name="q" format="2">
  <advance width="1254"/>
  <unicode hex="0071"/>
  <outline>
    <contour>
      <point x="847" y="-420" type="line"/>
      <point x="1219" y="960" type="line"/>
      <point x="1107" y="960" type="line"/>
      <point x="1049" y="748" type="line"/>
      <point x="1071" y="741" type="line"/>
      <point x="1039" y="808"/>
      <point x="947" y="902"/>
      <point x="833" y="962"/>
      <point x="707" y="990"/>
      <point x="639" y="990" type="qcurve" smooth="yes"/>
      <point x="523" y="990"/>
      <point x="317" y="895"/>
      <point x="165" y="733"/>
      <point x="76" y="519"/>
      <point x="76" y="399" type="qcurve" smooth="yes"/>
      <point x="76" y="310"/>
      <point x="134" y="156"/>
      <point x="245" y="41"/>
      <point x="406" y="-24"/>
      <point x="509" y="-24" type="qcurve" smooth="yes"/>
      <point x="577" y="-24"/>
      <point x="694" y="4"/>
      <point x="793" y="57"/>
      <point x="878" y="130"/>
      <point x="917" y="175" type="qcurve"/>
      <point x="907" y="218" type="line"/>
      <point x="735" y="-420" type="line"/>
    </contour>
    <contour>
      <point x="538" y="82" type="qcurve" smooth="yes"/>
      <point x="461" y="82"/>
      <point x="334" y="126"/>
      <point x="245" y="211"/>
      <point x="195" y="329"/>
      <point x="195" y="403" type="qcurve" smooth="yes"/>
      <point x="195" y="495"/>
      <point x="259" y="668"/>
      <point x="375" y="801"/>
      <point x="538" y="880"/>
      <point x="640" y="880" type="qcurve" smooth="yes"/>
      <point x="718" y="880"/>
      <point x="847" y="834"/>
      <point x="936" y="752"/>
      <point x="985" y="634"/>
      <point x="985" y="561" type="qcurve" smooth="yes"/>
      <point x="985" y="467"/>
      <point x="923" y="293"/>
      <point x="806" y="160"/>
      <point x="640" y="82"/>
    </contour>
  </outline>
</glyph>
<glyph name="r" format="2">
  <advance width="756"/>
  <unicode hex="0072"/>
  <outline>
    <contour>
      <point x="153" y="0" type="line"/>
      <point x="305" y="558" type="line" smooth="yes"/>
      <point x="325" y="634"/>
      <point x="400" y="752"/>
      <point x="500" y="832"/>
      <point x="619" y="874"/>
      <point x="684" y="874" type="qcurve" smooth="yes"/>
      <point x="714" y="874"/>
      <point x="772" y="866"/>
      <point x="801" y="857" type="qcurve"/>
      <point x="850" y="972" type="line"/>
      <point x="820" y="982"/>
      <point x="755" y="990"/>
      <point x="727" y="990" type="qcurve" smooth="yes"/>
      <point x="682" y="990"/>
      <point x="592" y="972"/>
      <point x="505" y="931"/>
      <point x="418" y="860"/>
      <point x="373" y="810" type="qcurve"/>
      <point x="414" y="960" type="line"/>
      <point x="300" y="960" type="line"/>
      <point x="41" y="0" type="line"/>
    </contour>
  </outline>
</glyph>
<glyph name="s" format="2">
  <advance width="932"/>
  <unicode hex="0073"/>
  <outline>
    <contour>
      <point x="379" y="-30" type="qcurve" smooth="yes"/>
      <point x="462" y="-30"/>
      <point x="603" y="17"/>
      <point x="703" y="104"/>
      <point x="758" y="225"/>
      <point x="758" y="300" type="qcurve" smooth="yes"/>
      <point x="758" y="341"/>
      <point x="726" y="409"/>
      <point x="662" y="467"/>
      <point x="563" y="514"/>
      <point x="495" y="535" type="qcurve" smooth="yes"/>
      <point x="438" y="553"/>
      <point x="354" y="589"/>
      <point x="297" y="629"/>
      <point x="270" y="675"/>
      <point x="270" y="705" type="qcurve" smooth="yes"/>
      <point x="270" y="751"/>
      <point x="305" y="821"/>
      <point x="366" y="870"/>
      <point x="453" y="896"/>
      <point x="502" y="896" type="qcurve" smooth="yes"/>
      <point x="549" y="896"/>
      <point x="635" y="877"/>
      <point x="708" y="842"/>
      <point x="769" y="793"/>
      <point x="791" y="761" type="qcurve"/>
      <point x="870" y="854" type="line"/>
      <point x="841" y="889"/>
      <point x="768" y="944"/>
      <point x="681" y="980"/>
      <point x="580" y="1000"/>
      <point x="524" y="1000" type="qcurve" smooth="yes"/>
      <point x="445" y="1000"/>
      <point x="311" y="952"/>
      <point x="211" y="866"/>
      <point x="154" y="751"/>
      <point x="154" y="685" type="qcurve" smooth="yes"/>
      <point x="154" y="642"/>
      <point x="186" y="573"/>
      <point x="250" y="515"/>
      <point x="351" y="467"/>
      <point x="420" y="443" type="qcurve" smooth="yes"/>
      <point x="480" y="421"/>
      <point x="564" y="383"/>
      <point x="618" y="345"/>
      <point x="644" y="301"/>
      <point x="644" y="271" type="qcurve" smooth="yes"/>
      <point x="644" y="225"/>
      <point x="608" y="151"/>
      <point x="541" y="100"/>
      <point x="447" y="74"/>
      <point x="388" y="74" type="qcurve" smooth="yes"/>
      <point x="343" y="74"/>
      <point x="254" y="93"/>
      <point x="176" y="127"/>
      <point x="111" y="178"/>
      <point x="86" y="211" type="qcurve"/>
      <point x="1" y="125" type="line"/>
      <point x="27" y="90"/>
      <point x="107" y="33"/>
      <point x="206" y="-8"/>
      <point x="320" y="-30"/>
    </contour>
  </outline>
</glyph>
<glyph name="t" format="2">
  <advance width="820"/>
  <unicode hex="0074"/>
  <anchor x="403" y="520" name="bar"/>
  <anchor x="383" y="-0" name="bottom"/>
  <anchor x="649" y="1440" name="caron"/>
  <outline>
    <contour>
      <point x="446" y="-30" type="curve" smooth="yes"/>
      <point x="497" y="-30"/>
      <point x="554" y="-21"/>
      <point x="600" y="0" type="curve"/>
      <point x="590" y="103" type="line"/>
      <point x="558" y="89"/>
      <point x="521" y="80"/>
      <point x="475" y="80" type="curve" smooth="yes"/>
      <point x="330" y="80"/>
      <point x="304" y="163"/>
      <point x="345" y="310" type="curve" smooth="yes"/>
      <point x="492" y="856" type="line"/>
      <point x="802" y="856" type="line"/>
      <point x="830" y="960" type="line"/>
      <point x="520" y="960" type="line"/>
      <point x="598" y="1246" type="line"/>
      <point x="486" y="1246" type="line"/>
      <point x="223" y="270" type="line" smooth="yes"/>
      <point x="172" y="80"/>
      <point x="254" y="-30"/>
    </contour>
    <contour>
      <point x="406" y="856" type="line"/>
      <point x="434" y="960" type="line"/>
      <point x="170" y="960" type="line"/>
      <point x="142" y="856" type="line"/>
    </contour>
  </outline>
</glyph>
<glyph name="u" format="2">
  <advance width="1142"/>
  <unicode hex="0075"/>
  <outline>
    <contour>
      <point x="415" y="-30" type="curve" smooth="yes"/>
      <point x="475" y="-30"/>
      <point x="533" y="-19"/>
      <point x="594" y="5" type="curve" smooth="yes"/>
      <point x="654" y="29"/>
      <point x="710" y="66"/>
      <point x="762" y="119" type="curve"/>
      <point x="732" y="0" type="line"/>
      <point x="844" y="0" type="line"/>
      <point x="1101" y="960" type="line"/>
      <point x="989" y="960" type="line"/>
      <point x="835" y="390" type="line" smooth="yes"/>
      <point x="808" y="290"/>
      <point x="758" y="209"/>
      <point x="690" y="157" type="curve" smooth="yes"/>
      <point x="622" y="104"/>
      <point x="547" y="76"/>
      <point x="467" y="76" type="curve" smooth="yes"/>
      <point x="382" y="76"/>
      <point x="315" y="100"/>
      <point x="274" y="145" type="curve" smooth="yes"/>
      <point x="233" y="190"/>
      <point x="218" y="260"/>
      <point x="237" y="348" type="curve"/>
      <point x="401" y="960" type="line"/>
      <point x="289" y="960" type="line"/>
      <point x="116" y="314" type="line" smooth="yes"/>
      <point x="91" y="214"/>
      <point x="113" y="128"/>
      <point x="169" y="68" type="curve" smooth="yes"/>
      <point x="225" y="7"/>
      <point x="311" y="-30"/>
    </contour>
  </outline>
</glyph>
<glyph name="v" format="2">
  <advance width="966"/>
  <unicode hex="0076"/>
  <outline>
    <contour>
      <point x="415" y="0" type="line"/>
      <point x="1050" y="960" type="line"/>
      <point x="916" y="960" type="line"/>
      <point x="356" y="86" type="line"/>
      <point x="390" y="80" type="line"/>
      <point x="299" y="960" type="line"/>
      <point x="174" y="960" type="line"/>
      <point x="291" y="0" type="line"/>
    </contour>
  </outline>
</glyph>
<glyph name="w" format="2">
  <advance width="1498"/>
  <unicode hex="0077"/>
  <anchor x="875" y="960" name="top"/>
  <outline>
    <contour>
      <point x="355" y="0" type="line"/>
      <point x="838" y="802" type="line"/>
      <point x="878" y="0" type="line"/>
      <point x="1006" y="0" type="line"/>
      <point x="1586" y="960" type="line"/>
      <point x="1466" y="960" type="line"/>
      <point x="975" y="140" type="line"/>
      <point x="949" y="960" type="line"/>
      <point x="821" y="960" type="line"/>
      <point x="321" y="135" type="line"/>
      <point x="289" y="960" type="line"/>
      <point x="169" y="960" type="line"/>
      <point x="224" y="0" type="line"/>
    </contour>
  </outline>
</glyph>
<glyph name="x" format="2">
  <advance width="914"/>
  <unicode hex="0078"/>
  <outline>
    <contour>
      <point x="49" y="1" type="line"/>
      <point x="440" y="408" type="line"/>
      <point x="615" y="0" type="line"/>
      <point x="752" y="0" type="line"/>
      <point x="533" y="494" type="line"/>
      <point x="974" y="960" type="line"/>
      <point x="834" y="960" type="line"/>
      <point x="481" y="582" type="line"/>
      <point x="317" y="960" type="line"/>
      <point x="184" y="960" type="line"/>
      <point x="392" y="498" type="line"/>
      <point x="-95" y="1" type="line"/>
    </contour>
  </outline>
</glyph>
<glyph name="y" format="2">
  <advance width="964"/>
  <unicode hex="0079"/>
  <outline>
    <contour>
      <point x="18" y="-449" type="qcurve" smooth="yes"/>
      <point x="62" y="-449"/>
      <point x="143" y="-426"/>
      <point x="222" y="-369"/>
      <point x="301" y="-277"/>
      <point x="344" y="-209" type="qcurve"/>
      <point x="1057" y="960" type="line"/>
      <point x="933" y="960" type="line"/>
      <point x="403" y="87" type="line"/>
      <point x="298" y="960" type="line"/>
      <point x="175" y="960" type="line"/>
      <point x="303" y="-65" type="line"/>
      <point x="233" y="-190" type="line"/>
      <point x="211" y="-227"/>
      <point x="166" y="-283"/>
      <point x="116" y="-321"/>
      <point x="56" y="-342"/>
      <point x="20" y="-342" type="qcurve" smooth="yes"/>
      <point x="-22" y="-342"/>
      <point x="-107" y="-307"/>
      <point x="-138" y="-269" type="qcurve"/>
      <point x="-193" y="-369" type="line"/>
      <point x="-163" y="-397"/>
      <point x="-110" y="-429"/>
      <point x="-59" y="-446"/>
      <point x="-7" y="-449"/>
    </contour>
  </outline>
</glyph>
<glyph name="z" format="2">
  <advance width="922"/>
  <unicode hex="007A"/>
  <outline>
    <contour>
      <point x="693" y="0" type="line"/>
      <point x="721" y="104" type="line"/>
      <point x="143" y="104" type="line"/>
      <point x="919" y="862" type="line"/>
      <point x="944" y="960" type="line"/>
      <point x="236" y="960" type="line"/>
      <point x="208" y="856" type="line"/>
      <point x="772" y="856" type="line"/>
      <point x="-4" y="99" type="line"/>
      <point x="-29" y="0" type="line"/>
    </contour>
  </outline>
</glyph>
<glyph name="braceleft" format="2">
  <advance width="666"/>
  <unicode hex="007B"/>
  <outline>
    <contour>
      <point x="358" y="-128" type="line"/>
      <point x="303" y="-132"/>
      <point x="234" y="-123"/>
      <point x="201" y="-89"/>
      <point x="202" y="-34"/>
      <point x="217" y="6" type="qcurve" smooth="yes"/>
      <point x="395" y="462" type="line" smooth="yes"/>
      <point x="416" y="516"/>
      <point x="431" y="596"/>
      <point x="417" y="650"/>
      <point x="371" y="682"/>
      <point x="333" y="690" type="qcurve"/>
      <point x="333" y="692" type="line"/>
      <point x="375" y="700"/>
      <point x="438" y="733"/>
      <point x="482" y="788"/>
      <point x="510" y="867"/>
      <point x="517" y="920" type="qcurve"/>
      <point x="587" y="1374" type="line"/>
      <point x="594" y="1415"/>
      <point x="621" y="1471"/>
      <point x="671" y="1503"/>
      <point x="746" y="1513"/>
      <point x="798" y="1508" type="qcurve"/>
      <point x="825" y="1604" type="line"/>
      <point x="753" y="1617"/>
      <point x="633" y="1595"/>
      <point x="542" y="1537"/>
      <point x="486" y="1443"/>
      <point x="475" y="1380" type="qcurve"/>
      <point x="409" y="904" type="line"/>
      <point x="401" y="854"/>
      <point x="378" y="790"/>
      <point x="332" y="753"/>
      <point x="255" y="740"/>
      <point x="193" y="740" type="qcurve"/>
      <point x="168" y="644" type="line"/>
      <point x="230" y="644"/>
      <point x="300" y="631"/>
      <point x="326" y="596"/>
      <point x="314" y="531"/>
      <point x="293" y="478" type="qcurve" smooth="yes"/>
      <point x="101" y="-4" type="line"/>
      <point x="78" y="-64"/>
      <point x="84" y="-157"/>
      <point x="143" y="-215"/>
      <point x="252" y="-235"/>
      <point x="334" y="-224" type="qcurve"/>
    </contour>
  </outline>
</glyph>
<glyph name="bar" format="2">
  <advance width="500"/>
  <unicode hex="007C"/>
  <outline>
    <contour>
      <point x="111" y="-220" type="line"/>
      <point x="602" y="1600" type="line"/>
      <point x="502" y="1600" type="line"/>
      <point x="11" y="-220" type="line"/>
    </contour>
  </outline>
</glyph>
<glyph name="braceright" format="2">
  <advance width="666"/>
  <unicode hex="007D"/>
  <outline>
    <contour>
      <point x="-54" y="-224" type="line"/>
      <point x="43" y="-239"/>
      <point x="125" y="-225"/>
      <point x="186" y="-186" type="curve" smooth="yes"/>
      <point x="246" y="-147"/>
      <point x="283" y="-84"/>
      <point x="296" y="-4" type="curve"/>
      <point x="364" y="478" type="line"/>
      <point x="371" y="550"/>
      <point x="384" y="590"/>
      <point x="415" y="614" type="curve" smooth="yes"/>
      <point x="446" y="637"/>
      <point x="493" y="644"/>
      <point x="577" y="644" type="curve"/>
      <point x="604" y="740" type="line"/>
      <point x="520" y="740"/>
      <point x="479" y="747"/>
      <point x="460" y="772" type="curve" smooth="yes"/>
      <point x="441" y="796"/>
      <point x="450" y="836"/>
      <point x="477" y="904" type="curve" smooth="yes"/>
      <point x="666" y="1380" type="line" smooth="yes"/>
      <point x="699" y="1464"/>
      <point x="692" y="1527"/>
      <point x="653" y="1566" type="curve" smooth="yes"/>
      <point x="614" y="1605"/>
      <point x="540" y="1621"/>
      <point x="436" y="1604" type="curve"/>
      <point x="411" y="1508" type="line"/>
      <point x="484" y="1515"/>
      <point x="532" y="1508"/>
      <point x="553" y="1487" type="curve" smooth="yes"/>
      <point x="574" y="1466"/>
      <point x="572" y="1430"/>
      <point x="552" y="1374" type="curve"/>
      <point x="376" y="920" type="line"/>
      <point x="317" y="777"/>
      <point x="338" y="712"/>
      <point x="439" y="692" type="curve"/>
      <point x="436" y="690" type="line"/>
      <point x="379" y="679"/>
      <point x="336" y="659"/>
      <point x="308" y="623" type="curve" smooth="yes"/>
      <point x="279" y="587"/>
      <point x="261" y="534"/>
      <point x="252" y="462" type="curve"/>
      <point x="184" y="6" type="line"/>
      <point x="175" y="-47"/>
      <point x="159" y="-83"/>
      <point x="124" y="-106" type="curve" smooth="yes"/>
      <point x="89" y="-129"/>
      <point x="40" y="-133"/>
      <point x="-29" y="-128" type="curve"/>
    </contour>
  </outline>
</glyph>
<glyph name="asciitilde" format="2">
  <advance width="1296"/>
  <unicode hex="007E"/>
  <outline>
    <contour>
      <point x="918" y="540" type="curve" smooth="yes"/>
      <point x="1005" y="540"/>
      <point x="1105" y="581"/>
      <point x="1201" y="681" type="curve"/>
      <point x="1168" y="762" type="line"/>
      <point x="1089" y="679"/>
      <point x="1003" y="636"/>
      <point x="933" y="636" type="curve" smooth="yes"/>
      <point x="806" y="636"/>
      <point x="677" y="784"/>
      <point x="499" y="784" type="curve" smooth="yes"/>
      <point x="406" y="784"/>
      <point x="306" y="739"/>
      <point x="209" y="638" type="curve"/>
      <point x="252" y="570" type="line"/>
      <point x="324" y="643"/>
      <point x="415" y="688"/>
      <point x="484" y="688" type="curve" smooth="yes"/>
      <point x="610" y="688"/>
      <point x="745" y="540"/>
    </contour>
  </outline>
</glyph>
<glyph name="exclamdown" format="2">
  <advance width="645"/>
  <unicode hex="00A1"/>
  <outline>
    <contour>
      <point x="137" y="-430" type="line"/>
      <point x="375" y="530" type="line"/>
      <point x="275" y="530" type="line"/>
      <point x="-3" y="-430" type="line"/>
    </contour>
    <contour>
      <point x="409" y="792" type="curve" smooth="yes"/>
      <point x="476" y="792"/>
      <point x="536" y="841"/>
      <point x="536" y="911" type="curve" smooth="yes"/>
      <point x="536" y="961"/>
      <point x="496" y="1000"/>
      <point x="439" y="1000" type="curve" smooth="yes"/>
      <point x="372" y="1000"/>
      <point x="311" y="951"/>
      <point x="311" y="881" type="curve" smooth="yes"/>
      <point x="311" y="831"/>
      <point x="352" y="792"/>
    </contour>
  </outline>
</glyph>
<glyph name="cent" format="2">
  <advance width="1296"/>
  <unicode hex="00A2"/>
  <outline>
    <contour>
      <point x="584" y="-160" type="line"/>
      <point x="627" y="0" type="line"/>
      <point x="752" y="-4"/>
      <point x="865" y="30"/>
      <point x="977" y="101" type="curve"/>
      <point x="911" y="175" type="line"/>
      <point x="881" y="151"/>
      <point x="843" y="132"/>
      <point x="797" y="117" type="curve" smooth="yes"/>
      <point x="750" y="102"/>
      <point x="702" y="96"/>
      <point x="653" y="98" type="curve"/>
      <point x="854" y="849" type="line"/>
      <point x="922" y="840"/>
      <point x="973" y="813"/>
      <point x="1017" y="772" type="curve"/>
      <point x="1104" y="839" type="line"/>
      <point x="1040" y="900"/>
      <point x="973" y="932"/>
      <point x="882" y="945" type="curve"/>
      <point x="928" y="1120" type="line"/>
      <point x="828" y="1120" type="line"/>
      <point x="783" y="952" type="line"/>
      <point x="623" y="949"/>
      <point x="484" y="886"/>
      <point x="383" y="786" type="curve" smooth="yes"/>
      <point x="282" y="685"/>
      <point x="222" y="550"/>
      <point x="222" y="399" type="curve" smooth="yes"/>
      <point x="222" y="303"/>
      <point x="251" y="218"/>
      <point x="306" y="151" type="curve" smooth="yes"/>
      <point x="361" y="84"/>
      <point x="436" y="37"/>
      <point x="529" y="14" type="curve"/>
      <point x="484" y="-160" type="line"/>
    </contour>
    <contour>
      <point x="555" y="110" type="line"/>
      <point x="407" y="149"/>
      <point x="328" y="248"/>
      <point x="328" y="401" type="curve" smooth="yes"/>
      <point x="328" y="529"/>
      <point x="369" y="644"/>
      <point x="442" y="726" type="curve" smooth="yes"/>
      <point x="515" y="808"/>
      <point x="624" y="857"/>
      <point x="757" y="857" type="curve"/>
    </contour>
  </outline>
</glyph>
<glyph name="sterling" format="2">
  <advance width="1296"/>
  <unicode hex="00A3"/>
  <outline>
    <contour>
      <point x="1025" y="0" type="line"/>
      <point x="1054" y="104" type="line"/>
      <point x="339" y="104" type="line"/>
      <point x="406" y="144"/>
      <point x="492" y="232"/>
      <point x="542" y="327"/>
      <point x="560" y="429"/>
      <point x="560" y="483" type="qcurve" smooth="yes"/>
      <point x="560" y="540"/>
      <point x="569" y="661"/>
      <point x="578" y="785"/>
      <point x="587" y="906"/>
      <point x="586" y="964" type="qcurve"/>
      <point x="586" y="1051"/>
      <point x="635" y="1185"/>
      <point x="724" y="1276"/>
      <point x="849" y="1325"/>
      <point x="925" y="1325" type="qcurve" smooth="yes"/>
      <point x="1023" y="1325"/>
      <point x="1177" y="1266"/>
      <point x="1241" y="1200" type="qcurve"/>
      <point x="1316" y="1283" type="line"/>
      <point x="1284" y="1317"/>
      <point x="1203" y="1372"/>
      <point x="1106" y="1409"/>
      <point x="993" y="1431"/>
      <point x="930" y="1431" type="qcurve" smooth="yes"/>
      <point x="830" y="1431"/>
      <point x="662" y="1365"/>
      <point x="539" y="1246"/>
      <point x="470" y="1080"/>
      <point x="470" y="978" type="qcurve" smooth="yes"/>
      <point x="470" y="916"/>
      <point x="469" y="797"/>
      <point x="466" y="680"/>
      <point x="463" y="563"/>
      <point x="463" y="502" type="qcurve" smooth="yes"/>
      <point x="463" y="420"/>
      <point x="419" y="294"/>
      <point x="330" y="201"/>
      <point x="194" y="135"/>
      <point x="101" y="108" type="qcurve"/>
      <point x="73" y="0" type="line"/>
    </contour>
    <contour>
      <point x="1061" y="638" type="line"/>
      <point x="1086" y="738" type="line"/>
      <point x="248" y="738" type="line"/>
      <point x="223" y="638" type="line"/>
    </contour>
  </outline>
</glyph>
<glyph name="currency" format="2">
  <advance width="1296"/>
  <unicode hex="00A4"/>
  <outline>
    <contour>
      <point x="408" y="308" type="line"/>
      <point x="456" y="266"/>
      <point x="568" y="226"/>
      <point x="633" y="226" type="qcurve" smooth="yes"/>
      <point x="695" y="226"/>
      <point x="822" y="267"/>
      <point x="882" y="311" type="qcurve"/>
      <point x="1015" y="156" type="line"/>
      <point x="1099" y="230" type="line"/>
      <point x="968" y="381" type="line"/>
      <point x="1025" y="439"/>
      <point x="1090" y="589"/>
      <point x="1090" y="669" type="qcurve" smooth="yes"/>
      <point x="1090" y="720"/>
      <point x="1065" y="814"/>
      <point x="1035" y="857" type="qcurve"/>
      <point x="1209" y="1008" type="line"/>
      <point x="1139" y="1086" type="line"/>
      <point x="970" y="938" type="line"/>
      <point x="924" y="978"/>
      <point x="810" y="1016"/>
      <point x="745" y="1016" type="qcurve" smooth="yes"/>
      <point x="683" y="1016"/>
      <point x="554" y="975"/>
      <point x="492" y="931" type="qcurve"/>
      <point x="359" y="1086" type="line"/>
      <point x="277" y="1014" type="line"/>
      <point x="408" y="861" type="line"/>
      <point x="353" y="804"/>
      <point x="290" y="657"/>
      <point x="290" y="567" type="qcurve" smooth="yes"/>
      <point x="290" y="519"/>
      <point x="313" y="427"/>
      <point x="343" y="385" type="qcurve"/>
      <point x="167" y="234" type="line"/>
      <point x="235" y="156" type="line"/>
    </contour>
    <contour>
      <point x="657" y="326" type="qcurve" smooth="yes"/>
      <point x="596" y="326"/>
      <point x="497" y="365"/>
      <point x="425" y="432"/>
      <point x="387" y="525"/>
      <point x="387" y="581" type="qcurve" smooth="yes"/>
      <point x="387" y="646"/>
      <point x="440" y="768"/>
      <point x="532" y="860"/>
      <point x="656" y="916"/>
      <point x="727" y="916" type="qcurve" smooth="yes"/>
      <point x="785" y="916"/>
      <point x="883" y="880"/>
      <point x="952" y="813"/>
      <point x="990" y="719"/>
      <point x="990" y="663" type="qcurve" smooth="yes"/>
      <point x="990" y="591"/>
      <point x="937" y="468"/>
      <point x="844" y="378"/>
      <point x="724" y="326"/>
    </contour>
  </outline>
</glyph>
<glyph name="yen" format="2">
  <advance width="1296"/>
  <unicode hex="00A5"/>
  <outline>
    <contour>
      <point x="571" y="0" type="line"/>
      <point x="654" y="318" type="line"/>
      <point x="1048" y="318" type="line"/>
      <point x="1075" y="418" type="line"/>
      <point x="681" y="418" type="line"/>
      <point x="738" y="626" type="line"/>
      <point x="1132" y="626" type="line"/>
      <point x="1160" y="726" type="line"/>
      <point x="837" y="726" type="line"/>
      <point x="1456" y="1400" type="line"/>
      <point x="1324" y="1400" type="line"/>
      <point x="708" y="733" type="line"/>
      <point x="471" y="1400" type="line"/>
      <point x="350" y="1400" type="line"/>
      <point x="581" y="726" type="line"/>
      <point x="260" y="726" type="line"/>
      <point x="232" y="626" type="line"/>
      <point x="626" y="626" type="line"/>
      <point x="569" y="418" type="line"/>
      <point x="175" y="418" type="line"/>
      <point x="148" y="318" type="line"/>
      <point x="542" y="318" type="line"/>
      <point x="459" y="0" type="line"/>
    </contour>
  </outline>
</glyph>
<glyph name="brokenbar" format="2">
  <advance width="500"/>
  <unicode hex="00A6"/>
  <outline>
    <contour>
      <point x="389" y="810" type="line"/>
      <point x="569" y="1480" type="line"/>
      <point x="469" y="1480" type="line"/>
      <point x="289" y="810" type="line"/>
    </contour>
    <contour>
      <point x="145" y="-100" type="line"/>
      <point x="323" y="570" type="line"/>
      <point x="223" y="570" type="line"/>
      <point x="45" y="-100" type="line"/>
    </contour>
  </outline>
</glyph>
<glyph name="section" format="2">
  <advance width="1225"/>
  <unicode hex="00A7"/>
  <outline>
    <contour>
      <point x="403" y="-450" type="curve" smooth="yes"/>
      <point x="528" y="-450"/>
      <point x="642" y="-413"/>
      <point x="727" y="-345" type="curve" smooth="yes"/>
      <point x="811" y="-277"/>
      <point x="863" y="-179"/>
      <point x="863" y="-55" type="curve" smooth="yes"/>
      <point x="863" y="17"/>
      <point x="836" y="71"/>
      <point x="789" y="118" type="curve" smooth="yes"/>
      <point x="741" y="165"/>
      <point x="669" y="200"/>
      <point x="580" y="237" type="curve"/>
      <point x="500" y="268"/>
      <point x="433" y="300"/>
      <point x="386" y="339" type="curve" smooth="yes"/>
      <point x="339" y="378"/>
      <point x="313" y="423"/>
      <point x="313" y="487" type="curve" smooth="yes"/>
      <point x="313" y="583"/>
      <point x="359" y="654"/>
      <point x="436" y="702" type="curve" smooth="yes"/>
      <point x="513" y="749"/>
      <point x="619" y="775"/>
      <point x="736" y="774" type="curve"/>
      <point x="761" y="862" type="line"/>
      <point x="697" y="873"/>
      <point x="633" y="870"/>
      <point x="566" y="855" type="curve" smooth="yes"/>
      <point x="499" y="839"/>
      <point x="440" y="813"/>
      <point x="387" y="777" type="curve" smooth="yes"/>
      <point x="334" y="741"/>
      <point x="291" y="697"/>
      <point x="256" y="641" type="curve" smooth="yes"/>
      <point x="221" y="585"/>
      <point x="205" y="526"/>
      <point x="205" y="458" type="curve" smooth="yes"/>
      <point x="205" y="386"/>
      <point x="232" y="328"/>
      <point x="280" y="276" type="curve" smooth="yes"/>
      <point x="327" y="224"/>
      <point x="399" y="180"/>
      <point x="492" y="141" type="curve" smooth="yes"/>
      <point x="584" y="104"/>
      <point x="645" y="73"/>
      <point x="688" y="38" type="curve" smooth="yes"/>
      <point x="731" y="2"/>
      <point x="749" y="-35"/>
      <point x="749" y="-83" type="curve" smooth="yes"/>
      <point x="749" y="-167"/>
      <point x="715" y="-229"/>
      <point x="655" y="-276" type="curve" smooth="yes"/>
      <point x="595" y="-323"/>
      <point x="513" y="-346"/>
      <point x="420" y="-346" type="curve" smooth="yes"/>
      <point x="351" y="-346"/>
      <point x="283" y="-334"/>
      <point x="222" y="-307" type="curve" smooth="yes"/>
      <point x="161" y="-280"/>
      <point x="105" y="-244"/>
      <point x="65" y="-192" type="curve"/>
      <point x="-25" y="-281" type="line"/>
      <point x="16" y="-325"/>
      <point x="77" y="-367"/>
      <point x="152" y="-399" type="curve" smooth="yes"/>
      <point x="227" y="-430"/>
      <point x="311" y="-450"/>
    </contour>
    <contour>
      <point x="543" y="152" type="line"/>
      <point x="684" y="144"/>
      <point x="816" y="180"/>
      <point x="916" y="252" type="curve" smooth="yes"/>
      <point x="1016" y="324"/>
      <point x="1079" y="428"/>
      <point x="1079" y="561" type="curve" smooth="yes"/>
      <point x="1079" y="634"/>
      <point x="1050" y="691"/>
      <point x="999" y="740" type="curve" smooth="yes"/>
      <point x="948" y="788"/>
      <point x="878" y="826"/>
      <point x="790" y="861" type="curve" smooth="yes"/>
      <point x="706" y="894"/>
      <point x="639" y="922"/>
      <point x="592" y="955" type="curve" smooth="yes"/>
      <point x="545" y="988"/>
      <point x="520" y="1026"/>
      <point x="520" y="1082" type="curve" smooth="yes"/>
      <point x="520" y="1159"/>
      <point x="552" y="1219"/>
      <point x="604" y="1263" type="curve" smooth="yes"/>
      <point x="656" y="1306"/>
      <point x="731" y="1328"/>
      <point x="816" y="1328" type="curve" smooth="yes"/>
      <point x="888" y="1328"/>
      <point x="953" y="1314"/>
      <point x="1013" y="1290" type="curve" smooth="yes"/>
      <point x="1073" y="1265"/>
      <point x="1122" y="1229"/>
      <point x="1159" y="1180" type="curve"/>
      <point x="1241" y="1273" type="line"/>
      <point x="1196" y="1325"/>
      <point x="1140" y="1363"/>
      <point x="1073" y="1391" type="curve" smooth="yes"/>
      <point x="1006" y="1418"/>
      <point x="932" y="1430"/>
      <point x="848" y="1430" type="curve" smooth="yes"/>
      <point x="731" y="1430"/>
      <point x="624" y="1394"/>
      <point x="544" y="1327" type="curve" smooth="yes"/>
      <point x="464" y="1260"/>
      <point x="415" y="1168"/>
      <point x="415" y="1052" type="curve" smooth="yes"/>
      <point x="415" y="924"/>
      <point x="511" y="842"/>
      <point x="692" y="766" type="curve" smooth="yes"/>
      <point x="784" y="729"/>
      <point x="849" y="698"/>
      <point x="894" y="666" type="curve" smooth="yes"/>
      <point x="939" y="633"/>
      <point x="961" y="596"/>
      <point x="961" y="548" type="curve" smooth="yes"/>
      <point x="961" y="451"/>
      <point x="918" y="372"/>
      <point x="846" y="316" type="curve" smooth="yes"/>
      <point x="774" y="260"/>
      <point x="677" y="233"/>
      <point x="565" y="238" type="curve"/>
    </contour>
  </outline>
</glyph>
<glyph name="copyright" format="2">
  <advance width="1676"/>
  <unicode hex="00A9"/>
  <outline>
    <contour>
      <point x="839" y="-30" type="curve" smooth="yes"/>
      <point x="1051" y="-30"/>
      <point x="1233" y="48"/>
      <point x="1366" y="180" type="curve" smooth="yes"/>
      <point x="1498" y="312"/>
      <point x="1576" y="492"/>
      <point x="1576" y="700" type="curve" smooth="yes"/>
      <point x="1576" y="907"/>
      <point x="1498" y="1086"/>
      <point x="1366" y="1219" type="curve" smooth="yes"/>
      <point x="1233" y="1352"/>
      <point x="1051" y="1430"/>
      <point x="839" y="1430" type="curve" smooth="yes"/>
      <point x="626" y="1430"/>
      <point x="444" y="1354"/>
      <point x="311" y="1222" type="curve" smooth="yes"/>
      <point x="178" y="1090"/>
      <point x="100" y="911"/>
      <point x="100" y="700" type="curve" smooth="yes"/>
      <point x="100" y="495"/>
      <point x="178" y="314"/>
      <point x="311" y="181" type="curve" smooth="yes"/>
      <point x="444" y="48"/>
      <point x="626" y="-30"/>
    </contour>
    <contour>
      <point x="838" y="56" type="curve" smooth="yes"/>
      <point x="667" y="56"/>
      <point x="510" y="120"/>
      <point x="390" y="233" type="curve" smooth="yes"/>
      <point x="270" y="346"/>
      <point x="194" y="505"/>
      <point x="194" y="700" type="curve" smooth="yes"/>
      <point x="194" y="897"/>
      <point x="269" y="1055"/>
      <point x="389" y="1168" type="curve" smooth="yes"/>
      <point x="509" y="1281"/>
      <point x="669" y="1344"/>
      <point x="838" y="1344" type="curve" smooth="yes"/>
      <point x="1010" y="1344"/>
      <point x="1167" y="1281"/>
      <point x="1287" y="1168" type="curve" smooth="yes"/>
      <point x="1407" y="1055"/>
      <point x="1482" y="897"/>
      <point x="1482" y="700" type="curve" smooth="yes"/>
      <point x="1482" y="505"/>
      <point x="1408" y="346"/>
      <point x="1288" y="233" type="curve" smooth="yes"/>
      <point x="1168" y="120"/>
      <point x="1009" y="56"/>
    </contour>
    <contour>
      <point x="862" y="292" type="curve" smooth="yes"/>
      <point x="983" y="292"/>
      <point x="1078" y="322"/>
      <point x="1158" y="382" type="curve"/>
      <point x="1110" y="470" type="line"/>
      <point x="1038" y="413"/>
      <point x="958" y="392"/>
      <point x="878" y="392" type="curve" smooth="yes"/>
      <point x="778" y="392"/>
      <point x="696" y="422"/>
      <point x="640" y="475" type="curve" smooth="yes"/>
      <point x="584" y="527"/>
      <point x="552" y="603"/>
      <point x="552" y="700" type="curve" smooth="yes"/>
      <point x="552" y="796"/>
      <point x="583" y="871"/>
      <point x="639" y="926" type="curve" smooth="yes"/>
      <point x="695" y="981"/>
      <point x="774" y="1008"/>
      <point x="870" y="1008" type="curve" smooth="yes"/>
      <point x="954" y="1008"/>
      <point x="1022" y="988"/>
      <point x="1078" y="940" type="curve"/>
      <point x="1134" y="1026" type="line"/>
      <point x="1071" y="1078"/>
      <point x="983" y="1108"/>
      <point x="862" y="1108" type="curve" smooth="yes"/>
      <point x="741" y="1108"/>
      <point x="638" y="1065"/>
      <point x="562" y="993" type="curve" smooth="yes"/>
      <point x="486" y="921"/>
      <point x="444" y="821"/>
      <point x="444" y="700" type="curve" smooth="yes"/>
      <point x="444" y="576"/>
      <point x="487" y="477"/>
      <point x="560" y="405" type="curve" smooth="yes"/>
      <point x="632" y="333"/>
      <point x="737" y="292"/>
    </contour>
  </outline>
</glyph>
<glyph name="ordfeminine" format="2">
  <advance width="770"/>
  <unicode hex="00AA"/>
  <outline>
    <contour>
      <point x="396" y="703" type="curve" smooth="yes"/>
      <point x="492" y="703"/>
      <point x="583" y="730"/>
      <point x="639" y="802" type="curve"/>
      <point x="618" y="722" type="line"/>
      <point x="714" y="722" type="line"/>
      <point x="820" y="1106" type="line" smooth="yes"/>
      <point x="844" y="1195"/>
      <point x="832" y="1262"/>
      <point x="789" y="1310" type="curve" smooth="yes"/>
      <point x="746" y="1357"/>
      <point x="677" y="1381"/>
      <point x="581" y="1381" type="curve" smooth="yes"/>
      <point x="501" y="1381"/>
      <point x="419" y="1357"/>
      <point x="351" y="1309" type="curve"/>
      <point x="363" y="1230" type="line"/>
      <point x="396" y="1250"/>
      <point x="429" y="1264"/>
      <point x="464" y="1275" type="curve" smooth="yes"/>
      <point x="499" y="1286"/>
      <point x="535" y="1290"/>
      <point x="564" y="1290" type="curve" smooth="yes"/>
      <point x="620" y="1290"/>
      <point x="664" y="1279"/>
      <point x="695" y="1251" type="curve" smooth="yes"/>
      <point x="726" y="1222"/>
      <point x="736" y="1178"/>
      <point x="720" y="1110" type="curve"/>
      <point x="678" y="954" type="line"/>
      <point x="665" y="911"/>
      <point x="635" y="872"/>
      <point x="592" y="841" type="curve" smooth="yes"/>
      <point x="548" y="810"/>
      <point x="493" y="790"/>
      <point x="432" y="790" type="curve" smooth="yes"/>
      <point x="359" y="790"/>
      <point x="303" y="826"/>
      <point x="303" y="887" type="curve" smooth="yes"/>
      <point x="303" y="960"/>
      <point x="361" y="998"/>
      <point x="445" y="1017" type="curve" smooth="yes"/>
      <point x="529" y="1036"/>
      <point x="630" y="1030"/>
      <point x="726" y="1018" type="curve"/>
      <point x="744" y="1090" type="line"/>
      <point x="611" y="1109"/>
      <point x="478" y="1107"/>
      <point x="375" y="1075" type="curve" smooth="yes"/>
      <point x="274" y="1043"/>
      <point x="203" y="980"/>
      <point x="203" y="873" type="curve" smooth="yes"/>
      <point x="203" y="822"/>
      <point x="223" y="780"/>
      <point x="258" y="749" type="curve" smooth="yes"/>
      <point x="293" y="718"/>
      <point x="339" y="703"/>
    </contour>
  </outline>
</glyph>
<glyph name="logicalnot" format="2">
  <advance width="1296"/>
  <unicode hex="00AC"/>
  <outline>
    <contour>
      <point x="1110" y="458" type="line"/>
      <point x="1221" y="870" type="line"/>
      <point x="285" y="870" type="line"/>
      <point x="260" y="774" type="line"/>
      <point x="1096" y="774" type="line"/>
      <point x="1010" y="458" type="line"/>
    </contour>
  </outline>
</glyph>
<glyph name="registered" format="2">
  <advance width="1228"/>
  <unicode hex="00AE"/>
  <outline>
    <contour>
      <point x="756" y="478" type="curve" smooth="yes"/>
      <point x="904" y="478"/>
      <point x="1034" y="533"/>
      <point x="1127" y="625" type="curve" smooth="yes"/>
      <point x="1220" y="717"/>
      <point x="1277" y="840"/>
      <point x="1277" y="985" type="curve" smooth="yes"/>
      <point x="1277" y="1129"/>
      <point x="1221" y="1257"/>
      <point x="1125" y="1350" type="curve" smooth="yes"/>
      <point x="1029" y="1443"/>
      <point x="901" y="1500"/>
      <point x="749" y="1500" type="curve" smooth="yes"/>
      <point x="600" y="1500"/>
      <point x="473" y="1446"/>
      <point x="378" y="1355" type="curve" smooth="yes"/>
      <point x="283" y="1264"/>
      <point x="229" y="1136"/>
      <point x="229" y="992" type="curve" smooth="yes"/>
      <point x="229" y="844"/>
      <point x="284" y="718"/>
      <point x="380" y="626" type="curve" smooth="yes"/>
      <point x="476" y="534"/>
      <point x="607" y="478"/>
    </contour>
    <contour>
      <point x="756" y="544" type="curve" smooth="yes"/>
      <point x="636" y="544"/>
      <point x="524" y="588"/>
      <point x="440" y="667" type="curve" smooth="yes"/>
      <point x="356" y="746"/>
      <point x="303" y="855"/>
      <point x="303" y="992" type="curve" smooth="yes"/>
      <point x="303" y="1124"/>
      <point x="357" y="1235"/>
      <point x="438" y="1312" type="curve" smooth="yes"/>
      <point x="519" y="1389"/>
      <point x="632" y="1434"/>
      <point x="749" y="1434" type="curve" smooth="yes"/>
      <point x="869" y="1434"/>
      <point x="981" y="1392"/>
      <point x="1065" y="1312" type="curve" smooth="yes"/>
      <point x="1149" y="1232"/>
      <point x="1203" y="1122"/>
      <point x="1203" y="985" type="curve" smooth="yes"/>
      <point x="1203" y="852"/>
      <point x="1151" y="743"/>
      <point x="1067" y="666" type="curve" smooth="yes"/>
      <point x="983" y="589"/>
      <point x="873" y="544"/>
    </contour>
    <contour>
      <point x="653" y="714" type="line"/>
      <point x="651" y="938" type="line"/>
      <point x="737" y="938" type="line"/>
      <point x="904" y="714" type="line"/>
      <point x="1006" y="714" type="line"/>
      <point x="825" y="950" type="line"/>
      <point x="917" y="965"/>
      <point x="973" y="1020"/>
      <point x="973" y="1100" type="curve" smooth="yes"/>
      <point x="973" y="1149"/>
      <point x="955" y="1190"/>
      <point x="923" y="1219" type="curve"/>
      <point x="890" y="1247"/>
      <point x="841" y="1262"/>
      <point x="781" y="1262" type="curve" smooth="yes"/>
      <point x="567" y="1262" type="line"/>
      <point x="571" y="714" type="line"/>
    </contour>
    <contour>
      <point x="651" y="1194" type="line"/>
      <point x="777" y="1194" type="line" smooth="yes"/>
      <point x="853" y="1194"/>
      <point x="893" y="1158"/>
      <point x="893" y="1098" type="curve" smooth="yes"/>
      <point x="893" y="1038"/>
      <point x="849" y="1006"/>
      <point x="769" y="1006" type="curve" smooth="yes"/>
      <point x="651" y="1006" type="line"/>
    </contour>
  </outline>
</glyph>
<glyph name="degree" format="2">
  <advance width="926"/>
  <unicode hex="00B0"/>
  <outline>
    <contour>
      <point x="574" y="710" type="qcurve" smooth="yes"/>
      <point x="652" y="710"/>
      <point x="802" y="772"/>
      <point x="918" y="881"/>
      <point x="990" y="1026"/>
      <point x="990" y="1108" type="qcurve" smooth="yes"/>
      <point x="990" y="1173"/>
      <point x="943" y="1287"/>
      <point x="860" y="1371"/>
      <point x="742" y="1420"/>
      <point x="670" y="1420" type="qcurve" smooth="yes"/>
      <point x="590" y="1420"/>
      <point x="441" y="1358"/>
      <point x="323" y="1250"/>
      <point x="253" y="1106"/>
      <point x="253" y="1024" type="qcurve" smooth="yes"/>
      <point x="253" y="958"/>
      <point x="299" y="844"/>
      <point x="385" y="759"/>
      <point x="502" y="710"/>
    </contour>
    <contour>
      <point x="591" y="806" type="qcurve" smooth="yes"/>
      <point x="536" y="806"/>
      <point x="447" y="839"/>
      <point x="386" y="895"/>
      <point x="352" y="978"/>
      <point x="352" y="1027" type="qcurve" smooth="yes"/>
      <point x="352" y="1090"/>
      <point x="400" y="1200"/>
      <point x="480" y="1279"/>
      <point x="591" y="1324"/>
      <point x="652" y="1324" type="qcurve" smooth="yes"/>
      <point x="709" y="1324"/>
      <point x="795" y="1294"/>
      <point x="857" y="1239"/>
      <point x="889" y="1161"/>
      <point x="889" y="1113" type="qcurve" smooth="yes"/>
      <point x="889" y="1051"/>
      <point x="846" y="940"/>
      <point x="768" y="856"/>
      <point x="658" y="806"/>
    </contour>
  </outline>
</glyph>
<glyph name="twosuperior" format="2">
  <advance width="845"/>
  <unicode hex="00B2"/>
  <outline>
    <contour>
      <point x="349" y="1411" type="curve"/>
      <point x="436" y="1359" type="line"/>
      <point x="468" y="1420"/>
      <point x="507" y="1470"/>
      <point x="550" y="1504" type="curve" smooth="yes"/>
      <point x="593" y="1538"/>
      <point x="639" y="1556"/>
      <point x="683" y="1556" type="curve" smooth="yes"/>
      <point x="727" y="1556"/>
      <point x="773" y="1546"/>
      <point x="807" y="1523" type="curve" smooth="yes"/>
      <point x="841" y="1499"/>
      <point x="864" y="1465"/>
      <point x="864" y="1414" type="curve" smooth="yes"/>
      <point x="864" y="1330"/>
      <point x="811" y="1254"/>
      <point x="743" y="1190" type="curve" smooth="yes"/>
      <point x="675" y="1126"/>
      <point x="592" y="1072"/>
      <point x="532" y="1029" type="curve" smooth="yes"/>
      <point x="182" y="781" type="line"/>
      <point x="161" y="703" type="line"/>
      <point x="797" y="703" type="line"/>
      <point x="821" y="791" type="line"/>
      <point x="321" y="791" type="line"/>
      <point x="559" y="955" type="line" smooth="yes"/>
      <point x="638" y="1010"/>
      <point x="738" y="1072"/>
      <point x="820" y="1148" type="curve" smooth="yes"/>
      <point x="902" y="1224"/>
      <point x="963" y="1314"/>
      <point x="963" y="1422" type="curve" smooth="yes"/>
      <point x="963" y="1498"/>
      <point x="930" y="1553"/>
      <point x="879" y="1589" type="curve" smooth="yes"/>
      <point x="827" y="1625"/>
      <point x="760" y="1643"/>
      <point x="692" y="1643" type="curve" smooth="yes"/>
      <point x="623" y="1643"/>
      <point x="557" y="1622"/>
      <point x="498" y="1582" type="curve" smooth="yes"/>
      <point x="438" y="1542"/>
      <point x="388" y="1484"/>
    </contour>
  </outline>
</glyph>
<glyph name="threesuperior" format="2">
  <advance width="816"/>
  <unicode hex="00B3"/>
  <outline>
    <contour>
      <point x="478" y="702" type="curve" smooth="yes"/>
      <point x="679" y="702"/>
      <point x="845" y="836"/>
      <point x="845" y="1023" type="curve" smooth="yes"/>
      <point x="845" y="1166"/>
      <point x="717" y="1241"/>
      <point x="560" y="1254" type="curve"/>
      <point x="950" y="1548" type="line"/>
      <point x="970" y="1632" type="line"/>
      <point x="394" y="1632" type="line"/>
      <point x="369" y="1540" type="line"/>
      <point x="805" y="1540" type="line"/>
      <point x="408" y="1237" type="line"/>
      <point x="419" y="1176" type="line"/>
      <point x="439" y="1179"/>
      <point x="467" y="1180"/>
      <point x="491" y="1180" type="curve" smooth="yes"/>
      <point x="643" y="1180"/>
      <point x="736" y="1118"/>
      <point x="736" y="1017" type="curve" smooth="yes"/>
      <point x="736" y="884"/>
      <point x="629" y="798"/>
      <point x="485" y="798" type="curve" smooth="yes"/>
      <point x="384" y="798"/>
      <point x="288" y="838"/>
      <point x="233" y="891" type="curve"/>
      <point x="175" y="808" type="line"/>
      <point x="232" y="748"/>
      <point x="363" y="702"/>
    </contour>
  </outline>
</glyph>
<glyph name="paragraph" format="2">
  <advance width="1196"/>
  <unicode hex="00B6"/>
  <outline>
    <contour>
      <point x="355" y="-420" type="line"/>
      <point x="818" y="1300" type="line"/>
      <point x="1024" y="1300" type="line"/>
      <point x="561" y="-420" type="line"/>
      <point x="665" y="-420" type="line"/>
      <point x="1128" y="1300" type="line"/>
      <point x="1350" y="1300" type="line"/>
      <point x="1379" y="1400" type="line"/>
      <point x="739" y="1400" type="line" smooth="yes"/>
      <point x="606" y="1400"/>
      <point x="481" y="1364"/>
      <point x="389" y="1292" type="curve" smooth="yes"/>
      <point x="297" y="1220"/>
      <point x="238" y="1123"/>
      <point x="238" y="998" type="curve" smooth="yes"/>
      <point x="238" y="910"/>
      <point x="272" y="832"/>
      <point x="335" y="777" type="curve" smooth="yes"/>
      <point x="398" y="722"/>
      <point x="484" y="691"/>
      <point x="597" y="692" type="curve"/>
      <point x="562" y="730" type="line"/>
      <point x="251" y="-420" type="line"/>
    </contour>
  </outline>
</glyph>
<glyph name="periodcentered" format="2">
  <advance width="500"/>
  <unicode hex="00B7"/>
  <outline>
    <contour>
      <point x="282" y="550" type="qcurve" smooth="yes"/>
      <point x="307" y="550"/>
      <point x="354" y="568"/>
      <point x="388" y="599"/>
      <point x="409" y="643"/>
      <point x="409" y="669" type="qcurve" smooth="yes"/>
      <point x="409" y="688"/>
      <point x="395" y="721"/>
      <point x="370" y="744"/>
      <point x="335" y="758"/>
      <point x="314" y="758" type="qcurve" smooth="yes"/>
      <point x="289" y="758"/>
      <point x="241" y="742"/>
      <point x="206" y="710"/>
      <point x="185" y="666"/>
      <point x="185" y="639" type="qcurve"/>
      <point x="184" y="620"/>
      <point x="199" y="588"/>
      <point x="226" y="565"/>
      <point x="261" y="550"/>
    </contour>
  </outline>
</glyph>
<glyph name="onesuperior" format="2">
  <advance width="636"/>
  <unicode hex="00B9"/>
  <outline>
    <contour>
      <point x="522" y="722" type="line"/>
      <point x="768" y="1632" type="line"/>
      <point x="701" y="1632" type="line"/>
      <point x="326" y="1509" type="line"/>
      <point x="352" y="1432" type="line"/>
      <point x="639" y="1521" type="line"/>
      <point x="422" y="722" type="line"/>
    </contour>
  </outline>
</glyph>
<glyph name="ordmasculine" format="2">
  <advance width="834"/>
  <unicode hex="00BA"/>
  <outline>
    <contour>
      <point x="526" y="702" type="curve" smooth="yes"/>
      <point x="630" y="702"/>
      <point x="728" y="746"/>
      <point x="800" y="815" type="curve" smooth="yes"/>
      <point x="872" y="884"/>
      <point x="919" y="980"/>
      <point x="919" y="1084" type="curve" smooth="yes"/>
      <point x="919" y="1164"/>
      <point x="889" y="1237"/>
      <point x="835" y="1290" type="curve" smooth="yes"/>
      <point x="781" y="1342"/>
      <point x="703" y="1374"/>
      <point x="610" y="1374" type="curve" smooth="yes"/>
      <point x="506" y="1374"/>
      <point x="407" y="1331"/>
      <point x="335" y="1261" type="curve" smooth="yes"/>
      <point x="263" y="1191"/>
      <point x="216" y="1098"/>
      <point x="216" y="995" type="curve" smooth="yes"/>
      <point x="216" y="914"/>
      <point x="245" y="840"/>
      <point x="300" y="788" type="curve" smooth="yes"/>
      <point x="355" y="735"/>
      <point x="431" y="702"/>
    </contour>
    <contour>
      <point x="539" y="796" type="curve" smooth="yes"/>
      <point x="474" y="796"/>
      <point x="417" y="816"/>
      <point x="381" y="850" type="curve" smooth="yes"/>
      <point x="344" y="884"/>
      <point x="322" y="934"/>
      <point x="322" y="995" type="curve" smooth="yes"/>
      <point x="322" y="1070"/>
      <point x="349" y="1141"/>
      <point x="396" y="1194" type="curve" smooth="yes"/>
      <point x="443" y="1246"/>
      <point x="513" y="1280"/>
      <point x="597" y="1280" type="curve" smooth="yes"/>
      <point x="662" y="1280"/>
      <point x="717" y="1262"/>
      <point x="754" y="1228" type="curve" smooth="yes"/>
      <point x="791" y="1194"/>
      <point x="814" y="1142"/>
      <point x="814" y="1081" type="curve" smooth="yes"/>
      <point x="814" y="1006"/>
      <point x="786" y="935"/>
      <point x="738" y="883" type="curve" smooth="yes"/>
      <point x="689" y="831"/>
      <point x="622" y="796"/>
    </contour>
  </outline>
</glyph>
<glyph name="onequarter" format="2">
  <advance width="1794"/>
  <unicode hex="00BC"/>
  <outline>
    <contour>
      <point x="1493" y="1380" type="line"/>
      <point x="1436" y="1430" type="line"/>
      <point x="269" y="21" type="line"/>
      <point x="332" y="-30" type="line"/>
    </contour>
    <contour>
      <point x="451" y="490" type="line"/>
      <point x="696" y="1400" type="line"/>
      <point x="631" y="1400" type="line"/>
      <point x="256" y="1278" type="line"/>
      <point x="282" y="1201" type="line"/>
      <point x="568" y="1289" type="line"/>
      <point x="351" y="490" type="line"/>
    </contour>
    <contour>
      <point x="1451" y="0" type="line"/>
      <point x="1504" y="196" type="line"/>
      <point x="1658" y="196" type="line"/>
      <point x="1683" y="288" type="line"/>
      <point x="1527" y="288" type="line"/>
      <point x="1584" y="504" type="line"/>
      <point x="1489" y="504" type="line"/>
      <point x="1431" y="288" type="line"/>
      <point x="1070" y="288" type="line"/>
      <point x="1594" y="910" type="line"/>
      <point x="1477" y="910" type="line"/>
      <point x="948" y="281" type="line"/>
      <point x="928" y="196" type="line"/>
      <point x="1408" y="196" type="line"/>
      <point x="1355" y="0" type="line"/>
    </contour>
  </outline>
</glyph>
<glyph name="onehalf" format="2">
  <advance width="1834"/>
  <unicode hex="00BD"/>
  <outline>
    <component base="twosuperior" xOffset="821" yOffset="-722"/>
    <contour>
      <point x="1493" y="1380" type="line"/>
      <point x="1434" y="1430" type="line"/>
      <point x="267" y="21" type="line"/>
      <point x="330" y="-30" type="line"/>
    </contour>
    <contour>
      <point x="451" y="490" type="line"/>
      <point x="696" y="1400" type="line"/>
      <point x="629" y="1400" type="line"/>
      <point x="254" y="1278" type="line"/>
      <point x="280" y="1201" type="line"/>
      <point x="568" y="1289" type="line"/>
      <point x="349" y="490" type="line"/>
    </contour>
  </outline>
</glyph>
<glyph name="questiondown" format="2">
  <advance width="970"/>
  <unicode hex="00BF"/>
  <outline>
    <contour>
      <point x="630" y="1030" type="curve" smooth="yes"/>
      <point x="563" y="1030"/>
      <point x="502" y="981"/>
      <point x="502" y="911" type="curve" smooth="yes"/>
      <point x="502" y="858"/>
      <point x="540" y="822"/>
      <point x="597" y="822" type="curve" smooth="yes"/>
      <point x="664" y="822"/>
      <point x="727" y="869"/>
      <point x="727" y="939" type="curve" smooth="yes"/>
      <point x="727" y="991"/>
      <point x="687" y="1030"/>
    </contour>
    <contour>
      <point x="570" y="622" type="line"/>
      <point x="600" y="578"/>
      <point x="622" y="528"/>
      <point x="622" y="473" type="curve" smooth="yes"/>
      <point x="622" y="232"/>
      <point x="346" y="218"/>
      <point x="190" y="99" type="curve" smooth="yes"/>
      <point x="129" y="52"/>
      <point x="86" y="-11"/>
      <point x="86" y="-111" type="curve" smooth="yes"/>
      <point x="86" y="-277"/>
      <point x="289" y="-318"/>
      <point x="419" y="-318" type="curve" smooth="yes"/>
      <point x="500" y="-318"/>
      <point x="582" y="-300"/>
      <point x="652" y="-258" type="curve"/>
      <point x="674" y="-361" type="line"/>
      <point x="591" y="-410"/>
      <point x="496" y="-430"/>
      <point x="401" y="-430" type="curve" smooth="yes"/>
      <point x="216" y="-430"/>
      <point x="-41" y="-352"/>
      <point x="-41" y="-127" type="curve" smooth="yes"/>
      <point x="-41" y="179"/>
      <point x="267" y="243"/>
      <point x="419" y="340" type="curve" smooth="yes"/>
      <point x="468" y="372"/>
      <point x="501" y="407"/>
      <point x="501" y="454" type="curve" smooth="yes"/>
      <point x="501" y="493"/>
      <point x="474" y="536"/>
      <point x="452" y="567" type="curve"/>
    </contour>
  </outline>
</glyph>
<glyph name="AE" format="2">
  <advance width="1742"/>
  <unicode hex="00C6"/>
  <anchor x="1372" y="1400" name="top"/>
  <outline>
    <contour>
      <point x="-2" y="0" type="line"/>
      <point x="280" y="380" type="line"/>
      <point x="743" y="380" type="line"/>
      <point x="641" y="0" type="line"/>
      <point x="1461" y="0" type="line"/>
      <point x="1489" y="108" type="line"/>
      <point x="785" y="108" type="line"/>
      <point x="942" y="688" type="line"/>
      <point x="1570" y="688" type="line"/>
      <point x="1598" y="796" type="line"/>
      <point x="970" y="796" type="line"/>
      <point x="1104" y="1292" type="line"/>
      <point x="1800" y="1292" type="line"/>
      <point x="1828" y="1400" type="line"/>
      <point x="946" y="1400" type="line"/>
      <point x="-138" y="0" type="line"/>
    </contour>
    <contour>
      <point x="991" y="1299" type="line"/>
      <point x="770" y="484" type="line"/>
      <point x="354" y="484" type="line"/>
    </contour>
  </outline>
</glyph>
<glyph name="Eth" format="2">
  <advance width="1452"/>
  <unicode hex="00D0"/>
  <anchor x="547" y="742" name="bar"/>
  <anchor x="964" y="1400" name="top"/>
  <outline>
    <component base="D"/>
    <contour>
      <point x="949" y="698" type="line"/>
      <point x="972" y="786" type="line"/>
      <point x="148" y="786" type="line"/>
      <point x="125" y="698" type="line"/>
    </contour>
  </outline>
</glyph>
<glyph name="multiply" format="2">
  <advance width="1296"/>
  <unicode hex="00D7"/>
  <outline>
    <contour>
      <point x="683" y="596" type="line"/>
      <point x="926" y="274" type="line"/>
      <point x="1008" y="339" type="line"/>
      <point x="769" y="659" type="line"/>
      <point x="1185" y="981" type="line"/>
      <point x="1133" y="1056" type="line"/>
      <point x="714" y="732" type="line"/>
      <point x="473" y="1054" type="line"/>
      <point x="391" y="985" type="line"/>
      <point x="631" y="667" type="line"/>
      <point x="212" y="343" type="line"/>
      <point x="266" y="272" type="line"/>
    </contour>
  </outline>
</glyph>
<glyph name="Oslash" format="2">
  <advance width="1676"/>
  <unicode hex="00D8"/>
  <outline>
    <contour>
      <point x="352" y="136" type="line"/>
      <point x="438" y="58"/>
      <point x="664" y="-30"/>
      <point x="804" y="-30" type="qcurve" smooth="yes"/>
      <point x="915" y="-30"/>
      <point x="1126" y="32"/>
      <point x="1311" y="143"/>
      <point x="1465" y="298"/>
      <point x="1576" y="482"/>
      <point x="1636" y="691"/>
      <point x="1636" y="801" type="qcurve" smooth="yes"/>
      <point x="1636" y="914"/>
      <point x="1573" y="1107"/>
      <point x="1512" y="1189" type="qcurve"/>
      <point x="1674" y="1332" type="line"/>
      <point x="1603" y="1410" type="line"/>
      <point x="1443" y="1264" type="line"/>
      <point x="1355" y="1341"/>
      <point x="1129" y="1430"/>
      <point x="989" y="1430" type="qcurve" smooth="yes"/>
      <point x="876" y="1430"/>
      <point x="665" y="1369"/>
      <point x="482" y="1259"/>
      <point x="328" y="1104"/>
      <point x="218" y="918"/>
      <point x="159" y="708"/>
      <point x="159" y="596" type="qcurve" smooth="yes"/>
      <point x="159" y="484"/>
      <point x="222" y="288"/>
      <point x="282" y="211" type="qcurve"/>
      <point x="121" y="69" type="line"/>
      <point x="192" y="-10" type="line"/>
    </contour>
    <contour>
      <point x="374" y="294" type="line"/>
      <point x="328" y="355"/>
      <point x="282" y="508"/>
      <point x="282" y="599" type="qcurve" smooth="yes"/>
      <point x="282" y="745"/>
      <point x="387" y="1006"/>
      <point x="574" y="1203"/>
      <point x="828" y="1318"/>
      <point x="977" y="1318" type="qcurve" smooth="yes"/>
      <point x="1088" y="1318"/>
      <point x="1283" y="1248"/>
      <point x="1352" y="1182" type="qcurve"/>
    </contour>
    <contour>
      <point x="819" y="82" type="qcurve" smooth="yes"/>
      <point x="706" y="82"/>
      <point x="512" y="152"/>
      <point x="443" y="218" type="qcurve"/>
      <point x="1422" y="1107" type="line"/>
      <point x="1468" y="1046"/>
      <point x="1513" y="893"/>
      <point x="1513" y="802" type="qcurve" smooth="yes"/>
      <point x="1513" y="656"/>
      <point x="1408" y="395"/>
      <point x="1221" y="198"/>
      <point x="967" y="82"/>
    </contour>
  </outline>
</glyph>
<glyph name="Thorn" format="2">
  <advance width="1241"/>
  <unicode hex="00DE"/>
  <outline>
    <contour>
      <point x="189" y="0" type="line"/>
      <point x="276" y="322" type="line"/>
      <point x="708" y="322" type="line" smooth="yes"/>
      <point x="1003" y="322"/>
      <point x="1223" y="490"/>
      <point x="1223" y="774" type="curve" smooth="yes"/>
      <point x="1223" y="986"/>
      <point x="1055" y="1118"/>
      <point x="768" y="1118" type="curve" smooth="yes"/>
      <point x="488" y="1118" type="line"/>
      <point x="564" y="1400" type="line"/>
      <point x="448" y="1400" type="line"/>
      <point x="73" y="0" type="line"/>
    </contour>
    <contour>
      <point x="460" y="1010" type="line"/>
      <point x="767" y="1010" type="line" smooth="yes"/>
      <point x="991" y="1010"/>
      <point x="1105" y="912"/>
      <point x="1105" y="757" type="curve" smooth="yes"/>
      <point x="1105" y="561"/>
      <point x="954" y="430"/>
      <point x="737" y="430" type="curve" smooth="yes"/>
      <point x="303" y="430" type="line"/>
    </contour>
  </outline>
</glyph>
<glyph name="germandbls" format="2">
  <advance width="1199"/>
  <unicode hex="00DF"/>
  <outline>
    <contour>
      <point x="642" y="-30" type="curve" smooth="yes"/>
      <point x="889" y="-30"/>
      <point x="1059" y="99"/>
      <point x="1059" y="303" type="curve" smooth="yes"/>
      <point x="1059" y="427"/>
      <point x="980" y="499"/>
      <point x="893" y="562" type="curve" smooth="yes"/>
      <point x="833" y="606"/>
      <point x="765" y="651"/>
      <point x="765" y="725" type="curve" smooth="yes"/>
      <point x="765" y="798"/>
      <point x="838" y="846"/>
      <point x="908" y="903" type="curve" smooth="yes"/>
      <point x="1006" y="982"/>
      <point x="1121" y="1044"/>
      <point x="1121" y="1201" type="curve" smooth="yes"/>
      <point x="1121" y="1359"/>
      <point x="982" y="1470"/>
      <point x="755" y="1470" type="curve" smooth="yes"/>
      <point x="531" y="1470"/>
      <point x="398" y="1323"/>
      <point x="337" y="1092" type="curve" smooth="yes"/>
      <point x="41" y="0" type="line"/>
      <point x="153" y="0" type="line"/>
      <point x="439" y="1060" type="line" smooth="yes"/>
      <point x="490" y="1255"/>
      <point x="569" y="1362"/>
      <point x="739" y="1362" type="curve" smooth="yes"/>
      <point x="895" y="1362"/>
      <point x="999" y="1300"/>
      <point x="999" y="1192" type="curve" smooth="yes"/>
      <point x="999" y="1085"/>
      <point x="916" y="1040"/>
      <point x="824" y="964" type="curve" smooth="yes"/>
      <point x="751" y="904"/>
      <point x="638" y="835"/>
      <point x="638" y="711" type="curve" smooth="yes"/>
      <point x="638" y="602"/>
      <point x="731" y="528"/>
      <point x="804" y="472" type="curve" smooth="yes"/>
      <point x="873" y="419"/>
      <point x="935" y="375"/>
      <point x="935" y="280" type="curve" smooth="yes"/>
      <point x="935" y="147"/>
      <point x="826" y="74"/>
      <point x="670" y="74" type="curve" smooth="yes"/>
      <point x="604" y="74"/>
      <point x="525" y="87"/>
      <point x="454" y="131" type="curve"/>
      <point x="383" y="41" type="line"/>
      <point x="470" y="-19"/>
      <point x="582" y="-30"/>
    </contour>
  </outline>
</glyph>
<glyph name="ae" format="2">
  <advance width="1768"/>
  <unicode hex="00E6"/>
  <outline>
    <contour>
      <point x="347" y="-30" type="curve" smooth="yes"/>
      <point x="468" y="-30"/>
      <point x="585" y="14"/>
      <point x="681" y="90" type="curve" smooth="yes"/>
      <point x="777" y="166"/>
      <point x="847" y="272"/>
      <point x="872" y="397" type="curve"/>
      <point x="788" y="262" type="line"/>
      <point x="816" y="170"/>
      <point x="871" y="99"/>
      <point x="946" y="48" type="curve" smooth="yes"/>
      <point x="1021" y="-3"/>
      <point x="1112" y="-30"/>
      <point x="1216" y="-30" type="curve" smooth="yes"/>
      <point x="1272" y="-30"/>
      <point x="1325" y="-22"/>
      <point x="1378" y="-6" type="curve" smooth="yes"/>
      <point x="1431" y="10"/>
      <point x="1481" y="33"/>
      <point x="1526" y="61" type="curve"/>
      <point x="1484" y="162" type="line"/>
      <point x="1408" y="106"/>
      <point x="1322" y="78"/>
      <point x="1234" y="78" type="curve" smooth="yes"/>
      <point x="1114" y="78"/>
      <point x="1020" y="118"/>
      <point x="960" y="186" type="curve" smooth="yes"/>
      <point x="900" y="254"/>
      <point x="876" y="351"/>
      <point x="897" y="468" type="curve"/>
      <point x="1681" y="468" type="line"/>
      <point x="1718" y="624"/>
      <point x="1700" y="753"/>
      <point x="1635" y="845" type="curve" smooth="yes"/>
      <point x="1570" y="937"/>
      <point x="1461" y="990"/>
      <point x="1320" y="990" type="curve" smooth="yes"/>
      <point x="1147" y="990"/>
      <point x="1015" y="920"/>
      <point x="898" y="771" type="curve"/>
      <point x="952" y="769" type="line"/>
      <point x="931" y="921"/>
      <point x="807" y="1000"/>
      <point x="602" y="1000" type="curve" smooth="yes"/>
      <point x="481" y="1000"/>
      <point x="362" y="959"/>
      <point x="274" y="895" type="curve"/>
      <point x="285" y="792" type="line"/>
      <point x="330" y="823"/>
      <point x="381" y="846"/>
      <point x="434" y="865" type="curve" smooth="yes"/>
      <point x="487" y="884"/>
      <point x="541" y="893"/>
      <point x="588" y="893" type="curve" smooth="yes"/>
      <point x="785" y="893"/>
      <point x="869" y="782"/>
      <point x="821" y="593" type="curve"/>
      <point x="758" y="366" type="line" smooth="yes"/>
      <point x="734" y="282"/>
      <point x="682" y="211"/>
      <point x="614" y="160" type="curve" smooth="yes"/>
      <point x="545" y="108"/>
      <point x="457" y="79"/>
      <point x="364" y="79" type="curve" smooth="yes"/>
      <point x="303" y="79"/>
      <point x="250" y="94"/>
      <point x="215" y="122" type="curve" smooth="yes"/>
      <point x="179" y="150"/>
      <point x="157" y="192"/>
      <point x="157" y="240" type="curve" smooth="yes"/>
      <point x="157" y="341"/>
      <point x="221" y="409"/>
      <point x="334" y="445" type="curve" smooth="yes"/>
      <point x="447" y="481"/>
      <point x="609" y="486"/>
      <point x="808" y="461" type="curve"/>
      <point x="836" y="554" type="line"/>
      <point x="597" y="589"/>
      <point x="401" y="576"/>
      <point x="262" y="520" type="curve" smooth="yes"/>
      <point x="123" y="464"/>
      <point x="43" y="362"/>
      <point x="43" y="218" type="curve" smooth="yes"/>
      <point x="43" y="142"/>
      <point x="74" y="82"/>
      <point x="127" y="39" type="curve" smooth="yes"/>
      <point x="180" y="-5"/>
      <point x="255" y="-30"/>
    </contour>
    <contour>
      <point x="924" y="572" type="line"/>
      <point x="947" y="668"/>
      <point x="990" y="741"/>
      <point x="1054" y="797" type="curve" smooth="yes"/>
      <point x="1118" y="853"/>
      <point x="1200" y="882"/>
      <point x="1297" y="882" type="curve" smooth="yes"/>
      <point x="1401" y="882"/>
      <point x="1475" y="855"/>
      <point x="1522" y="802" type="curve" smooth="yes"/>
      <point x="1569" y="749"/>
      <point x="1590" y="672"/>
      <point x="1582" y="572" type="curve"/>
    </contour>
  </outline>
</glyph>
<glyph name="eth" format="2">
  <advance width="1147"/>
  <unicode hex="00F0"/>
  <outline>
    <contour>
      <point x="494" y="-30" type="curve" smooth="yes"/>
      <point x="836" y="-30"/>
      <point x="1079" y="259"/>
      <point x="1079" y="637" type="curve" smooth="yes"/>
      <point x="1079" y="924"/>
      <point x="935" y="1205"/>
      <point x="648" y="1470" type="curve"/>
      <point x="537" y="1407" type="line"/>
      <point x="745" y="1234"/>
      <point x="873" y="1039"/>
      <point x="936" y="834" type="curve"/>
      <point x="954" y="829" type="line"/>
      <point x="877" y="915"/>
      <point x="766" y="970"/>
      <point x="631" y="970" type="curve" smooth="yes"/>
      <point x="332" y="970"/>
      <point x="71" y="702"/>
      <point x="71" y="394" type="curve" smooth="yes"/>
      <point x="71" y="160"/>
      <point x="234" y="-30"/>
    </contour>
    <contour>
      <point x="517" y="78" type="curve" smooth="yes"/>
      <point x="318" y="78"/>
      <point x="189" y="197"/>
      <point x="189" y="384" type="curve" smooth="yes"/>
      <point x="189" y="629"/>
      <point x="353" y="862"/>
      <point x="613" y="862" type="curve" smooth="yes"/>
      <point x="818" y="862"/>
      <point x="946" y="738"/>
      <point x="946" y="543" type="curve" smooth="yes"/>
      <point x="946" y="296"/>
      <point x="780" y="78"/>
    </contour>
    <contour>
      <point x="742" y="1232" type="line"/>
      <point x="745" y="1234" type="line"/>
      <point x="1026" y="1351" type="line"/>
      <point x="1052" y="1454" type="line"/>
      <point x="760" y="1332" type="line"/>
      <point x="760" y="1330" type="line"/>
      <point x="459" y="1209" type="line"/>
      <point x="434" y="1109" type="line"/>
    </contour>
  </outline>
</glyph>
<glyph name="divide" format="2">
  <advance width="1296"/>
  <unicode hex="00F7"/>
  <outline>
    <contour>
      <point x="1151" y="616" type="line"/>
      <point x="1176" y="712" type="line"/>
      <point x="242" y="712" type="line"/>
      <point x="217" y="616" type="line"/>
    </contour>
    <contour>
      <point x="583" y="200" type="curve" smooth="yes"/>
      <point x="614" y="200"/>
      <point x="643" y="213"/>
      <point x="666" y="232" type="curve" smooth="yes"/>
      <point x="689" y="251"/>
      <point x="704" y="280"/>
      <point x="704" y="309" type="curve" smooth="yes"/>
      <point x="704" y="334"/>
      <point x="693" y="354"/>
      <point x="677" y="370" type="curve"/>
      <point x="661" y="385"/>
      <point x="639" y="392"/>
      <point x="615" y="392" type="curve" smooth="yes"/>
      <point x="583" y="392"/>
      <point x="554" y="381"/>
      <point x="533" y="361" type="curve" smooth="yes"/>
      <point x="512" y="341"/>
      <point x="496" y="314"/>
      <point x="496" y="283" type="curve" smooth="yes"/>
      <point x="496" y="259"/>
      <point x="506" y="240"/>
      <point x="522" y="225" type="curve"/>
      <point x="537" y="209"/>
      <point x="558" y="200"/>
    </contour>
    <contour>
      <point x="782" y="932" type="curve" smooth="yes"/>
      <point x="813" y="932"/>
      <point x="844" y="945"/>
      <point x="865" y="965" type="curve" smooth="yes"/>
      <point x="886" y="985"/>
      <point x="901" y="1012"/>
      <point x="901" y="1041" type="curve" smooth="yes"/>
      <point x="901" y="1066"/>
      <point x="892" y="1086"/>
      <point x="876" y="1102" type="curve"/>
      <point x="860" y="1117"/>
      <point x="839" y="1124"/>
      <point x="812" y="1124" type="curve" smooth="yes"/>
      <point x="781" y="1124"/>
      <point x="753" y="1112"/>
      <point x="730" y="1093" type="curve" smooth="yes"/>
      <point x="707" y="1073"/>
      <point x="694" y="1046"/>
      <point x="694" y="1014" type="curve" smooth="yes"/>
      <point x="694" y="991"/>
      <point x="703" y="970"/>
      <point x="719" y="955" type="curve"/>
      <point x="734" y="940"/>
      <point x="755" y="932"/>
    </contour>
  </outline>
</glyph>
<glyph name="oslash" format="2">
  <advance width="1172"/>
  <unicode hex="00F8"/>
  <outline>
    <contour>
      <point x="214" y="80" type="line"/>
      <point x="273" y="28"/>
      <point x="427" y="-30"/>
      <point x="520" y="-30" type="qcurve" smooth="yes"/>
      <point x="597" y="-30"/>
      <point x="741" y="14"/>
      <point x="870" y="90"/>
      <point x="978" y="198"/>
      <point x="1056" y="325"/>
      <point x="1099" y="471"/>
      <point x="1099" y="548" type="qcurve" smooth="yes"/>
      <point x="1099" y="626"/>
      <point x="1059" y="760"/>
      <point x="1018" y="817" type="qcurve"/>
      <point x="1123" y="918" type="line"/>
      <point x="1065" y="980" type="line"/>
      <point x="959" y="882" type="line"/>
      <point x="900" y="934"/>
      <point x="746" y="990"/>
      <point x="651" y="990" type="qcurve" smooth="yes"/>
      <point x="538" y="990"/>
      <point x="327" y="897"/>
      <point x="167" y="738"/>
      <point x="72" y="529"/>
      <point x="72" y="412" type="qcurve" smooth="yes"/>
      <point x="72" y="335"/>
      <point x="114" y="200"/>
      <point x="155" y="145" type="qcurve"/>
      <point x="48" y="44" type="line"/>
      <point x="108" y="-20" type="line"/>
    </contour>
    <contour>
      <point x="240" y="223" type="line"/>
      <point x="217" y="260"/>
      <point x="192" y="351"/>
      <point x="192" y="405" type="qcurve" smooth="yes"/>
      <point x="192" y="500"/>
      <point x="256" y="673"/>
      <point x="371" y="804"/>
      <point x="534" y="882"/>
      <point x="635" y="882" type="qcurve" smooth="yes"/>
      <point x="710" y="882"/>
      <point x="827" y="842"/>
      <point x="872" y="805" type="qcurve"/>
    </contour>
    <contour>
      <point x="538" y="78" type="qcurve" smooth="yes"/>
      <point x="463" y="78"/>
      <point x="345" y="119"/>
      <point x="300" y="157" type="qcurve"/>
      <point x="931" y="737" type="line"/>
      <point x="956" y="702"/>
      <point x="980" y="610"/>
      <point x="980" y="556" type="qcurve" smooth="yes"/>
      <point x="980" y="462"/>
      <point x="917" y="288"/>
      <point x="802" y="157"/>
      <point x="638" y="78"/>
    </contour>
  </outline>
</glyph>
<glyph name="thorn" format="2">
  <advance width="1262"/>
  <unicode hex="00FE"/>
  <outline>
    <contour>
      <point x="40" y="-420" type="line"/>
      <point x="205" y="193" type="line"/>
      <point x="271" y="65"/>
      <point x="413" y="-30"/>
      <point x="626" y="-30" type="curve" smooth="yes"/>
      <point x="934" y="-30"/>
      <point x="1183" y="253"/>
      <point x="1183" y="561" type="curve" smooth="yes"/>
      <point x="1183" y="799"/>
      <point x="1022" y="990"/>
      <point x="750" y="990" type="curve" smooth="yes"/>
      <point x="585" y="990"/>
      <point x="469" y="920"/>
      <point x="374" y="825" type="curve"/>
      <point x="541" y="1440" type="line"/>
      <point x="429" y="1440" type="line"/>
      <point x="-72" y="-420" type="line"/>
    </contour>
    <contour>
      <point x="621" y="78" type="curve" smooth="yes"/>
      <point x="410" y="78"/>
      <point x="273" y="204"/>
      <point x="273" y="399" type="curve" smooth="yes"/>
      <point x="273" y="650"/>
      <point x="448" y="882"/>
      <point x="717" y="882" type="curve" smooth="yes"/>
      <point x="928" y="882"/>
      <point x="1063" y="756"/>
      <point x="1063" y="561" type="curve" smooth="yes"/>
      <point x="1063" y="312"/>
      <point x="890" y="78"/>
    </contour>
  </outline>
</glyph>
<glyph name="aogonek" format="2">
  <advance width="1049"/>
  <unicode hex="0105"/>
  <outline>
    <contour>
      <point x="339" y="-29" type="qcurve" smooth="yes"/>
      <point x="385" y="-29"/>
      <point x="481" y="-13"/>
      <point x="572" y="24"/>
      <point x="653" y="84"/>
      <point x="685" y="126" type="qcurve"/>
      <point x="652" y="0" type="line"/>
      <point x="765" y="0" type="line"/>
      <point x="931" y="597" type="line"/>
      <point x="957" y="697"/>
      <point x="931" y="848"/>
      <point x="841" y="950"/>
      <point x="698" y="1000"/>
      <point x="608" y="1000" type="qcurve" smooth="yes"/>
      <point x="515" y="1000"/>
      <point x="343" y="950"/>
      <point x="265" y="896" type="qcurve"/>
      <point x="279" y="792" type="line"/>
      <point x="315" y="817"/>
      <point x="393" y="853"/>
      <point x="473" y="880"/>
      <point x="548" y="893"/>
      <point x="581" y="893" type="qcurve" smooth="yes"/>
      <point x="640" y="893"/>
      <point x="745" y="860"/>
      <point x="813" y="790"/>
      <point x="835" y="677"/>
      <point x="815" y="594" type="qcurve"/>
      <point x="746" y="350" type="line" smooth="yes"/>
      <point x="732" y="298"/>
      <point x="661" y="200"/>
      <point x="559" y="123"/>
      <point x="429" y="78"/>
      <point x="357" y="78" type="qcurve" smooth="yes"/>
      <point x="313" y="78"/>
      <point x="236" y="102"/>
      <point x="180" y="146"/>
      <point x="149" y="210"/>
      <point x="149" y="250" type="qcurve" smooth="yes"/>
      <point x="149" y="315"/>
      <point x="212" y="399"/>
      <point x="317" y="451"/>
      <point x="455" y="474"/>
      <point x="604" y="478"/>
      <point x="757" y="468"/>
      <point x="826" y="459" type="qcurve"/>
      <point x="848" y="550" type="line"/>
      <point x="753" y="565"/>
      <point x="559" y="577"/>
      <point x="379" y="562"/>
      <point x="220" y="517"/>
      <point x="103" y="436"/>
      <point x="35" y="316"/>
      <point x="35" y="232" type="qcurve" smooth="yes"/>
      <point x="35" y="170"/>
      <point x="78" y="73"/>
      <point x="157" y="5"/>
      <point x="269" y="-29"/>
    </contour>
    <contour>
      <point x="505" y="-449" type="qcurve" smooth="yes"/>
      <point x="547" y="-449"/>
      <point x="624" y="-428"/>
      <point x="657" y="-408" type="qcurve"/>
      <point x="641" y="-313" type="line"/>
      <point x="620" y="-328"/>
      <point x="571" y="-343"/>
      <point x="540" y="-343" type="qcurve" smooth="yes"/>
      <point x="502" y="-343"/>
      <point x="457" y="-308"/>
      <point x="457" y="-259" type="qcurve" smooth="yes"/>
      <point x="457" y="-222"/>
      <point x="492" y="-153"/>
      <point x="567" y="-86"/>
      <point x="684" y="-25"/>
      <point x="764" y="0" type="qcurve"/>
      <point x="741" y="69" type="line"/>
      <point x="645" y="44"/>
      <point x="491" y="-34"/>
      <point x="385" y="-128"/>
      <point x="329" y="-232"/>
      <point x="329" y="-281" type="qcurve" smooth="yes"/>
      <point x="329" y="-323"/>
      <point x="355" y="-387"/>
      <point x="401" y="-428"/>
      <point x="465" y="-449"/>
    </contour>
  </outline>
</glyph>
<glyph name="dcroat" format="2">
  <advance width="1254"/>
  <unicode hex="0111"/>
  <outline>
    <contour>
      <point x="1408" y="1152" type="line"/>
      <point x="1435" y="1256" type="line"/>
      <point x="815" y="1256" type="line"/>
      <point x="788" y="1152" type="line"/>
    </contour>
    <contour>
      <point x="517" y="-30" type="curve" smooth="yes"/>
      <point x="612" y="-30"/>
      <point x="684" y="-7"/>
      <point x="748" y="26" type="curve" smooth="yes"/>
      <point x="811" y="59"/>
      <point x="864" y="109"/>
      <point x="913" y="162" type="curve"/>
      <point x="906" y="212" type="line"/>
      <point x="848" y="0" type="line"/>
      <point x="960" y="0" type="line"/>
      <point x="1346" y="1440" type="line"/>
      <point x="1234" y="1440" type="line"/>
      <point x="1047" y="742" type="line"/>
      <point x="1072" y="737" type="line"/>
      <point x="1040" y="810"/>
      <point x="988" y="874"/>
      <point x="916" y="919" type="curve" smooth="yes"/>
      <point x="843" y="964"/>
      <point x="747" y="990"/>
      <point x="634" y="990" type="curve" smooth="yes"/>
      <point x="481" y="990"/>
      <point x="342" y="921"/>
      <point x="240" y="812" type="curve" smooth="yes"/>
      <point x="138" y="703"/>
      <point x="75" y="553"/>
      <point x="75" y="396" type="curve" smooth="yes"/>
      <point x="75" y="272"/>
      <point x="119" y="164"/>
      <point x="195" y="89" type="curve" smooth="yes"/>
      <point x="271" y="13"/>
      <point x="384" y="-30"/>
    </contour>
    <contour>
      <point x="538" y="78" type="curve" smooth="yes"/>
      <point x="431" y="78"/>
      <point x="348" y="110"/>
      <point x="289" y="167" type="curve" smooth="yes"/>
      <point x="229" y="224"/>
      <point x="197" y="305"/>
      <point x="197" y="402" type="curve" smooth="yes"/>
      <point x="197" y="535"/>
      <point x="243" y="654"/>
      <point x="320" y="741" type="curve" smooth="yes"/>
      <point x="397" y="828"/>
      <point x="507" y="882"/>
      <point x="639" y="882" type="curve" smooth="yes"/>
      <point x="744" y="882"/>
      <point x="830" y="850"/>
      <point x="890" y="795" type="curve" smooth="yes"/>
      <point x="950" y="739"/>
      <point x="983" y="656"/>
      <point x="983" y="556" type="curve" smooth="yes"/>
      <point x="983" y="424"/>
      <point x="938" y="303"/>
      <point x="860" y="218" type="curve" smooth="yes"/>
      <point x="782" y="133"/>
      <point x="670" y="78"/>
    </contour>
  </outline>
</glyph>
<glyph name="eogonek" format="2">
  <advance width="1101"/>
  <unicode hex="0119"/>
  <anchor x="461" y="0" name="bottom"/>
  <anchor x="670" y="960" name="top"/>
  <outline>
    <component base="e"/>
    <contour>
      <point x="490" y="-450" type="curve" smooth="yes"/>
      <point x="546" y="-450"/>
      <point x="598" y="-436"/>
      <point x="643" y="-409" type="curve"/>
      <point x="626" y="-313" type="line"/>
      <point x="598" y="-334"/>
      <point x="566" y="-344"/>
      <point x="526" y="-344" type="curve" smooth="yes"/>
      <point x="476" y="-344"/>
      <point x="443" y="-325"/>
      <point x="443" y="-259" type="curve"/>
      <point x="441" y="-164"/>
      <point x="536" y="-70"/>
      <point x="750" y="0" type="curve"/>
      <point x="727" y="68" type="line"/>
      <point x="467" y="1"/>
      <point x="314" y="-149"/>
      <point x="315" y="-282" type="curve"/>
      <point x="315" y="-395"/>
      <point x="387" y="-450"/>
    </contour>
  </outline>
</glyph>
<glyph name="Hbar" format="2">
  <advance width="1476"/>
  <unicode hex="0126"/>
  <outline>
    <contour>
      <point x="1128" y="0" type="line"/>
      <point x="1503" y="1400" type="line"/>
      <point x="1387" y="1400" type="line"/>
      <point x="1012" y="0" type="line"/>
    </contour>
    <contour>
      <point x="208" y="0" type="line"/>
      <point x="583" y="1400" type="line"/>
      <point x="467" y="1400" type="line"/>
      <point x="92" y="0" type="line"/>
    </contour>
    <contour>
      <point x="1218" y="658" type="line"/>
      <point x="1245" y="766" type="line"/>
      <point x="387" y="766" type="line"/>
      <point x="360" y="658" type="line"/>
    </contour>
    <contour>
      <point x="1604" y="1030" type="line"/>
      <point x="1627" y="1118" type="line"/>
      <point x="191" y="1118" type="line"/>
      <point x="168" y="1030" type="line"/>
    </contour>
  </outline>
</glyph>
<glyph name="dotlessi" format="2">
  <advance width="452"/>
  <unicode hex="0131"/>
  <outline>
    <contour>
      <point x="154" y="0" type="line"/>
      <point x="411" y="960" type="line"/>
      <point x="299" y="960" type="line"/>
      <point x="42" y="0" type="line"/>
    </contour>
  </outline>
</glyph>
<glyph name="idotless" format="2">
  <advance width="452"/>
  <unicode hex="0131"/>
  <anchor x="97" y="0" name="bottom"/>
  <anchor x="153" y="0" name="ogonek"/>
  <anchor x="355" y="960" name="top"/>
  <outline>
    <contour>
      <point x="153" y="0" type="line"/>
      <point x="411" y="960" type="line"/>
      <point x="299" y="960" type="line"/>
      <point x="41" y="0" type="line"/>
    </contour>
  </outline>
</glyph>
<glyph name="kgreenlandic" format="2">
  <advance width="1026"/>
  <unicode hex="0138"/>
  <outline>
    <contour>
      <point x="151" y="0" type="line"/>
      <point x="248" y="356" type="line"/>
      <point x="484" y="542" type="line"/>
      <point x="705" y="0" type="line"/>
      <point x="837" y="0" type="line"/>
      <point x="583" y="609" type="line"/>
      <point x="1021" y="960" type="line"/>
      <point x="875" y="960" type="line"/>
      <point x="288" y="502" type="line"/>
      <point x="412" y="960" type="line"/>
      <point x="298" y="960" type="line"/>
      <point x="39" y="0" type="line"/>
    </contour>
  </outline>
</glyph>
<glyph name="Lslash" format="2">
  <advance width="1094"/>
  <unicode hex="0141"/>
  <outline>
    <contour>
      <point x="333" y="614" type="line"/>
      <point x="331" y="604" type="line"/>
      <point x="1049" y="904" type="line"/>
      <point x="1018" y="980" type="line"/>
      <point x="356" y="702" type="line"/>
      <point x="358" y="712" type="line"/>
      <point x="73" y="592" type="line"/>
      <point x="103" y="518" type="line"/>
    </contour>
    <contour>
      <point x="846" y="0" type="line"/>
      <point x="873" y="108" type="line"/>
      <point x="215" y="108" type="line"/>
      <point x="563" y="1400" type="line"/>
      <point x="447" y="1400" type="line"/>
      <point x="72" y="0" type="line"/>
    </contour>
  </outline>
</glyph>
<glyph name="lslash" format="2">
  <advance width="652"/>
  <unicode hex="0142"/>
  <anchor x="192" y="0" name="bottom"/>
  <anchor x="642" y="1440" name="caron"/>
  <anchor x="586" y="1440" name="top"/>
  <outline>
    <component base="l" xOffset="21"/>
    <contour>
      <point x="292" y="602" type="line"/>
      <point x="289" y="592" type="line"/>
      <point x="566" y="707" type="line"/>
      <point x="535" y="784" type="line"/>
      <point x="307" y="690" type="line"/>
      <point x="310" y="700" type="line"/>
      <point x="33" y="583" type="line"/>
      <point x="62" y="507" type="line"/>
    </contour>
  </outline>
</glyph>
<glyph name="Eng" format="2">
  <advance width="1452"/>
  <unicode hex="014A"/>
  <outline>
    <contour>
      <point x="1090" y="159" type="line"/>
      <point x="552" y="1400" type="line"/>
      <point x="448" y="1400" type="line"/>
      <point x="73" y="0" type="line"/>
      <point x="189" y="0" type="line"/>
      <point x="511" y="1201" type="line"/>
      <point x="1040" y="-36" type="line"/>
    </contour>
    <contour>
      <point x="800" y="-450" type="qcurve" smooth="yes"/>
      <point x="849" y="-450"/>
      <point x="933" y="-417"/>
      <point x="1003" y="-354"/>
      <point x="1054" y="-258"/>
      <point x="1071" y="-194" type="qcurve" smooth="yes"/>
      <point x="1500" y="1400" type="line"/>
      <point x="1384" y="1400" type="line"/>
      <point x="961" y="-174" type="line"/>
      <point x="937" y="-259"/>
      <point x="865" y="-342"/>
      <point x="799" y="-342" type="qcurve" smooth="yes"/>
      <point x="751" y="-342"/>
      <point x="699" y="-325"/>
      <point x="677" y="-311" type="qcurve"/>
      <point x="619" y="-402" type="line"/>
      <point x="634" y="-411"/>
      <point x="672" y="-427"/>
      <point x="719" y="-441"/>
      <point x="772" y="-450"/>
    </contour>
  </outline>
</glyph>
<glyph name="eng" format="2">
  <advance width="1146"/>
  <unicode hex="014B"/>
  <outline>
    <contour>
      <point x="529" y="-450" type="curve" smooth="yes"/>
      <point x="597" y="-450"/>
      <point x="653" y="-429"/>
      <point x="700" y="-386" type="curve" smooth="yes"/>
      <point x="747" y="-343"/>
      <point x="782" y="-279"/>
      <point x="806" y="-194" type="curve" smooth="yes"/>
      <point x="1031" y="646" type="line" smooth="yes"/>
      <point x="1058" y="742"/>
      <point x="1034" y="830"/>
      <point x="978" y="891" type="curve" smooth="yes"/>
      <point x="921" y="952"/>
      <point x="830" y="990"/>
      <point x="726" y="990" type="curve" smooth="yes"/>
      <point x="669" y="990"/>
      <point x="608" y="979"/>
      <point x="548" y="952" type="curve" smooth="yes"/>
      <point x="487" y="924"/>
      <point x="428" y="883"/>
      <point x="375" y="822" type="curve"/>
      <point x="411" y="960" type="line"/>
      <point x="299" y="960" type="line"/>
      <point x="40" y="0" type="line"/>
      <point x="152" y="0" type="line"/>
      <point x="306" y="570" type="line" smooth="yes"/>
      <point x="334" y="671"/>
      <point x="385" y="751"/>
      <point x="450" y="804" type="curve" smooth="yes"/>
      <point x="515" y="856"/>
      <point x="596" y="885"/>
      <point x="677" y="885" type="curve" smooth="yes"/>
      <point x="762" y="885"/>
      <point x="831" y="860"/>
      <point x="874" y="813" type="curve" smooth="yes"/>
      <point x="917" y="765"/>
      <point x="929" y="696"/>
      <point x="908" y="612" type="curve" smooth="yes"/>
      <point x="699" y="-174" type="line" smooth="yes"/>
      <point x="671" y="-287"/>
      <point x="625" y="-341"/>
      <point x="537" y="-341" type="curve" smooth="yes"/>
      <point x="485" y="-341"/>
      <point x="458" y="-333"/>
      <point x="418" y="-309" type="curve"/>
      <point x="356" y="-402" type="line"/>
      <point x="384" y="-418"/>
      <point x="413" y="-430"/>
      <point x="444" y="-438" type="curve"/>
      <point x="475" y="-445"/>
      <point x="501" y="-450"/>
    </contour>
  </outline>
</glyph>
<glyph name="OE" format="2">
  <advance width="2424"/>
  <unicode hex="0152"/>
  <outline>
    <contour>
      <point x="797" y="-30" type="curve" smooth="yes"/>
      <point x="1037" y="-30"/>
      <point x="1255" y="63"/>
      <point x="1408" y="240" type="curve"/>
      <point x="1398" y="264" type="line"/>
      <point x="1321" y="0" type="line"/>
      <point x="2152" y="0" type="line"/>
      <point x="2179" y="108" type="line"/>
      <point x="1465" y="108" type="line"/>
      <point x="1621" y="688" type="line"/>
      <point x="2249" y="688" type="line"/>
      <point x="2277" y="796" type="line"/>
      <point x="1649" y="796" type="line"/>
      <point x="1783" y="1292" type="line"/>
      <point x="2491" y="1292" type="line"/>
      <point x="2520" y="1400" type="line"/>
      <point x="1695" y="1400" type="line"/>
      <point x="1587" y="978" type="line"/>
      <point x="1610" y="991" type="line"/>
      <point x="1569" y="1138"/>
      <point x="1483" y="1248"/>
      <point x="1372" y="1321" type="curve" smooth="yes"/>
      <point x="1260" y="1394"/>
      <point x="1125" y="1430"/>
      <point x="988" y="1430" type="curve" smooth="yes"/>
      <point x="913" y="1430"/>
      <point x="840" y="1420"/>
      <point x="771" y="1400" type="curve" smooth="yes"/>
      <point x="632" y="1359"/>
      <point x="510" y="1283"/>
      <point x="408" y="1178" type="curve" smooth="yes"/>
      <point x="357" y="1125"/>
      <point x="313" y="1068"/>
      <point x="278" y="1006" type="curve" smooth="yes"/>
      <point x="206" y="881"/>
      <point x="164" y="738"/>
      <point x="164" y="587" type="curve" smooth="yes"/>
      <point x="164" y="410"/>
      <point x="227" y="258"/>
      <point x="338" y="147" type="curve" smooth="yes"/>
      <point x="449" y="36"/>
      <point x="608" y="-30"/>
    </contour>
    <contour>
      <point x="822" y="82" type="curve" smooth="yes"/>
      <point x="665" y="82"/>
      <point x="531" y="132"/>
      <point x="436" y="223" type="curve" smooth="yes"/>
      <point x="340" y="314"/>
      <point x="283" y="441"/>
      <point x="283" y="597" type="curve" smooth="yes"/>
      <point x="283" y="788"/>
      <point x="357" y="967"/>
      <point x="482" y="1100" type="curve" smooth="yes"/>
      <point x="606" y="1233"/>
      <point x="783" y="1318"/>
      <point x="984" y="1318" type="curve" smooth="yes"/>
      <point x="1144" y="1318"/>
      <point x="1280" y="1266"/>
      <point x="1373" y="1175" type="curve" smooth="yes"/>
      <point x="1465" y="1084"/>
      <point x="1519" y="954"/>
      <point x="1519" y="802" type="curve" smooth="yes"/>
      <point x="1519" y="603"/>
      <point x="1443" y="425"/>
      <point x="1319" y="295" type="curve" smooth="yes"/>
      <point x="1256" y="230"/>
      <point x="1182" y="178"/>
      <point x="1097" y="140" type="curve" smooth="yes"/>
      <point x="1012" y="101"/>
      <point x="920" y="82"/>
    </contour>
  </outline>
</glyph>
<glyph name="oe" format="2">
  <advance width="1994"/>
  <unicode hex="0153"/>
  <outline>
    <contour>
      <point x="526" y="-30" type="qcurve" smooth="yes"/>
      <point x="639" y="-30"/>
      <point x="848" y="65"/>
      <point x="1005" y="224"/>
      <point x="1100" y="436"/>
      <point x="1100" y="554" type="qcurve" smooth="yes"/>
      <point x="1100" y="643"/>
      <point x="1038" y="803"/>
      <point x="923" y="922"/>
      <point x="758" y="990"/>
      <point x="656" y="990" type="qcurve" smooth="yes"/>
      <point x="542" y="990"/>
      <point x="333" y="897"/>
      <point x="172" y="736"/>
      <point x="78" y="527"/>
      <point x="78" y="409" type="qcurve" smooth="yes"/>
      <point x="78" y="318"/>
      <point x="141" y="158"/>
      <point x="257" y="39"/>
      <point x="423" y="-30"/>
    </contour>
    <contour>
      <point x="544" y="78" type="qcurve" smooth="yes"/>
      <point x="463" y="78"/>
      <point x="336" y="124"/>
      <point x="245" y="209"/>
      <point x="197" y="329"/>
      <point x="197" y="404" type="qcurve" smooth="yes"/>
      <point x="197" y="499"/>
      <point x="260" y="672"/>
      <point x="377" y="804"/>
      <point x="539" y="882"/>
      <point x="640" y="882" type="qcurve" smooth="yes"/>
      <point x="718" y="882"/>
      <point x="847" y="836"/>
      <point x="936" y="752"/>
      <point x="985" y="632"/>
      <point x="985" y="556" type="qcurve" smooth="yes"/>
      <point x="985" y="462"/>
      <point x="922" y="289"/>
      <point x="806" y="157"/>
      <point x="644" y="78"/>
    </contour>
    <contour>
      <point x="1432" y="-30" type="qcurve" smooth="yes"/>
      <point x="1473" y="-30"/>
      <point x="1557" y="-19"/>
      <point x="1641" y="4"/>
      <point x="1723" y="37"/>
      <point x="1762" y="60" type="qcurve"/>
      <point x="1720" y="159" type="line"/>
      <point x="1659" y="120"/>
      <point x="1519" y="78"/>
      <point x="1450" y="78" type="qcurve" smooth="yes"/>
      <point x="1358" y="78"/>
      <point x="1208" y="134"/>
      <point x="1111" y="235"/>
      <point x="1075" y="378"/>
      <point x="1097" y="468" type="qcurve"/>
      <point x="1913" y="468" type="line"/>
      <point x="1947" y="570"/>
      <point x="1924" y="757"/>
      <point x="1824" y="903"/>
      <point x="1654" y="990"/>
      <point x="1540" y="990" type="qcurve" smooth="yes"/>
      <point x="1425" y="990"/>
      <point x="1219" y="894"/>
      <point x="1064" y="731"/>
      <point x="974" y="511"/>
      <point x="974" y="386" type="qcurve" smooth="yes"/>
      <point x="974" y="292"/>
      <point x="1038" y="139"/>
      <point x="1157" y="30"/>
      <point x="1327" y="-30"/>
    </contour>
    <contour>
      <point x="1121" y="572" type="line"/>
      <point x="1141" y="646"/>
      <point x="1214" y="761"/>
      <point x="1316" y="841"/>
      <point x="1443" y="882"/>
      <point x="1514" y="882" type="qcurve" smooth="yes"/>
      <point x="1677" y="882"/>
      <point x="1831" y="726"/>
      <point x="1815" y="572" type="qcurve"/>
    </contour>
  </outline>
</glyph>
<glyph name="Uogonek" format="2">
  <advance width="1444"/>
  <unicode hex="0172"/>
  <outline>
    <contour>
      <point x="651" y="-449" type="qcurve" smooth="yes"/>
      <point x="692" y="-449"/>
      <point x="769" y="-428"/>
      <point x="804" y="-408" type="qcurve"/>
      <point x="788" y="-313" type="line"/>
      <point x="767" y="-328"/>
      <point x="718" y="-343"/>
      <point x="687" y="-343" type="qcurve" smooth="yes"/>
      <point x="649" y="-343"/>
      <point x="604" y="-308"/>
      <point x="604" y="-259" type="qcurve" smooth="yes"/>
      <point x="604" y="-219"/>
      <point x="636" y="-145"/>
      <point x="699" y="-78"/>
      <point x="789" y="-19"/>
      <point x="845" y="4" type="qcurve"/>
      <point x="924" y="32"/>
      <point x="1059" y="129"/>
      <point x="1163" y="261"/>
      <point x="1240" y="424"/>
      <point x="1264" y="516" type="qcurve"/>
      <point x="1503" y="1400" type="line"/>
      <point x="1387" y="1400" type="line"/>
      <point x="1154" y="532" type="line" smooth="yes"/>
      <point x="1122" y="415"/>
      <point x="1023" y="245"/>
      <point x="895" y="135"/>
      <point x="741" y="82"/>
      <point x="654" y="82" type="qcurve" smooth="yes"/>
      <point x="543" y="82"/>
      <point x="390" y="145"/>
      <point x="306" y="262"/>
      <point x="293" y="428"/>
      <point x="322" y="532" type="qcurve"/>
      <point x="555" y="1400" type="line"/>
      <point x="439" y="1400" type="line"/>
      <point x="200" y="516" type="line" smooth="yes"/>
      <point x="169" y="403"/>
      <point x="195" y="204"/>
      <point x="305" y="58"/>
      <point x="490" y="-27"/>
      <point x="617" y="-30" type="qcurve"/>
      <point x="552" y="-85"/>
      <point x="476" y="-216"/>
      <point x="476" y="-281" type="qcurve" smooth="yes"/>
      <point x="476" y="-323"/>
      <point x="502" y="-387"/>
      <point x="548" y="-428"/>
      <point x="611" y="-449"/>
    </contour>
  </outline>
</glyph>
